%TF.GenerationSoftware,KiCad,Pcbnew,10.0.0*%
%TF.CreationDate,2026-04-08T13:22:48+01:00*%
%TF.ProjectId,esp32-c3-mini,65737033-322d-4633-932d-6d696e692e6b,rev?*%
%TF.SameCoordinates,Original*%
%TF.FileFunction,Legend,Bot*%
%TF.FilePolarity,Positive*%
%FSLAX46Y46*%
G04 Gerber Fmt 4.6, Leading zero omitted, Abs format (unit mm)*
G04 Created by KiCad (PCBNEW 10.0.0) date 2026-04-08 13:22:48*
%MOMM*%
%LPD*%
G01*
G04 APERTURE LIST*
%ADD10C,0.250000*%
%ADD11C,0.125000*%
G04 APERTURE END LIST*
D10*
X125538094Y-80610977D02*
X125204761Y-80610977D01*
X125061904Y-81134787D02*
X125538094Y-81134787D01*
X125538094Y-81134787D02*
X125538094Y-80134787D01*
X125538094Y-80134787D02*
X125061904Y-80134787D01*
X124680951Y-81087168D02*
X124538094Y-81134787D01*
X124538094Y-81134787D02*
X124299999Y-81134787D01*
X124299999Y-81134787D02*
X124204761Y-81087168D01*
X124204761Y-81087168D02*
X124157142Y-81039548D01*
X124157142Y-81039548D02*
X124109523Y-80944310D01*
X124109523Y-80944310D02*
X124109523Y-80849072D01*
X124109523Y-80849072D02*
X124157142Y-80753834D01*
X124157142Y-80753834D02*
X124204761Y-80706215D01*
X124204761Y-80706215D02*
X124299999Y-80658596D01*
X124299999Y-80658596D02*
X124490475Y-80610977D01*
X124490475Y-80610977D02*
X124585713Y-80563358D01*
X124585713Y-80563358D02*
X124633332Y-80515739D01*
X124633332Y-80515739D02*
X124680951Y-80420501D01*
X124680951Y-80420501D02*
X124680951Y-80325263D01*
X124680951Y-80325263D02*
X124633332Y-80230025D01*
X124633332Y-80230025D02*
X124585713Y-80182406D01*
X124585713Y-80182406D02*
X124490475Y-80134787D01*
X124490475Y-80134787D02*
X124252380Y-80134787D01*
X124252380Y-80134787D02*
X124109523Y-80182406D01*
X123680951Y-81134787D02*
X123680951Y-80134787D01*
X123680951Y-80134787D02*
X123299999Y-80134787D01*
X123299999Y-80134787D02*
X123204761Y-80182406D01*
X123204761Y-80182406D02*
X123157142Y-80230025D01*
X123157142Y-80230025D02*
X123109523Y-80325263D01*
X123109523Y-80325263D02*
X123109523Y-80468120D01*
X123109523Y-80468120D02*
X123157142Y-80563358D01*
X123157142Y-80563358D02*
X123204761Y-80610977D01*
X123204761Y-80610977D02*
X123299999Y-80658596D01*
X123299999Y-80658596D02*
X123680951Y-80658596D01*
X122776189Y-80134787D02*
X122157142Y-80134787D01*
X122157142Y-80134787D02*
X122490475Y-80515739D01*
X122490475Y-80515739D02*
X122347618Y-80515739D01*
X122347618Y-80515739D02*
X122252380Y-80563358D01*
X122252380Y-80563358D02*
X122204761Y-80610977D01*
X122204761Y-80610977D02*
X122157142Y-80706215D01*
X122157142Y-80706215D02*
X122157142Y-80944310D01*
X122157142Y-80944310D02*
X122204761Y-81039548D01*
X122204761Y-81039548D02*
X122252380Y-81087168D01*
X122252380Y-81087168D02*
X122347618Y-81134787D01*
X122347618Y-81134787D02*
X122633332Y-81134787D01*
X122633332Y-81134787D02*
X122728570Y-81087168D01*
X122728570Y-81087168D02*
X122776189Y-81039548D01*
X121776189Y-80230025D02*
X121728570Y-80182406D01*
X121728570Y-80182406D02*
X121633332Y-80134787D01*
X121633332Y-80134787D02*
X121395237Y-80134787D01*
X121395237Y-80134787D02*
X121299999Y-80182406D01*
X121299999Y-80182406D02*
X121252380Y-80230025D01*
X121252380Y-80230025D02*
X121204761Y-80325263D01*
X121204761Y-80325263D02*
X121204761Y-80420501D01*
X121204761Y-80420501D02*
X121252380Y-80563358D01*
X121252380Y-80563358D02*
X121823808Y-81134787D01*
X121823808Y-81134787D02*
X121204761Y-81134787D01*
X120776189Y-80753834D02*
X120014285Y-80753834D01*
X118966666Y-81039548D02*
X119014285Y-81087168D01*
X119014285Y-81087168D02*
X119157142Y-81134787D01*
X119157142Y-81134787D02*
X119252380Y-81134787D01*
X119252380Y-81134787D02*
X119395237Y-81087168D01*
X119395237Y-81087168D02*
X119490475Y-80991929D01*
X119490475Y-80991929D02*
X119538094Y-80896691D01*
X119538094Y-80896691D02*
X119585713Y-80706215D01*
X119585713Y-80706215D02*
X119585713Y-80563358D01*
X119585713Y-80563358D02*
X119538094Y-80372882D01*
X119538094Y-80372882D02*
X119490475Y-80277644D01*
X119490475Y-80277644D02*
X119395237Y-80182406D01*
X119395237Y-80182406D02*
X119252380Y-80134787D01*
X119252380Y-80134787D02*
X119157142Y-80134787D01*
X119157142Y-80134787D02*
X119014285Y-80182406D01*
X119014285Y-80182406D02*
X118966666Y-80230025D01*
X118633332Y-80134787D02*
X118014285Y-80134787D01*
X118014285Y-80134787D02*
X118347618Y-80515739D01*
X118347618Y-80515739D02*
X118204761Y-80515739D01*
X118204761Y-80515739D02*
X118109523Y-80563358D01*
X118109523Y-80563358D02*
X118061904Y-80610977D01*
X118061904Y-80610977D02*
X118014285Y-80706215D01*
X118014285Y-80706215D02*
X118014285Y-80944310D01*
X118014285Y-80944310D02*
X118061904Y-81039548D01*
X118061904Y-81039548D02*
X118109523Y-81087168D01*
X118109523Y-81087168D02*
X118204761Y-81134787D01*
X118204761Y-81134787D02*
X118490475Y-81134787D01*
X118490475Y-81134787D02*
X118585713Y-81087168D01*
X118585713Y-81087168D02*
X118633332Y-81039548D01*
X125252380Y-82697112D02*
X125157142Y-82744731D01*
X125157142Y-82744731D02*
X124966666Y-82744731D01*
X124966666Y-82744731D02*
X124871428Y-82697112D01*
X124871428Y-82697112D02*
X124823809Y-82601873D01*
X124823809Y-82601873D02*
X124823809Y-82554254D01*
X124823809Y-82554254D02*
X124871428Y-82459016D01*
X124871428Y-82459016D02*
X124966666Y-82411397D01*
X124966666Y-82411397D02*
X125109523Y-82411397D01*
X125109523Y-82411397D02*
X125204761Y-82363778D01*
X125204761Y-82363778D02*
X125252380Y-82268540D01*
X125252380Y-82268540D02*
X125252380Y-82220921D01*
X125252380Y-82220921D02*
X125204761Y-82125683D01*
X125204761Y-82125683D02*
X125109523Y-82078064D01*
X125109523Y-82078064D02*
X124966666Y-82078064D01*
X124966666Y-82078064D02*
X124871428Y-82125683D01*
X123966666Y-82078064D02*
X123966666Y-82744731D01*
X124395237Y-82078064D02*
X124395237Y-82601873D01*
X124395237Y-82601873D02*
X124347618Y-82697112D01*
X124347618Y-82697112D02*
X124252380Y-82744731D01*
X124252380Y-82744731D02*
X124109523Y-82744731D01*
X124109523Y-82744731D02*
X124014285Y-82697112D01*
X124014285Y-82697112D02*
X123966666Y-82649492D01*
X123490475Y-82078064D02*
X123490475Y-83078064D01*
X123490475Y-82125683D02*
X123395237Y-82078064D01*
X123395237Y-82078064D02*
X123204761Y-82078064D01*
X123204761Y-82078064D02*
X123109523Y-82125683D01*
X123109523Y-82125683D02*
X123061904Y-82173302D01*
X123061904Y-82173302D02*
X123014285Y-82268540D01*
X123014285Y-82268540D02*
X123014285Y-82554254D01*
X123014285Y-82554254D02*
X123061904Y-82649492D01*
X123061904Y-82649492D02*
X123109523Y-82697112D01*
X123109523Y-82697112D02*
X123204761Y-82744731D01*
X123204761Y-82744731D02*
X123395237Y-82744731D01*
X123395237Y-82744731D02*
X123490475Y-82697112D01*
X122204761Y-82697112D02*
X122299999Y-82744731D01*
X122299999Y-82744731D02*
X122490475Y-82744731D01*
X122490475Y-82744731D02*
X122585713Y-82697112D01*
X122585713Y-82697112D02*
X122633332Y-82601873D01*
X122633332Y-82601873D02*
X122633332Y-82220921D01*
X122633332Y-82220921D02*
X122585713Y-82125683D01*
X122585713Y-82125683D02*
X122490475Y-82078064D01*
X122490475Y-82078064D02*
X122299999Y-82078064D01*
X122299999Y-82078064D02*
X122204761Y-82125683D01*
X122204761Y-82125683D02*
X122157142Y-82220921D01*
X122157142Y-82220921D02*
X122157142Y-82316159D01*
X122157142Y-82316159D02*
X122633332Y-82411397D01*
X121728570Y-82744731D02*
X121728570Y-82078064D01*
X121728570Y-82268540D02*
X121680951Y-82173302D01*
X121680951Y-82173302D02*
X121633332Y-82125683D01*
X121633332Y-82125683D02*
X121538094Y-82078064D01*
X121538094Y-82078064D02*
X121442856Y-82078064D01*
X121109522Y-82744731D02*
X121109522Y-82078064D01*
X121109522Y-82173302D02*
X121061903Y-82125683D01*
X121061903Y-82125683D02*
X120966665Y-82078064D01*
X120966665Y-82078064D02*
X120823808Y-82078064D01*
X120823808Y-82078064D02*
X120728570Y-82125683D01*
X120728570Y-82125683D02*
X120680951Y-82220921D01*
X120680951Y-82220921D02*
X120680951Y-82744731D01*
X120680951Y-82220921D02*
X120633332Y-82125683D01*
X120633332Y-82125683D02*
X120538094Y-82078064D01*
X120538094Y-82078064D02*
X120395237Y-82078064D01*
X120395237Y-82078064D02*
X120299998Y-82125683D01*
X120299998Y-82125683D02*
X120252379Y-82220921D01*
X120252379Y-82220921D02*
X120252379Y-82744731D01*
X119776189Y-82744731D02*
X119776189Y-82078064D01*
X119776189Y-81744731D02*
X119823808Y-81792350D01*
X119823808Y-81792350D02*
X119776189Y-81839969D01*
X119776189Y-81839969D02*
X119728570Y-81792350D01*
X119728570Y-81792350D02*
X119776189Y-81744731D01*
X119776189Y-81744731D02*
X119776189Y-81839969D01*
X119299999Y-82078064D02*
X119299999Y-82744731D01*
X119299999Y-82173302D02*
X119252380Y-82125683D01*
X119252380Y-82125683D02*
X119157142Y-82078064D01*
X119157142Y-82078064D02*
X119014285Y-82078064D01*
X119014285Y-82078064D02*
X118919047Y-82125683D01*
X118919047Y-82125683D02*
X118871428Y-82220921D01*
X118871428Y-82220921D02*
X118871428Y-82744731D01*
X118395237Y-82744731D02*
X118395237Y-82078064D01*
X118395237Y-81744731D02*
X118442856Y-81792350D01*
X118442856Y-81792350D02*
X118395237Y-81839969D01*
X118395237Y-81839969D02*
X118347618Y-81792350D01*
X118347618Y-81792350D02*
X118395237Y-81744731D01*
X118395237Y-81744731D02*
X118395237Y-81839969D01*
X122395237Y-84354675D02*
X122395237Y-83354675D01*
X122395237Y-83735627D02*
X122299999Y-83688008D01*
X122299999Y-83688008D02*
X122109523Y-83688008D01*
X122109523Y-83688008D02*
X122014285Y-83735627D01*
X122014285Y-83735627D02*
X121966666Y-83783246D01*
X121966666Y-83783246D02*
X121919047Y-83878484D01*
X121919047Y-83878484D02*
X121919047Y-84164198D01*
X121919047Y-84164198D02*
X121966666Y-84259436D01*
X121966666Y-84259436D02*
X122014285Y-84307056D01*
X122014285Y-84307056D02*
X122109523Y-84354675D01*
X122109523Y-84354675D02*
X122299999Y-84354675D01*
X122299999Y-84354675D02*
X122395237Y-84307056D01*
X121585713Y-83688008D02*
X121347618Y-84354675D01*
X121109523Y-83688008D02*
X121347618Y-84354675D01*
X121347618Y-84354675D02*
X121442856Y-84592770D01*
X121442856Y-84592770D02*
X121490475Y-84640389D01*
X121490475Y-84640389D02*
X121585713Y-84688008D01*
X127680952Y-85440809D02*
X127347619Y-85440809D01*
X127204762Y-85964619D02*
X127680952Y-85964619D01*
X127680952Y-85964619D02*
X127680952Y-84964619D01*
X127680952Y-84964619D02*
X127204762Y-84964619D01*
X126776190Y-85964619D02*
X126776190Y-84964619D01*
X126680952Y-85583666D02*
X126395238Y-85964619D01*
X126395238Y-85297952D02*
X126776190Y-85678904D01*
X125585714Y-85917000D02*
X125680952Y-85964619D01*
X125680952Y-85964619D02*
X125871428Y-85964619D01*
X125871428Y-85964619D02*
X125966666Y-85917000D01*
X125966666Y-85917000D02*
X126014285Y-85821761D01*
X126014285Y-85821761D02*
X126014285Y-85440809D01*
X126014285Y-85440809D02*
X125966666Y-85345571D01*
X125966666Y-85345571D02*
X125871428Y-85297952D01*
X125871428Y-85297952D02*
X125680952Y-85297952D01*
X125680952Y-85297952D02*
X125585714Y-85345571D01*
X125585714Y-85345571D02*
X125538095Y-85440809D01*
X125538095Y-85440809D02*
X125538095Y-85536047D01*
X125538095Y-85536047D02*
X126014285Y-85631285D01*
X125109523Y-85297952D02*
X125109523Y-85964619D01*
X125109523Y-85393190D02*
X125061904Y-85345571D01*
X125061904Y-85345571D02*
X124966666Y-85297952D01*
X124966666Y-85297952D02*
X124823809Y-85297952D01*
X124823809Y-85297952D02*
X124728571Y-85345571D01*
X124728571Y-85345571D02*
X124680952Y-85440809D01*
X124680952Y-85440809D02*
X124680952Y-85964619D01*
X123823809Y-85917000D02*
X123919047Y-85964619D01*
X123919047Y-85964619D02*
X124109523Y-85964619D01*
X124109523Y-85964619D02*
X124204761Y-85917000D01*
X124204761Y-85917000D02*
X124252380Y-85821761D01*
X124252380Y-85821761D02*
X124252380Y-85440809D01*
X124252380Y-85440809D02*
X124204761Y-85345571D01*
X124204761Y-85345571D02*
X124109523Y-85297952D01*
X124109523Y-85297952D02*
X123919047Y-85297952D01*
X123919047Y-85297952D02*
X123823809Y-85345571D01*
X123823809Y-85345571D02*
X123776190Y-85440809D01*
X123776190Y-85440809D02*
X123776190Y-85536047D01*
X123776190Y-85536047D02*
X124252380Y-85631285D01*
X122919047Y-85964619D02*
X122919047Y-84964619D01*
X122919047Y-85917000D02*
X123014285Y-85964619D01*
X123014285Y-85964619D02*
X123204761Y-85964619D01*
X123204761Y-85964619D02*
X123299999Y-85917000D01*
X123299999Y-85917000D02*
X123347618Y-85869380D01*
X123347618Y-85869380D02*
X123395237Y-85774142D01*
X123395237Y-85774142D02*
X123395237Y-85488428D01*
X123395237Y-85488428D02*
X123347618Y-85393190D01*
X123347618Y-85393190D02*
X123299999Y-85345571D01*
X123299999Y-85345571D02*
X123204761Y-85297952D01*
X123204761Y-85297952D02*
X123014285Y-85297952D01*
X123014285Y-85297952D02*
X122919047Y-85345571D01*
X122442856Y-85964619D02*
X122442856Y-85297952D01*
X122442856Y-84964619D02*
X122490475Y-85012238D01*
X122490475Y-85012238D02*
X122442856Y-85059857D01*
X122442856Y-85059857D02*
X122395237Y-85012238D01*
X122395237Y-85012238D02*
X122442856Y-84964619D01*
X122442856Y-84964619D02*
X122442856Y-85059857D01*
X121966666Y-85964619D02*
X121966666Y-85297952D01*
X121966666Y-85488428D02*
X121919047Y-85393190D01*
X121919047Y-85393190D02*
X121871428Y-85345571D01*
X121871428Y-85345571D02*
X121776190Y-85297952D01*
X121776190Y-85297952D02*
X121680952Y-85297952D01*
X121347618Y-85964619D02*
X121347618Y-85297952D01*
X121347618Y-84964619D02*
X121395237Y-85012238D01*
X121395237Y-85012238D02*
X121347618Y-85059857D01*
X121347618Y-85059857D02*
X121299999Y-85012238D01*
X121299999Y-85012238D02*
X121347618Y-84964619D01*
X121347618Y-84964619D02*
X121347618Y-85059857D01*
X120442857Y-85917000D02*
X120538095Y-85964619D01*
X120538095Y-85964619D02*
X120728571Y-85964619D01*
X120728571Y-85964619D02*
X120823809Y-85917000D01*
X120823809Y-85917000D02*
X120871428Y-85869380D01*
X120871428Y-85869380D02*
X120919047Y-85774142D01*
X120919047Y-85774142D02*
X120919047Y-85488428D01*
X120919047Y-85488428D02*
X120871428Y-85393190D01*
X120871428Y-85393190D02*
X120823809Y-85345571D01*
X120823809Y-85345571D02*
X120728571Y-85297952D01*
X120728571Y-85297952D02*
X120538095Y-85297952D01*
X120538095Y-85297952D02*
X120442857Y-85345571D01*
X120014285Y-85964619D02*
X120014285Y-84964619D01*
X119585714Y-85964619D02*
X119585714Y-85440809D01*
X119585714Y-85440809D02*
X119633333Y-85345571D01*
X119633333Y-85345571D02*
X119728571Y-85297952D01*
X119728571Y-85297952D02*
X119871428Y-85297952D01*
X119871428Y-85297952D02*
X119966666Y-85345571D01*
X119966666Y-85345571D02*
X120014285Y-85393190D01*
X118680952Y-85297952D02*
X118680952Y-85964619D01*
X119109523Y-85297952D02*
X119109523Y-85821761D01*
X119109523Y-85821761D02*
X119061904Y-85917000D01*
X119061904Y-85917000D02*
X118966666Y-85964619D01*
X118966666Y-85964619D02*
X118823809Y-85964619D01*
X118823809Y-85964619D02*
X118728571Y-85917000D01*
X118728571Y-85917000D02*
X118680952Y-85869380D01*
X118204761Y-85964619D02*
X118204761Y-84964619D01*
X118109523Y-85583666D02*
X117823809Y-85964619D01*
X117823809Y-85297952D02*
X118204761Y-85678904D01*
X117490475Y-85297952D02*
X117299999Y-85964619D01*
X117299999Y-85964619D02*
X117109523Y-85488428D01*
X117109523Y-85488428D02*
X116919047Y-85964619D01*
X116919047Y-85964619D02*
X116728571Y-85297952D01*
X115919047Y-85297952D02*
X115919047Y-85964619D01*
X116347618Y-85297952D02*
X116347618Y-85821761D01*
X116347618Y-85821761D02*
X116299999Y-85917000D01*
X116299999Y-85917000D02*
X116204761Y-85964619D01*
X116204761Y-85964619D02*
X116061904Y-85964619D01*
X116061904Y-85964619D02*
X115966666Y-85917000D01*
X115966666Y-85917000D02*
X115919047Y-85869380D01*
D11*
X130160621Y-63032309D02*
X130398716Y-63032309D01*
X130398716Y-63032309D02*
X130422525Y-63270404D01*
X130422525Y-63270404D02*
X130398716Y-63246595D01*
X130398716Y-63246595D02*
X130351097Y-63222785D01*
X130351097Y-63222785D02*
X130232049Y-63222785D01*
X130232049Y-63222785D02*
X130184430Y-63246595D01*
X130184430Y-63246595D02*
X130160621Y-63270404D01*
X130160621Y-63270404D02*
X130136811Y-63318023D01*
X130136811Y-63318023D02*
X130136811Y-63437071D01*
X130136811Y-63437071D02*
X130160621Y-63484690D01*
X130160621Y-63484690D02*
X130184430Y-63508500D01*
X130184430Y-63508500D02*
X130232049Y-63532309D01*
X130232049Y-63532309D02*
X130351097Y-63532309D01*
X130351097Y-63532309D02*
X130398716Y-63508500D01*
X130398716Y-63508500D02*
X130422525Y-63484690D01*
X129993954Y-63032309D02*
X129827288Y-63532309D01*
X129827288Y-63532309D02*
X129660621Y-63032309D01*
X130036811Y-65656119D02*
X130084430Y-65632309D01*
X130084430Y-65632309D02*
X130155859Y-65632309D01*
X130155859Y-65632309D02*
X130227287Y-65656119D01*
X130227287Y-65656119D02*
X130274906Y-65703738D01*
X130274906Y-65703738D02*
X130298716Y-65751357D01*
X130298716Y-65751357D02*
X130322525Y-65846595D01*
X130322525Y-65846595D02*
X130322525Y-65918023D01*
X130322525Y-65918023D02*
X130298716Y-66013261D01*
X130298716Y-66013261D02*
X130274906Y-66060880D01*
X130274906Y-66060880D02*
X130227287Y-66108500D01*
X130227287Y-66108500D02*
X130155859Y-66132309D01*
X130155859Y-66132309D02*
X130108240Y-66132309D01*
X130108240Y-66132309D02*
X130036811Y-66108500D01*
X130036811Y-66108500D02*
X130013002Y-66084690D01*
X130013002Y-66084690D02*
X130013002Y-65918023D01*
X130013002Y-65918023D02*
X130108240Y-65918023D01*
X129798716Y-66132309D02*
X129798716Y-65632309D01*
X129798716Y-65632309D02*
X129513002Y-66132309D01*
X129513002Y-66132309D02*
X129513002Y-65632309D01*
X129274906Y-66132309D02*
X129274906Y-65632309D01*
X129274906Y-65632309D02*
X129155858Y-65632309D01*
X129155858Y-65632309D02*
X129084430Y-65656119D01*
X129084430Y-65656119D02*
X129036811Y-65703738D01*
X129036811Y-65703738D02*
X129013001Y-65751357D01*
X129013001Y-65751357D02*
X128989192Y-65846595D01*
X128989192Y-65846595D02*
X128989192Y-65918023D01*
X128989192Y-65918023D02*
X129013001Y-66013261D01*
X129013001Y-66013261D02*
X129036811Y-66060880D01*
X129036811Y-66060880D02*
X129084430Y-66108500D01*
X129084430Y-66108500D02*
X129155858Y-66132309D01*
X129155858Y-66132309D02*
X129274906Y-66132309D01*
X130346335Y-68132309D02*
X130036811Y-68132309D01*
X130036811Y-68132309D02*
X130203478Y-68322785D01*
X130203478Y-68322785D02*
X130132049Y-68322785D01*
X130132049Y-68322785D02*
X130084430Y-68346595D01*
X130084430Y-68346595D02*
X130060621Y-68370404D01*
X130060621Y-68370404D02*
X130036811Y-68418023D01*
X130036811Y-68418023D02*
X130036811Y-68537071D01*
X130036811Y-68537071D02*
X130060621Y-68584690D01*
X130060621Y-68584690D02*
X130084430Y-68608500D01*
X130084430Y-68608500D02*
X130132049Y-68632309D01*
X130132049Y-68632309D02*
X130274906Y-68632309D01*
X130274906Y-68632309D02*
X130322525Y-68608500D01*
X130322525Y-68608500D02*
X130346335Y-68584690D01*
X129822526Y-68584690D02*
X129798716Y-68608500D01*
X129798716Y-68608500D02*
X129822526Y-68632309D01*
X129822526Y-68632309D02*
X129846335Y-68608500D01*
X129846335Y-68608500D02*
X129822526Y-68584690D01*
X129822526Y-68584690D02*
X129822526Y-68632309D01*
X129632050Y-68132309D02*
X129322526Y-68132309D01*
X129322526Y-68132309D02*
X129489193Y-68322785D01*
X129489193Y-68322785D02*
X129417764Y-68322785D01*
X129417764Y-68322785D02*
X129370145Y-68346595D01*
X129370145Y-68346595D02*
X129346336Y-68370404D01*
X129346336Y-68370404D02*
X129322526Y-68418023D01*
X129322526Y-68418023D02*
X129322526Y-68537071D01*
X129322526Y-68537071D02*
X129346336Y-68584690D01*
X129346336Y-68584690D02*
X129370145Y-68608500D01*
X129370145Y-68608500D02*
X129417764Y-68632309D01*
X129417764Y-68632309D02*
X129560621Y-68632309D01*
X129560621Y-68632309D02*
X129608240Y-68608500D01*
X129608240Y-68608500D02*
X129632050Y-68584690D01*
X130303478Y-70632309D02*
X130255859Y-70632309D01*
X130255859Y-70632309D02*
X130208240Y-70656119D01*
X130208240Y-70656119D02*
X130184430Y-70679928D01*
X130184430Y-70679928D02*
X130160621Y-70727547D01*
X130160621Y-70727547D02*
X130136811Y-70822785D01*
X130136811Y-70822785D02*
X130136811Y-70941833D01*
X130136811Y-70941833D02*
X130160621Y-71037071D01*
X130160621Y-71037071D02*
X130184430Y-71084690D01*
X130184430Y-71084690D02*
X130208240Y-71108500D01*
X130208240Y-71108500D02*
X130255859Y-71132309D01*
X130255859Y-71132309D02*
X130303478Y-71132309D01*
X130303478Y-71132309D02*
X130351097Y-71108500D01*
X130351097Y-71108500D02*
X130374906Y-71084690D01*
X130374906Y-71084690D02*
X130398716Y-71037071D01*
X130398716Y-71037071D02*
X130422525Y-70941833D01*
X130422525Y-70941833D02*
X130422525Y-70822785D01*
X130422525Y-70822785D02*
X130398716Y-70727547D01*
X130398716Y-70727547D02*
X130374906Y-70679928D01*
X130374906Y-70679928D02*
X130351097Y-70656119D01*
X130351097Y-70656119D02*
X130303478Y-70632309D01*
X130136811Y-73832309D02*
X130422525Y-73832309D01*
X130279668Y-73832309D02*
X130279668Y-73332309D01*
X130279668Y-73332309D02*
X130327287Y-73403738D01*
X130327287Y-73403738D02*
X130374906Y-73451357D01*
X130374906Y-73451357D02*
X130422525Y-73475166D01*
X130446335Y-75832309D02*
X130136811Y-75832309D01*
X130136811Y-75832309D02*
X130303478Y-76022785D01*
X130303478Y-76022785D02*
X130232049Y-76022785D01*
X130232049Y-76022785D02*
X130184430Y-76046595D01*
X130184430Y-76046595D02*
X130160621Y-76070404D01*
X130160621Y-76070404D02*
X130136811Y-76118023D01*
X130136811Y-76118023D02*
X130136811Y-76237071D01*
X130136811Y-76237071D02*
X130160621Y-76284690D01*
X130160621Y-76284690D02*
X130184430Y-76308500D01*
X130184430Y-76308500D02*
X130232049Y-76332309D01*
X130232049Y-76332309D02*
X130374906Y-76332309D01*
X130374906Y-76332309D02*
X130422525Y-76308500D01*
X130422525Y-76308500D02*
X130446335Y-76284690D01*
X130184430Y-78298976D02*
X130184430Y-78632309D01*
X130303478Y-78108500D02*
X130422525Y-78465642D01*
X130422525Y-78465642D02*
X130113002Y-78465642D01*
X112722525Y-78179928D02*
X112698716Y-78156119D01*
X112698716Y-78156119D02*
X112651097Y-78132309D01*
X112651097Y-78132309D02*
X112532049Y-78132309D01*
X112532049Y-78132309D02*
X112484430Y-78156119D01*
X112484430Y-78156119D02*
X112460621Y-78179928D01*
X112460621Y-78179928D02*
X112436811Y-78227547D01*
X112436811Y-78227547D02*
X112436811Y-78275166D01*
X112436811Y-78275166D02*
X112460621Y-78346595D01*
X112460621Y-78346595D02*
X112746335Y-78632309D01*
X112746335Y-78632309D02*
X112436811Y-78632309D01*
X111960621Y-78632309D02*
X112246335Y-78632309D01*
X112103478Y-78632309D02*
X112103478Y-78132309D01*
X112103478Y-78132309D02*
X112151097Y-78203738D01*
X112151097Y-78203738D02*
X112198716Y-78251357D01*
X112198716Y-78251357D02*
X112246335Y-78275166D01*
X112722525Y-75479928D02*
X112698716Y-75456119D01*
X112698716Y-75456119D02*
X112651097Y-75432309D01*
X112651097Y-75432309D02*
X112532049Y-75432309D01*
X112532049Y-75432309D02*
X112484430Y-75456119D01*
X112484430Y-75456119D02*
X112460621Y-75479928D01*
X112460621Y-75479928D02*
X112436811Y-75527547D01*
X112436811Y-75527547D02*
X112436811Y-75575166D01*
X112436811Y-75575166D02*
X112460621Y-75646595D01*
X112460621Y-75646595D02*
X112746335Y-75932309D01*
X112746335Y-75932309D02*
X112436811Y-75932309D01*
X112127288Y-75432309D02*
X112079669Y-75432309D01*
X112079669Y-75432309D02*
X112032050Y-75456119D01*
X112032050Y-75456119D02*
X112008240Y-75479928D01*
X112008240Y-75479928D02*
X111984431Y-75527547D01*
X111984431Y-75527547D02*
X111960621Y-75622785D01*
X111960621Y-75622785D02*
X111960621Y-75741833D01*
X111960621Y-75741833D02*
X111984431Y-75837071D01*
X111984431Y-75837071D02*
X112008240Y-75884690D01*
X112008240Y-75884690D02*
X112032050Y-75908500D01*
X112032050Y-75908500D02*
X112079669Y-75932309D01*
X112079669Y-75932309D02*
X112127288Y-75932309D01*
X112127288Y-75932309D02*
X112174907Y-75908500D01*
X112174907Y-75908500D02*
X112198716Y-75884690D01*
X112198716Y-75884690D02*
X112222526Y-75837071D01*
X112222526Y-75837071D02*
X112246335Y-75741833D01*
X112246335Y-75741833D02*
X112246335Y-75622785D01*
X112246335Y-75622785D02*
X112222526Y-75527547D01*
X112222526Y-75527547D02*
X112198716Y-75479928D01*
X112198716Y-75479928D02*
X112174907Y-75456119D01*
X112174907Y-75456119D02*
X112127288Y-75432309D01*
X112436811Y-73532309D02*
X112722525Y-73532309D01*
X112579668Y-73532309D02*
X112579668Y-73032309D01*
X112579668Y-73032309D02*
X112627287Y-73103738D01*
X112627287Y-73103738D02*
X112674906Y-73151357D01*
X112674906Y-73151357D02*
X112722525Y-73175166D01*
X112127288Y-73032309D02*
X112079669Y-73032309D01*
X112079669Y-73032309D02*
X112032050Y-73056119D01*
X112032050Y-73056119D02*
X112008240Y-73079928D01*
X112008240Y-73079928D02*
X111984431Y-73127547D01*
X111984431Y-73127547D02*
X111960621Y-73222785D01*
X111960621Y-73222785D02*
X111960621Y-73341833D01*
X111960621Y-73341833D02*
X111984431Y-73437071D01*
X111984431Y-73437071D02*
X112008240Y-73484690D01*
X112008240Y-73484690D02*
X112032050Y-73508500D01*
X112032050Y-73508500D02*
X112079669Y-73532309D01*
X112079669Y-73532309D02*
X112127288Y-73532309D01*
X112127288Y-73532309D02*
X112174907Y-73508500D01*
X112174907Y-73508500D02*
X112198716Y-73484690D01*
X112198716Y-73484690D02*
X112222526Y-73437071D01*
X112222526Y-73437071D02*
X112246335Y-73341833D01*
X112246335Y-73341833D02*
X112246335Y-73222785D01*
X112246335Y-73222785D02*
X112222526Y-73127547D01*
X112222526Y-73127547D02*
X112198716Y-73079928D01*
X112198716Y-73079928D02*
X112174907Y-73056119D01*
X112174907Y-73056119D02*
X112127288Y-73032309D01*
X112174906Y-70932309D02*
X112079668Y-70932309D01*
X112079668Y-70932309D02*
X112032049Y-70908500D01*
X112032049Y-70908500D02*
X112008240Y-70884690D01*
X112008240Y-70884690D02*
X111960621Y-70813261D01*
X111960621Y-70813261D02*
X111936811Y-70718023D01*
X111936811Y-70718023D02*
X111936811Y-70527547D01*
X111936811Y-70527547D02*
X111960621Y-70479928D01*
X111960621Y-70479928D02*
X111984430Y-70456119D01*
X111984430Y-70456119D02*
X112032049Y-70432309D01*
X112032049Y-70432309D02*
X112127287Y-70432309D01*
X112127287Y-70432309D02*
X112174906Y-70456119D01*
X112174906Y-70456119D02*
X112198716Y-70479928D01*
X112198716Y-70479928D02*
X112222525Y-70527547D01*
X112222525Y-70527547D02*
X112222525Y-70646595D01*
X112222525Y-70646595D02*
X112198716Y-70694214D01*
X112198716Y-70694214D02*
X112174906Y-70718023D01*
X112174906Y-70718023D02*
X112127287Y-70741833D01*
X112127287Y-70741833D02*
X112032049Y-70741833D01*
X112032049Y-70741833D02*
X111984430Y-70718023D01*
X111984430Y-70718023D02*
X111960621Y-70694214D01*
X111960621Y-70694214D02*
X111936811Y-70646595D01*
X112346335Y-68032309D02*
X112013002Y-68032309D01*
X112013002Y-68032309D02*
X112227287Y-68532309D01*
X111984430Y-65432309D02*
X112079668Y-65432309D01*
X112079668Y-65432309D02*
X112127287Y-65456119D01*
X112127287Y-65456119D02*
X112151097Y-65479928D01*
X112151097Y-65479928D02*
X112198716Y-65551357D01*
X112198716Y-65551357D02*
X112222525Y-65646595D01*
X112222525Y-65646595D02*
X112222525Y-65837071D01*
X112222525Y-65837071D02*
X112198716Y-65884690D01*
X112198716Y-65884690D02*
X112174906Y-65908500D01*
X112174906Y-65908500D02*
X112127287Y-65932309D01*
X112127287Y-65932309D02*
X112032049Y-65932309D01*
X112032049Y-65932309D02*
X111984430Y-65908500D01*
X111984430Y-65908500D02*
X111960621Y-65884690D01*
X111960621Y-65884690D02*
X111936811Y-65837071D01*
X111936811Y-65837071D02*
X111936811Y-65718023D01*
X111936811Y-65718023D02*
X111960621Y-65670404D01*
X111960621Y-65670404D02*
X111984430Y-65646595D01*
X111984430Y-65646595D02*
X112032049Y-65622785D01*
X112032049Y-65622785D02*
X112127287Y-65622785D01*
X112127287Y-65622785D02*
X112174906Y-65646595D01*
X112174906Y-65646595D02*
X112198716Y-65670404D01*
X112198716Y-65670404D02*
X112222525Y-65718023D01*
X111960621Y-62932309D02*
X112198716Y-62932309D01*
X112198716Y-62932309D02*
X112222525Y-63170404D01*
X112222525Y-63170404D02*
X112198716Y-63146595D01*
X112198716Y-63146595D02*
X112151097Y-63122785D01*
X112151097Y-63122785D02*
X112032049Y-63122785D01*
X112032049Y-63122785D02*
X111984430Y-63146595D01*
X111984430Y-63146595D02*
X111960621Y-63170404D01*
X111960621Y-63170404D02*
X111936811Y-63218023D01*
X111936811Y-63218023D02*
X111936811Y-63337071D01*
X111936811Y-63337071D02*
X111960621Y-63384690D01*
X111960621Y-63384690D02*
X111984430Y-63408500D01*
X111984430Y-63408500D02*
X112032049Y-63432309D01*
X112032049Y-63432309D02*
X112151097Y-63432309D01*
X112151097Y-63432309D02*
X112198716Y-63408500D01*
X112198716Y-63408500D02*
X112222525Y-63384690D01*
M02*
