%TF.GenerationSoftware,KiCad,Pcbnew,10.0.0*%
%TF.CreationDate,2026-04-08T13:22:48+01:00*%
%TF.ProjectId,esp32-c3-mini,65737033-322d-4633-932d-6d696e692e6b,rev?*%
%TF.SameCoordinates,Original*%
%TF.FileFunction,Copper,L1,Top*%
%TF.FilePolarity,Positive*%
%FSLAX46Y46*%
G04 Gerber Fmt 4.6, Leading zero omitted, Abs format (unit mm)*
G04 Created by KiCad (PCBNEW 10.0.0) date 2026-04-08 13:22:48*
%MOMM*%
%LPD*%
G01*
G04 APERTURE LIST*
G04 Aperture macros list*
%AMRoundRect*
0 Rectangle with rounded corners*
0 $1 Rounding radius*
0 $2 $3 $4 $5 $6 $7 $8 $9 X,Y pos of 4 corners*
0 Add a 4 corners polygon primitive as box body*
4,1,4,$2,$3,$4,$5,$6,$7,$8,$9,$2,$3,0*
0 Add four circle primitives for the rounded corners*
1,1,$1+$1,$2,$3*
1,1,$1+$1,$4,$5*
1,1,$1+$1,$6,$7*
1,1,$1+$1,$8,$9*
0 Add four rect primitives between the rounded corners*
20,1,$1+$1,$2,$3,$4,$5,0*
20,1,$1+$1,$4,$5,$6,$7,0*
20,1,$1+$1,$6,$7,$8,$9,0*
20,1,$1+$1,$8,$9,$2,$3,0*%
G04 Aperture macros list end*
%TA.AperFunction,SMDPad,CuDef*%
%ADD10RoundRect,0.135000X-0.185000X0.135000X-0.185000X-0.135000X0.185000X-0.135000X0.185000X0.135000X0*%
%TD*%
%TA.AperFunction,SMDPad,CuDef*%
%ADD11RoundRect,0.135000X0.185000X-0.135000X0.185000X0.135000X-0.185000X0.135000X-0.185000X-0.135000X0*%
%TD*%
%TA.AperFunction,SMDPad,CuDef*%
%ADD12RoundRect,0.250000X0.350000X-0.450000X0.350000X0.450000X-0.350000X0.450000X-0.350000X-0.450000X0*%
%TD*%
%TA.AperFunction,SMDPad,CuDef*%
%ADD13RoundRect,0.200000X0.275000X-0.200000X0.275000X0.200000X-0.275000X0.200000X-0.275000X-0.200000X0*%
%TD*%
%TA.AperFunction,SMDPad,CuDef*%
%ADD14RoundRect,0.225000X-0.250000X0.225000X-0.250000X-0.225000X0.250000X-0.225000X0.250000X0.225000X0*%
%TD*%
%TA.AperFunction,SMDPad,CuDef*%
%ADD15RoundRect,0.225000X-0.225000X-0.250000X0.225000X-0.250000X0.225000X0.250000X-0.225000X0.250000X0*%
%TD*%
%TA.AperFunction,SMDPad,CuDef*%
%ADD16RoundRect,0.200000X0.200000X0.800000X-0.200000X0.800000X-0.200000X-0.800000X0.200000X-0.800000X0*%
%TD*%
%TA.AperFunction,SMDPad,CuDef*%
%ADD17RoundRect,0.140000X-0.140000X-0.170000X0.140000X-0.170000X0.140000X0.170000X-0.140000X0.170000X0*%
%TD*%
%TA.AperFunction,SMDPad,CuDef*%
%ADD18RoundRect,0.140000X-0.170000X0.140000X-0.170000X-0.140000X0.170000X-0.140000X0.170000X0.140000X0*%
%TD*%
%TA.AperFunction,SMDPad,CuDef*%
%ADD19RoundRect,0.095000X-0.095000X-0.405000X0.095000X-0.405000X0.095000X0.405000X-0.095000X0.405000X0*%
%TD*%
%TA.AperFunction,SMDPad,CuDef*%
%ADD20RoundRect,0.175000X-0.175000X-0.400000X0.175000X-0.400000X0.175000X0.400000X-0.175000X0.400000X0*%
%TD*%
%TA.AperFunction,SMDPad,CuDef*%
%ADD21RoundRect,0.147500X-0.147500X-0.172500X0.147500X-0.172500X0.147500X0.172500X-0.147500X0.172500X0*%
%TD*%
%TA.AperFunction,SMDPad,CuDef*%
%ADD22RoundRect,0.200000X-0.275000X0.200000X-0.275000X-0.200000X0.275000X-0.200000X0.275000X0.200000X0*%
%TD*%
%TA.AperFunction,SMDPad,CuDef*%
%ADD23R,1.200000X2.000000*%
%TD*%
%TA.AperFunction,SMDPad,CuDef*%
%ADD24RoundRect,0.147500X0.172500X-0.147500X0.172500X0.147500X-0.172500X0.147500X-0.172500X-0.147500X0*%
%TD*%
%TA.AperFunction,SMDPad,CuDef*%
%ADD25RoundRect,0.218750X0.218750X0.256250X-0.218750X0.256250X-0.218750X-0.256250X0.218750X-0.256250X0*%
%TD*%
%TA.AperFunction,SMDPad,CuDef*%
%ADD26RoundRect,0.140000X0.170000X-0.140000X0.170000X0.140000X-0.170000X0.140000X-0.170000X-0.140000X0*%
%TD*%
%TA.AperFunction,SMDPad,CuDef*%
%ADD27RoundRect,0.225000X0.250000X-0.225000X0.250000X0.225000X-0.250000X0.225000X-0.250000X-0.225000X0*%
%TD*%
%TA.AperFunction,ComponentPad*%
%ADD28R,1.700000X1.700000*%
%TD*%
%TA.AperFunction,ComponentPad*%
%ADD29C,1.700000*%
%TD*%
%TA.AperFunction,SMDPad,CuDef*%
%ADD30RoundRect,0.150000X0.512500X0.150000X-0.512500X0.150000X-0.512500X-0.150000X0.512500X-0.150000X0*%
%TD*%
%TA.AperFunction,SMDPad,CuDef*%
%ADD31RoundRect,0.200000X0.200000X0.275000X-0.200000X0.275000X-0.200000X-0.275000X0.200000X-0.275000X0*%
%TD*%
%TA.AperFunction,SMDPad,CuDef*%
%ADD32RoundRect,0.062500X0.062500X-0.337500X0.062500X0.337500X-0.062500X0.337500X-0.062500X-0.337500X0*%
%TD*%
%TA.AperFunction,SMDPad,CuDef*%
%ADD33RoundRect,0.062500X0.337500X-0.062500X0.337500X0.062500X-0.337500X0.062500X-0.337500X-0.062500X0*%
%TD*%
%TA.AperFunction,HeatsinkPad*%
%ADD34R,3.700000X3.700000*%
%TD*%
%TA.AperFunction,SMDPad,CuDef*%
%ADD35RoundRect,0.062500X-0.117500X-0.062500X0.117500X-0.062500X0.117500X0.062500X-0.117500X0.062500X0*%
%TD*%
%TA.AperFunction,ViaPad*%
%ADD36C,0.600000*%
%TD*%
%TA.AperFunction,Conductor*%
%ADD37C,0.200000*%
%TD*%
%TA.AperFunction,Conductor*%
%ADD38C,0.500000*%
%TD*%
G04 APERTURE END LIST*
D10*
%TO.P,R9,1*%
%TO.N,Net-(P2-VCONN)*%
X124320000Y-64580000D03*
%TO.P,R9,2*%
%TO.N,GND*%
X124320000Y-65600000D03*
%TD*%
D11*
%TO.P,R12,1*%
%TO.N,Net-(D2-K)*%
X122320000Y-65620000D03*
%TO.P,R12,2*%
%TO.N,GND*%
X122320000Y-64600000D03*
%TD*%
D12*
%TO.P,Y1,1,1_1*%
%TO.N,Net-(C1-Pad2)*%
X117150000Y-86000000D03*
%TO.P,Y1,2,G_2*%
%TO.N,GND*%
X117150000Y-83800000D03*
%TO.P,Y1,3,3_3*%
%TO.N,Net-(U2-XTAL_N)*%
X115450000Y-83800000D03*
%TO.P,Y1,4,G_4*%
%TO.N,GND*%
X115450000Y-86000000D03*
%TD*%
D13*
%TO.P,R3,1*%
%TO.N,Net-(U2-SPICS0)*%
X129200000Y-70625000D03*
%TO.P,R3,2*%
%TO.N,VDD_SPI*%
X129200000Y-68975000D03*
%TD*%
D14*
%TO.P,C14,1*%
%TO.N,+3.3V*%
X117400000Y-69100000D03*
%TO.P,C14,2*%
%TO.N,GND*%
X117400000Y-70650000D03*
%TD*%
D15*
%TO.P,C20,1*%
%TO.N,+3.3V*%
X116050000Y-65600000D03*
%TO.P,C20,2*%
%TO.N,GND*%
X117600000Y-65600000D03*
%TD*%
D16*
%TO.P,SW2,1,1_1*%
%TO.N,GND*%
X128400000Y-74000000D03*
%TO.P,SW2,2,2_2*%
%TO.N,GPIO9*%
X124200000Y-74000000D03*
%TD*%
D10*
%TO.P,R8,1*%
%TO.N,Net-(P2-CC)*%
X123320000Y-64570000D03*
%TO.P,R8,2*%
%TO.N,GND*%
X123320000Y-65590000D03*
%TD*%
D17*
%TO.P,C6,1*%
%TO.N,+3.3V*%
X115220000Y-68800000D03*
%TO.P,C6,2*%
%TO.N,GND*%
X116180000Y-68800000D03*
%TD*%
D13*
%TO.P,R1,1*%
%TO.N,Net-(C1-Pad2)*%
X115500000Y-81650000D03*
%TO.P,R1,2*%
%TO.N,Net-(U2-XTAL_P)*%
X115500000Y-80000000D03*
%TD*%
D18*
%TO.P,C1,1*%
%TO.N,GND*%
X112600000Y-84800000D03*
%TO.P,C1,2*%
%TO.N,Net-(C1-Pad2)*%
X112600000Y-85760000D03*
%TD*%
D16*
%TO.P,SW1,1,1_1*%
%TO.N,GND*%
X127600000Y-78000000D03*
%TO.P,SW1,2,2_2*%
%TO.N,Net-(C16-Pad1)*%
X123400000Y-78000000D03*
%TD*%
D10*
%TO.P,R10,1*%
%TO.N,Net-(P2-D-)*%
X126320000Y-64590000D03*
%TO.P,R10,2*%
%TO.N,USB_D-*%
X126320000Y-65610000D03*
%TD*%
D14*
%TO.P,C19,1*%
%TO.N,+5V*%
X117800000Y-61600000D03*
%TO.P,C19,2*%
%TO.N,GND*%
X117800000Y-63150000D03*
%TD*%
%TO.P,C3,1*%
%TO.N,+3.3V*%
X125800000Y-69000000D03*
%TO.P,C3,2*%
%TO.N,GND*%
X125800000Y-70550000D03*
%TD*%
D17*
%TO.P,C13,1*%
%TO.N,+3.3V*%
X122120000Y-70800000D03*
%TO.P,C13,2*%
%TO.N,GND*%
X123080000Y-70800000D03*
%TD*%
D18*
%TO.P,C2,1*%
%TO.N,Net-(U2-XTAL_N)*%
X113600000Y-84820000D03*
%TO.P,C2,2*%
%TO.N,GND*%
X113600000Y-85780000D03*
%TD*%
D19*
%TO.P,P2,A1,GND_A1*%
%TO.N,GND*%
X120270000Y-61500000D03*
%TO.P,P2,A2,TX1+_A2*%
%TO.N,unconnected-(P2-TX1+-PadA2)*%
X120770000Y-61500000D03*
%TO.P,P2,A3,TX1-_A3*%
%TO.N,unconnected-(P2-TX1--PadA3)*%
X121270000Y-61500000D03*
%TO.P,P2,A4,VBUS_A4*%
%TO.N,+5V*%
X121770000Y-61500000D03*
%TO.P,P2,A5,CC_A5*%
%TO.N,Net-(P2-CC)*%
X122270000Y-61500000D03*
%TO.P,P2,A6,D+_A6*%
%TO.N,Net-(P2-D+)*%
X122770000Y-61500000D03*
%TO.P,P2,A7,D-_A7*%
%TO.N,Net-(P2-D-)*%
X123270000Y-61500000D03*
%TO.P,P2,A8,SBU1_A8*%
%TO.N,unconnected-(P2-SBU1-PadA8)*%
X123770000Y-61500000D03*
%TO.P,P2,A9,VBUS_A9*%
%TO.N,+5V*%
X124270000Y-61500000D03*
%TO.P,P2,A10,RX2-_A10*%
%TO.N,unconnected-(P2-RX2--PadA10)*%
X124770000Y-61500000D03*
%TO.P,P2,A11,RX2+_A11*%
%TO.N,unconnected-(P2-RX2+-PadA11)*%
X125270000Y-61500000D03*
%TO.P,P2,A12,GND_A12*%
%TO.N,GND*%
X125770000Y-61500000D03*
D20*
%TO.P,P2,SH,SHIELD_SH*%
X119600000Y-62340000D03*
%TD*%
D11*
%TO.P,R2,1*%
%TO.N,U0TXD_GPIO21*%
X111600000Y-85820000D03*
%TO.P,R2,2*%
%TO.N,Net-(U2-U0TXD)*%
X111600000Y-84800000D03*
%TD*%
D21*
%TO.P,L1,1,1_1*%
%TO.N,+3.3V*%
X115215000Y-69800000D03*
%TO.P,L1,2,2_2*%
%TO.N,Net-(C7-Pad1)*%
X116185000Y-69800000D03*
%TD*%
D22*
%TO.P,R6,1*%
%TO.N,CHIP_EN*%
X120000000Y-80000000D03*
%TO.P,R6,2*%
%TO.N,Net-(C16-Pad1)*%
X120000000Y-81650000D03*
%TD*%
%TO.P,R4,1*%
%TO.N,CHIP_EN*%
X118500000Y-80000000D03*
%TO.P,R4,2*%
%TO.N,+3.3V*%
X118500000Y-81650000D03*
%TD*%
D23*
%TO.P,AE1,1,A_1*%
%TO.N,Net-(AE1-A)*%
X127100000Y-86000000D03*
%TO.P,AE1,2*%
%TO.N,N/C*%
X132600000Y-86000000D03*
%TD*%
D24*
%TO.P,L2,1,1_1*%
%TO.N,Net-(C8-Pad1)*%
X121100000Y-85300000D03*
%TO.P,L2,2,2_2*%
%TO.N,Net-(U2-LNA_IN)*%
X121100000Y-84330000D03*
%TD*%
D17*
%TO.P,C7,1*%
%TO.N,Net-(C7-Pad1)*%
X115220000Y-70800000D03*
%TO.P,C7,2*%
%TO.N,GND*%
X116180000Y-70800000D03*
%TD*%
D25*
%TO.P,D2,1,K_1*%
%TO.N,Net-(D2-K)*%
X120700000Y-65600000D03*
%TO.P,D2,2,A_2*%
%TO.N,+3.3V*%
X119125000Y-65600000D03*
%TD*%
D10*
%TO.P,R11,1*%
%TO.N,Net-(P2-D+)*%
X125320000Y-64580000D03*
%TO.P,R11,2*%
%TO.N,USB_D+*%
X125320000Y-65600000D03*
%TD*%
D26*
%TO.P,C16,1*%
%TO.N,Net-(C16-Pad1)*%
X121500000Y-81500000D03*
%TO.P,C16,2*%
%TO.N,GND*%
X121500000Y-80540000D03*
%TD*%
D27*
%TO.P,C11,1*%
%TO.N,VDD_SPI*%
X129200000Y-67555000D03*
%TO.P,C11,2*%
%TO.N,GND*%
X129200000Y-66005000D03*
%TD*%
D14*
%TO.P,C4,1*%
%TO.N,+3.3V*%
X124300000Y-69000000D03*
%TO.P,C4,2*%
%TO.N,GND*%
X124300000Y-70550000D03*
%TD*%
D28*
%TO.P,J1,1,Pin_1_1*%
%TO.N,GPIO5*%
X110700000Y-63100000D03*
D29*
%TO.P,J1,2,Pin_2_2*%
%TO.N,GPIO6*%
X110700000Y-65640000D03*
%TO.P,J1,3,Pin_3_3*%
%TO.N,GPIO7*%
X110700000Y-68180000D03*
%TO.P,J1,4,Pin_4_4*%
%TO.N,GPIO9*%
X110700000Y-70720000D03*
%TO.P,J1,5,Pin_5_5*%
%TO.N,GPIO10*%
X110700000Y-73260000D03*
%TO.P,J1,6,Pin_6_6*%
%TO.N,U0RXD_GPIO20*%
X110700000Y-75800000D03*
%TO.P,J1,7,Pin_7_7*%
%TO.N,U0TXD_GPIO21*%
X110700000Y-78340000D03*
%TD*%
D30*
%TO.P,U1,1,V_{IN}_1*%
%TO.N,+5V*%
X115975000Y-63300000D03*
%TO.P,U1,2,V_{SS}_2*%
%TO.N,GND*%
X115975000Y-62350000D03*
%TO.P,U1,3,CE_3*%
%TO.N,+5V*%
X115975000Y-61400000D03*
%TO.P,U1,4,NC_4*%
%TO.N,unconnected-(U1-NC-Pad4)*%
X113700000Y-61400000D03*
%TO.P,U1,5,V_{OUT}_5*%
%TO.N,+3.3V*%
X113700000Y-63300000D03*
%TD*%
D14*
%TO.P,C5,1*%
%TO.N,+3.3V*%
X119100000Y-69050000D03*
%TO.P,C5,2*%
%TO.N,GND*%
X119100000Y-70600000D03*
%TD*%
D17*
%TO.P,C10,1*%
%TO.N,+3.3V*%
X122120000Y-68800000D03*
%TO.P,C10,2*%
%TO.N,GND*%
X123080000Y-68800000D03*
%TD*%
D27*
%TO.P,C9,1*%
%TO.N,Net-(U2-LNA_IN)*%
X122600000Y-85350000D03*
%TO.P,C9,2*%
%TO.N,GND*%
X122600000Y-83800000D03*
%TD*%
D13*
%TO.P,R5,1*%
%TO.N,+3.3V*%
X117000000Y-81650000D03*
%TO.P,R5,2*%
%TO.N,GPIO2*%
X117000000Y-80000000D03*
%TD*%
D31*
%TO.P,R13,1*%
%TO.N,Net-(AE1-A)*%
X125725000Y-86000000D03*
%TO.P,R13,2*%
%TO.N,Net-(C8-Pad1)*%
X124075000Y-86000000D03*
%TD*%
D17*
%TO.P,C12,1*%
%TO.N,+3.3V*%
X122120000Y-69800000D03*
%TO.P,C12,2*%
%TO.N,GND*%
X123080000Y-69800000D03*
%TD*%
D28*
%TO.P,J2,1,Pin_1_1*%
%TO.N,+5V*%
X131700000Y-63240000D03*
D29*
%TO.P,J2,2,Pin_2_2*%
%TO.N,GND*%
X131700000Y-65780000D03*
%TO.P,J2,3,Pin_3_3*%
%TO.N,VDD_SPI*%
X131700000Y-68320000D03*
%TO.P,J2,4,Pin_4_4*%
%TO.N,GPIO0*%
X131700000Y-70860000D03*
%TO.P,J2,5,Pin_5_5*%
%TO.N,GPIO1*%
X131700000Y-73400000D03*
%TO.P,J2,6,Pin_6_6*%
%TO.N,GPIO3*%
X131700000Y-75940000D03*
%TO.P,J2,7,Pin_7_7*%
%TO.N,GPIO4*%
X131700000Y-78480000D03*
%TD*%
D27*
%TO.P,C8,1*%
%TO.N,Net-(C8-Pad1)*%
X119600000Y-85350000D03*
%TO.P,C8,2*%
%TO.N,GND*%
X119600000Y-83800000D03*
%TD*%
D32*
%TO.P,U2,1,LNA_IN_1*%
%TO.N,Net-(U2-LNA_IN)*%
X116650001Y-77650000D03*
%TO.P,U2,2,VDD3P3_2*%
%TO.N,Net-(C7-Pad1)*%
X117150000Y-77650000D03*
%TO.P,U2,3,VDD3P3_3*%
X117650000Y-77650001D03*
%TO.P,U2,4,XTAL_32K_P_4*%
%TO.N,GPIO0*%
X118150000Y-77650000D03*
%TO.P,U2,5,XTAL_32K_N_5*%
%TO.N,GPIO1*%
X118650000Y-77650000D03*
%TO.P,U2,6,GPIO2_6*%
%TO.N,GPIO2*%
X119150000Y-77650001D03*
%TO.P,U2,7,CHIP_EN_7*%
%TO.N,CHIP_EN*%
X119650000Y-77650000D03*
%TO.P,U2,8,GPIO3_8*%
%TO.N,GPIO3*%
X120149999Y-77650000D03*
D33*
%TO.P,U2,9,MTMS_9*%
%TO.N,GPIO4*%
X120850000Y-76949999D03*
%TO.P,U2,10,MTDI_10*%
%TO.N,GPIO5*%
X120850000Y-76450000D03*
%TO.P,U2,11,VDD3P3_RTC_11*%
%TO.N,+3.3V*%
X120850001Y-75950000D03*
%TO.P,U2,12,MTCK_12*%
%TO.N,GPIO6*%
X120850000Y-75450000D03*
%TO.P,U2,13,MTDO_13*%
%TO.N,GPIO7*%
X120850000Y-74950000D03*
%TO.P,U2,14,GPIO8_14*%
%TO.N,GPIO8*%
X120850001Y-74450000D03*
%TO.P,U2,15,GPIO9_15*%
%TO.N,GPIO9*%
X120850000Y-73950000D03*
%TO.P,U2,16,GPIO10_16*%
%TO.N,GPIO10*%
X120850000Y-73450001D03*
D32*
%TO.P,U2,17,VDD3P3_CPU_17*%
%TO.N,+3.3V*%
X120149999Y-72750000D03*
%TO.P,U2,18,VDD_SPI_18*%
%TO.N,VDD_SPI*%
X119650000Y-72750000D03*
%TO.P,U2,19,SPIHD_19*%
%TO.N,unconnected-(U2-SPIHD-Pad19)*%
X119150000Y-72749999D03*
%TO.P,U2,20,SPIWP_20*%
%TO.N,unconnected-(U2-SPIWP-Pad20)*%
X118650000Y-72750000D03*
%TO.P,U2,21,SPICS0_21*%
%TO.N,Net-(U2-SPICS0)*%
X118150000Y-72750000D03*
%TO.P,U2,22,SPICLK_22*%
%TO.N,unconnected-(U2-SPICLK-Pad22)*%
X117650000Y-72749999D03*
%TO.P,U2,23,SPID_23*%
%TO.N,unconnected-(U2-SPID-Pad23)*%
X117150000Y-72750000D03*
%TO.P,U2,24,SPIQ_24*%
%TO.N,unconnected-(U2-SPIQ-Pad24)*%
X116650001Y-72750000D03*
D33*
%TO.P,U2,25,GPIO18_25*%
%TO.N,USB_D-*%
X115950000Y-73450001D03*
%TO.P,U2,26,GPIO19_26*%
%TO.N,USB_D+*%
X115950000Y-73950000D03*
%TO.P,U2,27,U0RXD_27*%
%TO.N,U0RXD_GPIO20*%
X115949999Y-74450000D03*
%TO.P,U2,28,U0TXD_28*%
%TO.N,Net-(U2-U0TXD)*%
X115950000Y-74950000D03*
%TO.P,U2,29,XTAL_N_29*%
%TO.N,Net-(U2-XTAL_N)*%
X115950000Y-75450000D03*
%TO.P,U2,30,XTAL_P_30*%
%TO.N,Net-(U2-XTAL_P)*%
X115949999Y-75950000D03*
%TO.P,U2,31,VDDA_31*%
%TO.N,+3.3V*%
X115950000Y-76450000D03*
%TO.P,U2,32,VDDA_32*%
X115950000Y-76949999D03*
D34*
%TO.P,U2,33,GND_33*%
%TO.N,GND*%
X118400000Y-75200000D03*
%TD*%
D22*
%TO.P,R7,1*%
%TO.N,+3.3V*%
X120900000Y-68975000D03*
%TO.P,R7,2*%
%TO.N,GPIO8*%
X120900000Y-70625000D03*
%TD*%
D35*
%TO.P,D1,1,A1_1*%
%TO.N,GND*%
X120120000Y-67200000D03*
%TO.P,D1,2,A2_2*%
%TO.N,+3.3V*%
X119280000Y-67200000D03*
%TD*%
D36*
%TO.N,Net-(P2-VCONN)*%
X122797000Y-62802290D03*
%TO.N,GND*%
X118400000Y-74299200D03*
X116100000Y-68000000D03*
X122000000Y-66400000D03*
X112900000Y-83200000D03*
X118800000Y-83600000D03*
X117100000Y-76700000D03*
X116500000Y-82804000D03*
X119300000Y-61400000D03*
X117493524Y-71932103D03*
X117000000Y-64500000D03*
X121500000Y-79900000D03*
X125100000Y-82700000D03*
%TO.N,Net-(U2-SPICS0)*%
X127900000Y-71500000D03*
X120128552Y-69875973D03*
%TO.N,+3.3V*%
X115000000Y-77900000D03*
X125700000Y-74800000D03*
X122100000Y-71296000D03*
X125500000Y-67900000D03*
X116200000Y-80900000D03*
X123450000Y-72650000D03*
X121100000Y-68127000D03*
%TO.N,GPIO9*%
X123783004Y-74543360D03*
%TO.N,USB_D-*%
X116072646Y-73072646D03*
X114254354Y-71354354D03*
X114999646Y-72099646D03*
X122700000Y-67600000D03*
%TO.N,Net-(C7-Pad1)*%
X113051646Y-79193646D03*
X112300000Y-75200000D03*
%TO.N,Net-(U2-LNA_IN)*%
X121500000Y-83300000D03*
X115749749Y-78474874D03*
%TO.N,USB_D+*%
X124100000Y-67000000D03*
X113454000Y-72100000D03*
X115222290Y-73923000D03*
X114400000Y-73100000D03*
%TO.N,GPIO5*%
X115897000Y-66956456D03*
X125116201Y-76573000D03*
X118227000Y-68127000D03*
%TO.N,GPIO6*%
X122574316Y-75353200D03*
%TO.N,GPIO7*%
X112927000Y-70407000D03*
X123148271Y-74906985D03*
%TO.N,GPIO10*%
X121800000Y-73423000D03*
X113477000Y-72877000D03*
%TO.N,GPIO0*%
X117130686Y-78910162D03*
%TO.N,GPIO1*%
X117850000Y-78804708D03*
%TO.N,GPIO3*%
X128500000Y-77600000D03*
X121377354Y-77622646D03*
%TO.N,GPIO4*%
X128500000Y-78500000D03*
X122400000Y-78500000D03*
%TO.N,GPIO8*%
X120700000Y-71296000D03*
X123300000Y-74000000D03*
%TD*%
%TO.N,Net-(P2-VCONN)*%
D37*
X122797000Y-63057000D02*
X124320000Y-64580000D01*
X122797000Y-62802290D02*
X122797000Y-63057000D01*
%TO.N,GND*%
D38*
X125800000Y-70550000D02*
X126050000Y-70550000D01*
X120203000Y-61737000D02*
X120203000Y-61500000D01*
X117000000Y-62350000D02*
X117800000Y-63150000D01*
X116180000Y-68080000D02*
X116100000Y-68000000D01*
X119600000Y-83800000D02*
X119000000Y-83800000D01*
X117493524Y-71693524D02*
X117400000Y-71600000D01*
X117493524Y-71932103D02*
X117493524Y-71693524D01*
X123080000Y-69800000D02*
X123080000Y-70800000D01*
X123080000Y-68800000D02*
X123080000Y-69800000D01*
X117150000Y-83454000D02*
X116500000Y-82804000D01*
X119000000Y-83800000D02*
X118800000Y-83600000D01*
X119600000Y-62340000D02*
X119600000Y-61600000D01*
X117150000Y-83800000D02*
X117150000Y-83454000D01*
X118400000Y-75200000D02*
X118400000Y-75400000D01*
X117250000Y-70800000D02*
X117400000Y-70650000D01*
X119700000Y-61500000D02*
X120203000Y-61500000D01*
D37*
X116100000Y-70880000D02*
X116180000Y-70800000D01*
D38*
X126050000Y-70550000D02*
X127000000Y-69600000D01*
X115450000Y-85500000D02*
X117150000Y-83800000D01*
X119300000Y-61400000D02*
X119400000Y-61500000D01*
X123080000Y-70800000D02*
X124050000Y-70800000D01*
X116180000Y-68800000D02*
X116180000Y-68080000D01*
X119600000Y-61600000D02*
X119700000Y-61500000D01*
X123320000Y-65590000D02*
X124310000Y-65590000D01*
X117800000Y-63150000D02*
X117375000Y-62725000D01*
X117400000Y-71600000D02*
X117400000Y-70650000D01*
D37*
X117600000Y-70850000D02*
X117400000Y-70650000D01*
D38*
X124050000Y-70800000D02*
X124300000Y-70550000D01*
X118400000Y-75400000D02*
X117200000Y-76600000D01*
X115450000Y-86000000D02*
X115450000Y-85500000D01*
X115975000Y-62350000D02*
X117000000Y-62350000D01*
X124310000Y-65590000D02*
X124320000Y-65600000D01*
X119400000Y-61500000D02*
X119700000Y-61500000D01*
%TO.N,Net-(D2-K)*%
D37*
X120720000Y-65620000D02*
X120700000Y-65600000D01*
X122320000Y-65620000D02*
X120720000Y-65620000D01*
%TO.N,Net-(C1-Pad2)*%
X117150000Y-86000000D02*
X116150000Y-87000000D01*
X113840000Y-87000000D02*
X112600000Y-85760000D01*
X117108506Y-82277000D02*
X116127000Y-82277000D01*
X117150000Y-86000000D02*
X117977000Y-85173000D01*
X116150000Y-87000000D02*
X113840000Y-87000000D01*
X117977000Y-83145494D02*
X117108506Y-82277000D01*
X116127000Y-82277000D02*
X115500000Y-81650000D01*
X117977000Y-85173000D02*
X117977000Y-83145494D01*
%TO.N,Net-(U2-XTAL_N)*%
X112104000Y-80454000D02*
X112104000Y-78896000D01*
X114620000Y-83800000D02*
X113600000Y-84820000D01*
X115450000Y-83800000D02*
X114620000Y-83800000D01*
X115450000Y-83800000D02*
X112104000Y-80454000D01*
X115550000Y-75450000D02*
X115950000Y-75450000D01*
X112104000Y-78896000D02*
X115550000Y-75450000D01*
%TO.N,Net-(U2-SPICS0)*%
X127900000Y-71500000D02*
X128250000Y-71500000D01*
X128250000Y-71500000D02*
X129200000Y-70550000D01*
X118150000Y-72438854D02*
X118465854Y-72123000D01*
X118150000Y-72750000D02*
X118150000Y-72438854D01*
X120125579Y-69873000D02*
X120128552Y-69875973D01*
X118777000Y-72123000D02*
X120125579Y-70774421D01*
X120125579Y-70774421D02*
X120125579Y-69873000D01*
X118465854Y-72123000D02*
X118777000Y-72123000D01*
%TO.N,VDD_SPI*%
D38*
X129780000Y-68320000D02*
X129200000Y-68900000D01*
X129200000Y-67555000D02*
X129200000Y-68900000D01*
X131700000Y-68320000D02*
X129780000Y-68320000D01*
X129200000Y-68900000D02*
X126127000Y-71973000D01*
X119903719Y-71973000D02*
X119647999Y-72228720D01*
X126127000Y-71973000D02*
X119903719Y-71973000D01*
%TO.N,+3.3V*%
X125793201Y-74893201D02*
X125793201Y-78606799D01*
X115950000Y-76949999D02*
X115950000Y-76452000D01*
X123450000Y-72650000D02*
X120450000Y-72650000D01*
X119400000Y-69000000D02*
X120900000Y-69000000D01*
X125700000Y-74800000D02*
X125793201Y-74893201D01*
X125800000Y-68200000D02*
X125500000Y-67900000D01*
X122120000Y-70800000D02*
X122120000Y-69800000D01*
X121973000Y-82427000D02*
X119277000Y-82427000D01*
X116200000Y-80900000D02*
X116250000Y-80900000D01*
X119240000Y-68840000D02*
X119400000Y-69000000D01*
X124300000Y-69000000D02*
X125800000Y-69000000D01*
X120900000Y-69000000D02*
X121920000Y-69000000D01*
X115215000Y-68805000D02*
X115220000Y-68800000D01*
X119277000Y-82427000D02*
X118500000Y-81650000D01*
X119240000Y-67100000D02*
X119240000Y-68840000D01*
X115950000Y-76949999D02*
X115000000Y-77900000D01*
X119125000Y-65600000D02*
X118273000Y-66452000D01*
X121100000Y-68127000D02*
X121100000Y-68775000D01*
X117000000Y-81650000D02*
X118500000Y-81650000D01*
X121100000Y-68775000D02*
X120900000Y-68975000D01*
X115220000Y-68800000D02*
X115220000Y-66430000D01*
X116902000Y-66452000D02*
X116050000Y-65600000D01*
X125800000Y-69000000D02*
X125800000Y-68200000D01*
X116250000Y-80900000D02*
X117000000Y-81650000D01*
X121920000Y-69000000D02*
X122120000Y-68800000D01*
X113700000Y-63300000D02*
X113750000Y-63300000D01*
X118273000Y-66452000D02*
X116902000Y-66452000D01*
X117400000Y-69000000D02*
X119400000Y-69000000D01*
X125793201Y-78606799D02*
X121973000Y-82427000D01*
X122120000Y-70800000D02*
X122120000Y-71276000D01*
X119240000Y-65715000D02*
X119125000Y-65600000D01*
X113750000Y-63300000D02*
X116050000Y-65600000D01*
X115220000Y-66430000D02*
X116050000Y-65600000D01*
X122120000Y-71276000D02*
X122100000Y-71296000D01*
X119240000Y-67100000D02*
X119240000Y-65715000D01*
D37*
X120850001Y-75950000D02*
X121373280Y-75950000D01*
D38*
X121496280Y-76073000D02*
X121373280Y-75950000D01*
X124427000Y-76073000D02*
X121496280Y-76073000D01*
X115215000Y-69800000D02*
X115215000Y-68805000D01*
X122120000Y-69800000D02*
X122120000Y-68800000D01*
X125700000Y-74800000D02*
X124427000Y-76073000D01*
%TO.N,GPIO9*%
D37*
X124200000Y-74000000D02*
X124200000Y-74126364D01*
X120850000Y-73950000D02*
X122187552Y-73950000D01*
X122664552Y-73473000D02*
X123673000Y-73473000D01*
X122187552Y-73950000D02*
X122664552Y-73473000D01*
X124200000Y-74126364D02*
X123783004Y-74543360D01*
X123673000Y-73473000D02*
X124200000Y-74000000D01*
%TO.N,Net-(P2-CC)*%
X122270000Y-63520000D02*
X122270000Y-61500000D01*
X123320000Y-64570000D02*
X122270000Y-63520000D01*
%TO.N,Net-(U2-XTAL_P)*%
X112431000Y-79069000D02*
X115550000Y-75950000D01*
X114200000Y-80800000D02*
X112912448Y-80800000D01*
X112912448Y-80800000D02*
X112431000Y-80318552D01*
X115000000Y-80000000D02*
X114200000Y-80800000D01*
X115550000Y-75950000D02*
X115949999Y-75950000D01*
X112431000Y-80318552D02*
X112431000Y-79069000D01*
X115500000Y-80000000D02*
X115000000Y-80000000D01*
%TO.N,Net-(C16-Pad1)*%
X121350000Y-81650000D02*
X121500000Y-81500000D01*
X123400000Y-79600000D02*
X123400000Y-78000000D01*
X120000000Y-81650000D02*
X121350000Y-81650000D01*
X121500000Y-81500000D02*
X123400000Y-79600000D01*
%TO.N,Net-(P2-D-)*%
X123270000Y-62000000D02*
X123270000Y-61500000D01*
X125813000Y-64083000D02*
X125353000Y-64083000D01*
X125353000Y-64083000D02*
X123270000Y-62000000D01*
X126320000Y-64590000D02*
X125813000Y-64083000D01*
%TO.N,USB_D-*%
X115950000Y-73450001D02*
X115950000Y-73195292D01*
X114999646Y-72099646D02*
X114254354Y-71354354D01*
X115950000Y-73195292D02*
X116072646Y-73072646D01*
X122700000Y-67600000D02*
X124330000Y-67600000D01*
X124330000Y-67600000D02*
X126320000Y-65610000D01*
%TO.N,+5V*%
D38*
X114935500Y-62722448D02*
X114935500Y-61777001D01*
X131700000Y-63240000D02*
X125339858Y-63240000D01*
X115975000Y-63300000D02*
X115513052Y-63300000D01*
X115513052Y-63300000D02*
X114935500Y-62722448D01*
X125339858Y-63240000D02*
X124270000Y-62170142D01*
X115975000Y-61400000D02*
X117600000Y-61400000D01*
X118873000Y-62973496D02*
X119191504Y-63292000D01*
X117800000Y-61600000D02*
X118873000Y-62673000D01*
X119191504Y-63292000D02*
X120648142Y-63292000D01*
X118873000Y-62673000D02*
X118873000Y-62973496D01*
X114935500Y-61777001D02*
X115312501Y-61400000D01*
X120648142Y-63292000D02*
X121770000Y-62170142D01*
X117600000Y-61400000D02*
X117800000Y-61600000D01*
X115312501Y-61400000D02*
X115975000Y-61400000D01*
%TO.N,Net-(P2-D+)*%
D37*
X125320000Y-64580000D02*
X122770000Y-62030000D01*
X122770000Y-62030000D02*
X122770000Y-61500000D01*
%TO.N,U0TXD_GPIO21*%
X110700000Y-84920000D02*
X111600000Y-85820000D01*
X110700000Y-78340000D02*
X110700000Y-84920000D01*
%TO.N,Net-(U2-U0TXD)*%
X111600000Y-84800000D02*
X111777000Y-84623000D01*
X111777000Y-84623000D02*
X111777000Y-78723000D01*
X115550000Y-74950000D02*
X115950000Y-74950000D01*
X111777000Y-78723000D02*
X115550000Y-74950000D01*
%TO.N,Net-(C7-Pad1)*%
X117150000Y-78071088D02*
X116027442Y-79193646D01*
X117650000Y-77650001D02*
X117150000Y-77650000D01*
X116180000Y-69805000D02*
X116185000Y-69800000D01*
X116185000Y-69835000D02*
X115220000Y-70800000D01*
X113045291Y-75200000D02*
X112300000Y-75200000D01*
X117150000Y-77650000D02*
X117150000Y-78071088D01*
X115220000Y-70800000D02*
X115526646Y-71106646D01*
X117150000Y-77650000D02*
X117150000Y-77900000D01*
X116185000Y-69800000D02*
X116185000Y-69835000D01*
X115526646Y-71106646D02*
X115526646Y-72718645D01*
X115526646Y-72718645D02*
X113045291Y-75200000D01*
X116027442Y-79193646D02*
X113051646Y-79193646D01*
%TO.N,CHIP_EN*%
X118500000Y-80000000D02*
X120000000Y-80000000D01*
X120000000Y-80000000D02*
X119650000Y-79650000D01*
X119650000Y-79650000D02*
X119650000Y-77650000D01*
%TO.N,Net-(AE1-A)*%
D38*
X127250000Y-86000000D02*
X125825000Y-86000000D01*
%TO.N,Net-(C8-Pad1)*%
X123998000Y-86177000D02*
X121977000Y-86177000D01*
X124175000Y-86000000D02*
X123998000Y-86177000D01*
X121977000Y-86177000D02*
X121100000Y-85300000D01*
X119600000Y-85350000D02*
X121050000Y-85350000D01*
X121050000Y-85350000D02*
X121100000Y-85300000D01*
%TO.N,Net-(U2-LNA_IN)*%
D37*
X116650001Y-77650000D02*
X116574623Y-77650000D01*
D38*
X116574623Y-77650000D02*
X115749749Y-78474874D01*
X121100000Y-84330000D02*
X121580000Y-84330000D01*
X121100000Y-83700000D02*
X121100000Y-84330000D01*
X121580000Y-84330000D02*
X122600000Y-85350000D01*
X121500000Y-83300000D02*
X121100000Y-83700000D01*
%TO.N,USB_D+*%
D37*
X115249290Y-73950000D02*
X115222290Y-73923000D01*
X115950000Y-73950000D02*
X115249290Y-73950000D01*
X124100000Y-67000000D02*
X124100000Y-66820000D01*
X114400000Y-73100000D02*
X114400000Y-73046000D01*
X124100000Y-66820000D02*
X125320000Y-65600000D01*
X114400000Y-73046000D02*
X113454000Y-72100000D01*
%TO.N,GPIO5*%
X125114202Y-76574999D02*
X125116201Y-76573000D01*
X118227000Y-68127000D02*
X117067544Y-68127000D01*
X117067544Y-68127000D02*
X115897000Y-66956456D01*
X120974999Y-76574999D02*
X125114202Y-76574999D01*
X120850000Y-76450000D02*
X120974999Y-76574999D01*
%TO.N,GPIO6*%
X120850000Y-75450000D02*
X122477516Y-75450000D01*
X122477516Y-75450000D02*
X122574316Y-75353200D01*
%TO.N,GPIO7*%
X120981265Y-74818735D02*
X123060021Y-74818735D01*
X112927000Y-70407000D02*
X110700000Y-68180000D01*
X123060021Y-74818735D02*
X123148271Y-74906985D01*
X120850000Y-74950000D02*
X120981265Y-74818735D01*
%TO.N,GPIO10*%
X120850000Y-73450001D02*
X121772999Y-73450001D01*
X121772999Y-73450001D02*
X121800000Y-73423000D01*
X113094000Y-73260000D02*
X110700000Y-73260000D01*
X113477000Y-72877000D02*
X113094000Y-73260000D01*
%TO.N,U0RXD_GPIO20*%
X110700000Y-75800000D02*
X113700000Y-75800000D01*
X115050000Y-74450000D02*
X115949999Y-74450000D01*
X113700000Y-75800000D02*
X115050000Y-74450000D01*
%TO.N,GPIO2*%
X117400000Y-80000000D02*
X117000000Y-80000000D01*
X119150000Y-77650001D02*
X119150000Y-78250000D01*
X119150000Y-78250000D02*
X117400000Y-80000000D01*
%TO.N,GPIO0*%
X117922998Y-78277001D02*
X117632416Y-78277001D01*
X118150000Y-78049999D02*
X117922998Y-78277001D01*
X117632416Y-78277001D02*
X117130686Y-78778731D01*
X117130686Y-78778731D02*
X117130686Y-78910162D01*
X118150000Y-77650000D02*
X118150000Y-78049999D01*
%TO.N,GPIO1*%
X118650000Y-77650000D02*
X118650000Y-78065576D01*
X117910868Y-78804708D02*
X117850000Y-78804708D01*
X118650000Y-78065576D02*
X117910868Y-78804708D01*
%TO.N,GPIO3*%
X128500000Y-77600000D02*
X128700000Y-77400000D01*
X128700000Y-77400000D02*
X130240000Y-77400000D01*
X121350000Y-77650000D02*
X121377354Y-77622646D01*
X120149999Y-77650000D02*
X121350000Y-77650000D01*
X130240000Y-77400000D02*
X131700000Y-75940000D01*
%TO.N,GPIO4*%
X121449999Y-76949999D02*
X120850000Y-76949999D01*
X122400000Y-77900000D02*
X121449999Y-76949999D01*
X122400000Y-78500000D02*
X122400000Y-77900000D01*
X128520000Y-78480000D02*
X128500000Y-78500000D01*
X131700000Y-78480000D02*
X128520000Y-78480000D01*
%TO.N,GPIO8*%
X120700000Y-71296000D02*
X120700000Y-70825000D01*
X123300000Y-74000000D02*
X122600000Y-74000000D01*
X122150000Y-74450000D02*
X120850001Y-74450000D01*
X120700000Y-70825000D02*
X120900000Y-70625000D01*
D38*
X120900000Y-70550000D02*
X120897027Y-70552973D01*
D37*
X122600000Y-74000000D02*
X122150000Y-74450000D01*
%TD*%
%TA.AperFunction,Conductor*%
%TO.N,GND*%
G36*
X133242539Y-60520185D02*
G01*
X133288294Y-60572989D01*
X133299500Y-60624500D01*
X133299500Y-84375500D01*
X133279815Y-84442539D01*
X133227011Y-84488294D01*
X133175500Y-84499500D01*
X131952129Y-84499500D01*
X131952123Y-84499501D01*
X131892516Y-84505908D01*
X131757671Y-84556202D01*
X131757664Y-84556206D01*
X131642455Y-84642452D01*
X131642452Y-84642455D01*
X131556206Y-84757664D01*
X131556202Y-84757671D01*
X131505908Y-84892517D01*
X131503625Y-84913757D01*
X131499501Y-84952123D01*
X131499500Y-84952135D01*
X131499500Y-87047870D01*
X131499501Y-87047876D01*
X131505909Y-87107485D01*
X131515115Y-87132168D01*
X131520099Y-87201860D01*
X131486613Y-87263182D01*
X131425289Y-87296667D01*
X131398933Y-87299500D01*
X128301067Y-87299500D01*
X128234028Y-87279815D01*
X128188273Y-87227011D01*
X128178329Y-87157853D01*
X128184885Y-87132168D01*
X128194090Y-87107485D01*
X128194091Y-87107483D01*
X128200500Y-87047873D01*
X128200499Y-84952128D01*
X128194091Y-84892517D01*
X128183897Y-84865186D01*
X128143797Y-84757671D01*
X128143793Y-84757664D01*
X128057547Y-84642455D01*
X128057544Y-84642452D01*
X127942335Y-84556206D01*
X127942328Y-84556202D01*
X127807482Y-84505908D01*
X127807483Y-84505908D01*
X127747883Y-84499501D01*
X127747881Y-84499500D01*
X127747873Y-84499500D01*
X127747864Y-84499500D01*
X126452129Y-84499500D01*
X126452123Y-84499501D01*
X126392516Y-84505908D01*
X126257671Y-84556202D01*
X126257664Y-84556206D01*
X126142455Y-84642452D01*
X126142452Y-84642455D01*
X126056206Y-84757664D01*
X126056202Y-84757671D01*
X126005908Y-84892516D01*
X126003625Y-84913757D01*
X125976886Y-84978308D01*
X125919493Y-85018155D01*
X125880336Y-85024500D01*
X125468384Y-85024500D01*
X125449145Y-85026248D01*
X125397807Y-85030913D01*
X125235393Y-85081522D01*
X125089811Y-85169530D01*
X125089810Y-85169531D01*
X124987681Y-85271661D01*
X124926358Y-85305146D01*
X124856666Y-85300162D01*
X124812319Y-85271661D01*
X124710188Y-85169530D01*
X124680834Y-85151785D01*
X124564606Y-85081522D01*
X124402196Y-85030914D01*
X124402194Y-85030913D01*
X124402192Y-85030913D01*
X124352778Y-85026423D01*
X124331616Y-85024500D01*
X123818384Y-85024500D01*
X123765449Y-85029310D01*
X123747803Y-85030914D01*
X123714813Y-85041194D01*
X123644953Y-85042344D01*
X123585561Y-85005542D01*
X123560219Y-84961812D01*
X123558720Y-84957288D01*
X123512003Y-84816303D01*
X123511999Y-84816297D01*
X123511998Y-84816294D01*
X123422970Y-84671959D01*
X123422967Y-84671955D01*
X123413339Y-84662327D01*
X123379854Y-84601004D01*
X123384838Y-84531312D01*
X123413345Y-84486959D01*
X123422573Y-84477731D01*
X123511542Y-84333492D01*
X123511547Y-84333481D01*
X123564855Y-84172606D01*
X123574999Y-84073322D01*
X123575000Y-84073309D01*
X123575000Y-84050000D01*
X122724000Y-84050000D01*
X122656961Y-84030315D01*
X122611206Y-83977511D01*
X122600000Y-83926000D01*
X122600000Y-83674000D01*
X122619685Y-83606961D01*
X122672489Y-83561206D01*
X122724000Y-83550000D01*
X123574999Y-83550000D01*
X123574999Y-83526692D01*
X123574998Y-83526677D01*
X123564855Y-83427392D01*
X123511547Y-83266518D01*
X123511542Y-83266507D01*
X123422575Y-83122271D01*
X123422572Y-83122267D01*
X123302732Y-83002427D01*
X123302728Y-83002424D01*
X123158492Y-82913457D01*
X123158481Y-82913452D01*
X122997607Y-82860144D01*
X122897560Y-82849922D01*
X122832869Y-82823525D01*
X122792718Y-82766344D01*
X122789856Y-82696533D01*
X122822480Y-82638887D01*
X126376153Y-79085215D01*
X126436798Y-78994452D01*
X126458285Y-78962294D01*
X126475082Y-78921741D01*
X126518921Y-78867339D01*
X126585215Y-78845273D01*
X126652915Y-78862551D01*
X126700526Y-78913688D01*
X126708028Y-78932303D01*
X126756981Y-79089396D01*
X126844927Y-79234877D01*
X126965122Y-79355072D01*
X127110604Y-79443019D01*
X127110603Y-79443019D01*
X127272894Y-79493590D01*
X127272893Y-79493590D01*
X127343408Y-79499998D01*
X127343426Y-79499999D01*
X127349999Y-79499998D01*
X127350000Y-79499998D01*
X127350000Y-76500000D01*
X127349999Y-76499999D01*
X127343436Y-76500000D01*
X127343417Y-76500001D01*
X127272897Y-76506408D01*
X127272892Y-76506409D01*
X127110603Y-76556981D01*
X126965122Y-76644927D01*
X126844927Y-76765122D01*
X126773818Y-76882751D01*
X126722290Y-76929939D01*
X126653430Y-76941777D01*
X126589102Y-76914508D01*
X126549728Y-76856789D01*
X126543701Y-76818601D01*
X126543701Y-74856582D01*
X127500001Y-74856582D01*
X127506408Y-74927102D01*
X127506409Y-74927107D01*
X127556981Y-75089396D01*
X127644927Y-75234877D01*
X127765122Y-75355072D01*
X127910604Y-75443019D01*
X127910603Y-75443019D01*
X128072894Y-75493590D01*
X128072893Y-75493590D01*
X128143408Y-75499998D01*
X128143426Y-75499999D01*
X128650000Y-75499999D01*
X128656581Y-75499999D01*
X128727102Y-75493591D01*
X128727107Y-75493590D01*
X128889396Y-75443018D01*
X129034877Y-75355072D01*
X129155072Y-75234877D01*
X129243019Y-75089395D01*
X129293590Y-74927106D01*
X129300000Y-74856572D01*
X129300000Y-74250000D01*
X128650000Y-74250000D01*
X128650000Y-75499999D01*
X128143426Y-75499999D01*
X128149999Y-75499998D01*
X128150000Y-75499998D01*
X128150000Y-74250000D01*
X127500001Y-74250000D01*
X127500001Y-74856582D01*
X126543701Y-74856582D01*
X126543701Y-74819280D01*
X126514860Y-74674293D01*
X126514859Y-74674292D01*
X126514859Y-74674288D01*
X126458285Y-74537706D01*
X126458283Y-74537703D01*
X126457673Y-74536230D01*
X126453836Y-74528115D01*
X126449019Y-74516485D01*
X126409394Y-74420821D01*
X126409392Y-74420819D01*
X126409392Y-74420817D01*
X126321789Y-74289711D01*
X126321786Y-74289707D01*
X126210292Y-74178213D01*
X126210288Y-74178210D01*
X126079185Y-74090609D01*
X126079172Y-74090602D01*
X125933501Y-74030264D01*
X125933489Y-74030261D01*
X125778845Y-73999500D01*
X125778842Y-73999500D01*
X125621158Y-73999500D01*
X125621155Y-73999500D01*
X125466510Y-74030261D01*
X125466498Y-74030264D01*
X125320827Y-74090602D01*
X125320816Y-74090608D01*
X125293390Y-74108934D01*
X125226712Y-74129811D01*
X125159332Y-74111326D01*
X125112643Y-74059346D01*
X125100500Y-74005831D01*
X125100500Y-73143386D01*
X125100500Y-73143384D01*
X125094086Y-73072804D01*
X125043478Y-72910394D01*
X125043475Y-72910389D01*
X125040400Y-72903555D01*
X125041918Y-72902871D01*
X125026401Y-72844093D01*
X125047920Y-72777619D01*
X125101961Y-72733333D01*
X125150354Y-72723500D01*
X126200920Y-72723500D01*
X126298462Y-72704096D01*
X126345913Y-72694658D01*
X126482495Y-72638084D01*
X126534225Y-72603519D01*
X126603876Y-72556981D01*
X126605412Y-72555955D01*
X126605412Y-72555954D01*
X126605416Y-72555952D01*
X127126966Y-72034400D01*
X127188284Y-72000918D01*
X127257976Y-72005902D01*
X127302324Y-72034403D01*
X127389707Y-72121786D01*
X127389711Y-72121789D01*
X127520814Y-72209390D01*
X127520827Y-72209397D01*
X127646450Y-72261431D01*
X127666503Y-72269737D01*
X127792447Y-72294789D01*
X127821153Y-72300499D01*
X127821156Y-72300500D01*
X127918948Y-72300500D01*
X127985987Y-72320185D01*
X128031742Y-72372989D01*
X128041686Y-72442147D01*
X128012661Y-72505703D01*
X127955839Y-72542885D01*
X127910603Y-72556981D01*
X127765122Y-72644927D01*
X127644927Y-72765122D01*
X127556980Y-72910604D01*
X127506409Y-73072893D01*
X127500000Y-73143427D01*
X127500000Y-73750000D01*
X128150000Y-73750000D01*
X128650000Y-73750000D01*
X129299999Y-73750000D01*
X129299999Y-73143417D01*
X129293591Y-73072897D01*
X129293590Y-73072892D01*
X129243018Y-72910603D01*
X129155072Y-72765122D01*
X129034877Y-72644927D01*
X128889395Y-72556980D01*
X128889396Y-72556980D01*
X128727105Y-72506409D01*
X128727106Y-72506409D01*
X128656572Y-72500000D01*
X128650000Y-72500000D01*
X128650000Y-73750000D01*
X128150000Y-73750000D01*
X128150000Y-72500176D01*
X128113533Y-72463885D01*
X128102802Y-72444345D01*
X128088208Y-72427503D01*
X128086312Y-72414319D01*
X128079900Y-72402643D01*
X128081436Y-72380407D01*
X128078264Y-72358345D01*
X128083797Y-72346227D01*
X128084716Y-72332939D01*
X128098029Y-72315064D01*
X128107289Y-72294789D01*
X128119909Y-72285688D01*
X128126452Y-72276905D01*
X128138225Y-72272481D01*
X128153550Y-72261431D01*
X128279172Y-72209397D01*
X128279172Y-72209396D01*
X128279179Y-72209394D01*
X128410289Y-72121789D01*
X128448496Y-72083580D01*
X128474296Y-72063806D01*
X128481514Y-72059649D01*
X128481785Y-72059577D01*
X128536112Y-72028211D01*
X128618716Y-71980520D01*
X128730520Y-71868716D01*
X128730520Y-71868714D01*
X128740721Y-71858514D01*
X128740724Y-71858509D01*
X129037417Y-71561816D01*
X129098739Y-71528334D01*
X129125097Y-71525500D01*
X129531613Y-71525500D01*
X129531616Y-71525500D01*
X129602196Y-71519086D01*
X129764606Y-71468478D01*
X129910185Y-71380472D01*
X130030472Y-71260185D01*
X130118478Y-71114606D01*
X130129368Y-71079656D01*
X130168103Y-71021511D01*
X130232128Y-70993535D01*
X130301113Y-71004615D01*
X130353157Y-71051233D01*
X130370226Y-71097148D01*
X130382753Y-71176240D01*
X130382915Y-71176738D01*
X130445983Y-71370842D01*
X130448444Y-71378414D01*
X130544951Y-71567820D01*
X130669890Y-71739786D01*
X130820213Y-71890109D01*
X130992182Y-72015050D01*
X131000946Y-72019516D01*
X131051742Y-72067491D01*
X131068536Y-72135312D01*
X131045998Y-72201447D01*
X131000946Y-72240484D01*
X130992182Y-72244949D01*
X130820213Y-72369890D01*
X130669890Y-72520213D01*
X130544951Y-72692179D01*
X130448444Y-72881585D01*
X130382753Y-73083760D01*
X130349500Y-73293713D01*
X130349500Y-73506286D01*
X130379927Y-73698399D01*
X130382754Y-73716243D01*
X130445983Y-73910842D01*
X130448444Y-73918414D01*
X130544951Y-74107820D01*
X130669890Y-74279786D01*
X130820213Y-74430109D01*
X130992182Y-74555050D01*
X131000946Y-74559516D01*
X131051742Y-74607491D01*
X131068536Y-74675312D01*
X131045998Y-74741447D01*
X131000946Y-74780484D01*
X130992182Y-74784949D01*
X130820213Y-74909890D01*
X130669890Y-75060213D01*
X130544951Y-75232179D01*
X130448444Y-75421585D01*
X130382753Y-75623760D01*
X130349500Y-75833713D01*
X130349500Y-76046286D01*
X130382754Y-76256244D01*
X130382754Y-76256247D01*
X130396491Y-76298523D01*
X130398486Y-76368364D01*
X130366241Y-76424522D01*
X130027584Y-76763181D01*
X129966261Y-76796666D01*
X129939903Y-76799500D01*
X128779062Y-76799500D01*
X128779058Y-76799499D01*
X128620943Y-76799499D01*
X128615014Y-76801087D01*
X128600862Y-76801218D01*
X128594692Y-76799467D01*
X128585000Y-76799150D01*
X128584907Y-76800097D01*
X128578845Y-76799500D01*
X128578842Y-76799500D01*
X128440811Y-76799500D01*
X128373772Y-76779815D01*
X128353129Y-76763181D01*
X128234875Y-76644926D01*
X128089395Y-76556980D01*
X128089396Y-76556980D01*
X127927105Y-76506409D01*
X127927106Y-76506409D01*
X127856572Y-76500000D01*
X127850000Y-76500000D01*
X127850000Y-77094316D01*
X127830315Y-77161355D01*
X127829103Y-77163206D01*
X127790608Y-77220817D01*
X127790602Y-77220828D01*
X127730264Y-77366498D01*
X127730261Y-77366510D01*
X127699500Y-77521153D01*
X127699500Y-77678846D01*
X127730261Y-77833489D01*
X127730264Y-77833501D01*
X127790602Y-77979171D01*
X127790604Y-77979175D01*
X127790606Y-77979179D01*
X127790609Y-77979183D01*
X127790611Y-77979187D01*
X127791899Y-77981115D01*
X127792263Y-77982278D01*
X127793479Y-77984553D01*
X127793047Y-77984783D01*
X127812773Y-78047794D01*
X127794285Y-78115173D01*
X127791899Y-78118885D01*
X127790605Y-78120820D01*
X127790604Y-78120822D01*
X127730264Y-78266498D01*
X127730261Y-78266510D01*
X127699500Y-78421153D01*
X127699500Y-78578846D01*
X127730261Y-78733489D01*
X127730264Y-78733501D01*
X127790602Y-78879172D01*
X127790606Y-78879179D01*
X127829102Y-78936793D01*
X127849980Y-79003468D01*
X127850000Y-79005683D01*
X127850000Y-79499999D01*
X127856581Y-79499999D01*
X127927102Y-79493591D01*
X127927107Y-79493590D01*
X128089396Y-79443018D01*
X128234874Y-79355074D01*
X128264431Y-79325516D01*
X128325753Y-79292030D01*
X128376304Y-79291578D01*
X128421158Y-79300500D01*
X128578844Y-79300500D01*
X128578845Y-79300499D01*
X128733497Y-79269737D01*
X128879179Y-79209394D01*
X129010289Y-79121789D01*
X129010292Y-79121786D01*
X129015260Y-79116819D01*
X129076583Y-79083334D01*
X129102941Y-79080500D01*
X130414281Y-79080500D01*
X130481320Y-79100185D01*
X130524765Y-79148205D01*
X130544947Y-79187814D01*
X130544948Y-79187815D01*
X130669890Y-79359786D01*
X130820213Y-79510109D01*
X130992179Y-79635048D01*
X130992181Y-79635049D01*
X130992184Y-79635051D01*
X131181588Y-79731557D01*
X131383757Y-79797246D01*
X131593713Y-79830500D01*
X131593714Y-79830500D01*
X131806286Y-79830500D01*
X131806287Y-79830500D01*
X132016243Y-79797246D01*
X132218412Y-79731557D01*
X132407816Y-79635051D01*
X132525250Y-79549731D01*
X132579786Y-79510109D01*
X132579788Y-79510106D01*
X132579792Y-79510104D01*
X132730104Y-79359792D01*
X132730106Y-79359788D01*
X132730109Y-79359786D01*
X132855048Y-79187820D01*
X132855047Y-79187820D01*
X132855051Y-79187816D01*
X132951557Y-78998412D01*
X133017246Y-78796243D01*
X133050500Y-78586287D01*
X133050500Y-78373713D01*
X133017246Y-78163757D01*
X132951557Y-77961588D01*
X132855051Y-77772184D01*
X132855049Y-77772181D01*
X132855048Y-77772179D01*
X132730109Y-77600213D01*
X132579786Y-77449890D01*
X132407820Y-77324951D01*
X132407115Y-77324591D01*
X132399054Y-77320485D01*
X132348259Y-77272512D01*
X132331463Y-77204692D01*
X132353999Y-77138556D01*
X132399054Y-77099515D01*
X132407816Y-77095051D01*
X132528333Y-77007491D01*
X132579786Y-76970109D01*
X132579788Y-76970106D01*
X132579792Y-76970104D01*
X132730104Y-76819792D01*
X132730106Y-76819788D01*
X132730109Y-76819786D01*
X132855048Y-76647820D01*
X132855047Y-76647820D01*
X132855051Y-76647816D01*
X132951557Y-76458412D01*
X133017246Y-76256243D01*
X133050500Y-76046287D01*
X133050500Y-75833713D01*
X133017246Y-75623757D01*
X132951557Y-75421588D01*
X132855051Y-75232184D01*
X132855049Y-75232181D01*
X132855048Y-75232179D01*
X132730109Y-75060213D01*
X132579786Y-74909890D01*
X132407820Y-74784951D01*
X132407115Y-74784591D01*
X132399054Y-74780485D01*
X132348259Y-74732512D01*
X132331463Y-74664692D01*
X132353999Y-74598556D01*
X132399054Y-74559515D01*
X132407816Y-74555051D01*
X132442296Y-74530000D01*
X132579786Y-74430109D01*
X132579788Y-74430106D01*
X132579792Y-74430104D01*
X132730104Y-74279792D01*
X132730106Y-74279788D01*
X132730109Y-74279786D01*
X132855048Y-74107820D01*
X132855047Y-74107820D01*
X132855051Y-74107816D01*
X132951557Y-73918412D01*
X133017246Y-73716243D01*
X133050500Y-73506287D01*
X133050500Y-73293713D01*
X133017246Y-73083757D01*
X132951557Y-72881588D01*
X132855051Y-72692184D01*
X132855049Y-72692181D01*
X132855048Y-72692179D01*
X132730109Y-72520213D01*
X132579786Y-72369890D01*
X132407820Y-72244951D01*
X132407115Y-72244591D01*
X132399054Y-72240485D01*
X132348259Y-72192512D01*
X132331463Y-72124692D01*
X132353999Y-72058556D01*
X132399054Y-72019515D01*
X132407816Y-72015051D01*
X132528333Y-71927491D01*
X132579786Y-71890109D01*
X132579788Y-71890106D01*
X132579792Y-71890104D01*
X132730104Y-71739792D01*
X132730106Y-71739788D01*
X132730109Y-71739786D01*
X132855048Y-71567820D01*
X132855047Y-71567820D01*
X132855051Y-71567816D01*
X132951557Y-71378412D01*
X133017246Y-71176243D01*
X133050500Y-70966287D01*
X133050500Y-70753713D01*
X133017246Y-70543757D01*
X132951557Y-70341588D01*
X132855051Y-70152184D01*
X132855049Y-70152181D01*
X132855048Y-70152179D01*
X132730109Y-69980213D01*
X132579786Y-69829890D01*
X132407820Y-69704951D01*
X132407115Y-69704591D01*
X132399054Y-69700485D01*
X132348259Y-69652512D01*
X132331463Y-69584692D01*
X132353999Y-69518556D01*
X132399054Y-69479515D01*
X132407816Y-69475051D01*
X132467681Y-69431557D01*
X132579786Y-69350109D01*
X132579788Y-69350106D01*
X132579792Y-69350104D01*
X132730104Y-69199792D01*
X132730106Y-69199788D01*
X132730109Y-69199786D01*
X132855048Y-69027820D01*
X132855047Y-69027820D01*
X132855051Y-69027816D01*
X132951557Y-68838412D01*
X133017246Y-68636243D01*
X133050500Y-68426287D01*
X133050500Y-68213713D01*
X133017246Y-68003757D01*
X132951557Y-67801588D01*
X132855051Y-67612184D01*
X132855049Y-67612181D01*
X132855048Y-67612179D01*
X132730109Y-67440213D01*
X132579786Y-67289890D01*
X132407817Y-67164949D01*
X132398504Y-67160204D01*
X132347707Y-67112230D01*
X132330912Y-67044409D01*
X132353449Y-66978274D01*
X132398507Y-66939232D01*
X132407555Y-66934622D01*
X132461716Y-66895270D01*
X132461717Y-66895270D01*
X131829408Y-66262962D01*
X131892993Y-66245925D01*
X132007007Y-66180099D01*
X132100099Y-66087007D01*
X132165925Y-65972993D01*
X132182962Y-65909409D01*
X132815270Y-66541717D01*
X132815270Y-66541716D01*
X132854622Y-66487554D01*
X132951095Y-66298217D01*
X133016757Y-66096130D01*
X133016757Y-66096127D01*
X133050000Y-65886246D01*
X133050000Y-65673753D01*
X133016757Y-65463872D01*
X133016757Y-65463869D01*
X132951095Y-65261782D01*
X132854624Y-65072449D01*
X132815270Y-65018282D01*
X132815269Y-65018282D01*
X132182962Y-65650590D01*
X132165925Y-65587007D01*
X132100099Y-65472993D01*
X132007007Y-65379901D01*
X131892993Y-65314075D01*
X131829409Y-65297037D01*
X132499627Y-64626818D01*
X132560950Y-64593333D01*
X132587307Y-64590499D01*
X132597872Y-64590499D01*
X132657483Y-64584091D01*
X132792331Y-64533796D01*
X132907546Y-64447546D01*
X132993796Y-64332331D01*
X133044091Y-64197483D01*
X133050500Y-64137873D01*
X133050499Y-62342128D01*
X133044091Y-62282517D01*
X133040537Y-62272989D01*
X132993797Y-62147671D01*
X132993793Y-62147664D01*
X132907547Y-62032455D01*
X132907544Y-62032452D01*
X132792335Y-61946206D01*
X132792328Y-61946202D01*
X132657482Y-61895908D01*
X132657483Y-61895908D01*
X132597883Y-61889501D01*
X132597881Y-61889500D01*
X132597873Y-61889500D01*
X132597864Y-61889500D01*
X130802129Y-61889500D01*
X130802123Y-61889501D01*
X130742516Y-61895908D01*
X130607671Y-61946202D01*
X130607664Y-61946206D01*
X130492455Y-62032452D01*
X130492452Y-62032455D01*
X130406206Y-62147664D01*
X130406202Y-62147671D01*
X130355908Y-62282517D01*
X130352147Y-62317505D01*
X130349501Y-62342123D01*
X130349500Y-62342135D01*
X130349500Y-62365500D01*
X130329815Y-62432539D01*
X130277011Y-62478294D01*
X130225500Y-62489500D01*
X126417925Y-62489500D01*
X126350886Y-62469815D01*
X126305131Y-62417011D01*
X126295187Y-62347853D01*
X126319549Y-62290013D01*
X126384732Y-62205064D01*
X126444684Y-62060326D01*
X126444684Y-62060325D01*
X126459999Y-61944004D01*
X126460000Y-61943990D01*
X126460000Y-61690000D01*
X126084500Y-61690000D01*
X126017461Y-61670315D01*
X125971706Y-61617511D01*
X125960500Y-61566001D01*
X125960499Y-61434001D01*
X125980183Y-61366961D01*
X126032987Y-61321206D01*
X126084499Y-61310000D01*
X126459999Y-61310000D01*
X126459999Y-61056001D01*
X126444686Y-60939681D01*
X126444684Y-60939673D01*
X126384731Y-60794933D01*
X126311876Y-60699986D01*
X126286682Y-60634817D01*
X126300720Y-60566372D01*
X126349534Y-60516383D01*
X126410252Y-60500500D01*
X133175500Y-60500500D01*
X133242539Y-60520185D01*
G37*
%TD.AperFunction*%
%TA.AperFunction,Conductor*%
G36*
X114483039Y-85549685D02*
G01*
X114528794Y-85602489D01*
X114540000Y-85654000D01*
X114540000Y-85750000D01*
X115326000Y-85750000D01*
X115393039Y-85769685D01*
X115438794Y-85822489D01*
X115450000Y-85874000D01*
X115450000Y-86126000D01*
X115430315Y-86193039D01*
X115377511Y-86238794D01*
X115326000Y-86250000D01*
X114344000Y-86250000D01*
X114276961Y-86230315D01*
X114231206Y-86177511D01*
X114220000Y-86126000D01*
X114220000Y-86030000D01*
X113770597Y-86030000D01*
X113703558Y-86010315D01*
X113682916Y-85993681D01*
X113636319Y-85947084D01*
X113602834Y-85885761D01*
X113600000Y-85859403D01*
X113600000Y-85724500D01*
X113619685Y-85657461D01*
X113672489Y-85611706D01*
X113724000Y-85600500D01*
X113834682Y-85600500D01*
X113834690Y-85600500D01*
X113870993Y-85597643D01*
X113870995Y-85597642D01*
X113870997Y-85597642D01*
X114026389Y-85552496D01*
X114026389Y-85552495D01*
X114026395Y-85552494D01*
X114035233Y-85547267D01*
X114098352Y-85530000D01*
X114416000Y-85530000D01*
X114483039Y-85549685D01*
G37*
%TD.AperFunction*%
%TA.AperFunction,Conductor*%
G36*
X112582703Y-81782384D02*
G01*
X112589181Y-81788416D01*
X114098083Y-83297318D01*
X114131568Y-83358641D01*
X114126584Y-83428333D01*
X114098083Y-83472680D01*
X113567584Y-84003181D01*
X113506261Y-84036666D01*
X113479903Y-84039500D01*
X113365302Y-84039500D01*
X113329008Y-84042356D01*
X113329002Y-84042357D01*
X113173609Y-84087504D01*
X113166449Y-84090603D01*
X113165174Y-84087658D01*
X113111711Y-84101175D01*
X113053298Y-84083996D01*
X113026199Y-84067970D01*
X113026190Y-84067966D01*
X112870918Y-84022855D01*
X112870912Y-84022854D01*
X112850000Y-84021209D01*
X112850000Y-84369053D01*
X112843427Y-84391436D01*
X112839682Y-84416114D01*
X112792357Y-84579002D01*
X112792356Y-84579008D01*
X112789500Y-84615302D01*
X112789500Y-84676000D01*
X112769815Y-84743039D01*
X112717011Y-84788794D01*
X112665500Y-84800000D01*
X112544499Y-84800000D01*
X112477460Y-84780315D01*
X112431705Y-84727511D01*
X112420499Y-84676000D01*
X112420499Y-84600830D01*
X112420498Y-84600807D01*
X112418783Y-84579008D01*
X112417665Y-84564796D01*
X112382424Y-84443495D01*
X112378469Y-84415711D01*
X112377567Y-84412974D01*
X112377897Y-84411693D01*
X112377500Y-84408900D01*
X112377500Y-81876097D01*
X112397185Y-81809058D01*
X112449989Y-81763303D01*
X112519147Y-81753359D01*
X112582703Y-81782384D01*
G37*
%TD.AperFunction*%
%TA.AperFunction,Conductor*%
G36*
X120905566Y-78270185D02*
G01*
X120907418Y-78271398D01*
X120998175Y-78332040D01*
X120998177Y-78332041D01*
X120998181Y-78332043D01*
X121143852Y-78392381D01*
X121143857Y-78392383D01*
X121288493Y-78421153D01*
X121298507Y-78423145D01*
X121298510Y-78423146D01*
X121298512Y-78423146D01*
X121456198Y-78423146D01*
X121462261Y-78422549D01*
X121462515Y-78425136D01*
X121520821Y-78430314D01*
X121576027Y-78473139D01*
X121599318Y-78539012D01*
X121599500Y-78545735D01*
X121599500Y-78578846D01*
X121630261Y-78733489D01*
X121630264Y-78733501D01*
X121690602Y-78879172D01*
X121690609Y-78879185D01*
X121778210Y-79010288D01*
X121778213Y-79010292D01*
X121889707Y-79121786D01*
X121889711Y-79121789D01*
X122020814Y-79209390D01*
X122020827Y-79209397D01*
X122166498Y-79269735D01*
X122166503Y-79269737D01*
X122321153Y-79300499D01*
X122321156Y-79300500D01*
X122321158Y-79300500D01*
X122478844Y-79300500D01*
X122541568Y-79288023D01*
X122611160Y-79294250D01*
X122666337Y-79337112D01*
X122689582Y-79403002D01*
X122673515Y-79470999D01*
X122653441Y-79497321D01*
X122250611Y-79900151D01*
X122189288Y-79933636D01*
X122119596Y-79928652D01*
X122075249Y-79900151D01*
X122065383Y-79890285D01*
X122065374Y-79890278D01*
X121926195Y-79807968D01*
X121926190Y-79807966D01*
X121770918Y-79762855D01*
X121770912Y-79762854D01*
X121750000Y-79761209D01*
X121750000Y-80349401D01*
X121730315Y-80416440D01*
X121713682Y-80437082D01*
X121647084Y-80503681D01*
X121585761Y-80537166D01*
X121559402Y-80540000D01*
X121374000Y-80540000D01*
X121306961Y-80520315D01*
X121261206Y-80467511D01*
X121250000Y-80416000D01*
X121250000Y-79761210D01*
X121249999Y-79761209D01*
X121229087Y-79762854D01*
X121128215Y-79792160D01*
X121058345Y-79791960D01*
X120999676Y-79754017D01*
X120970833Y-79690378D01*
X120970136Y-79684363D01*
X120969086Y-79672804D01*
X120918478Y-79510394D01*
X120830472Y-79364815D01*
X120830470Y-79364813D01*
X120830469Y-79364811D01*
X120710188Y-79244530D01*
X120652071Y-79209397D01*
X120564606Y-79156522D01*
X120402196Y-79105914D01*
X120375277Y-79103467D01*
X120363276Y-79102377D01*
X120298294Y-79076705D01*
X120257506Y-79019977D01*
X120250500Y-78978886D01*
X120250500Y-78659100D01*
X120270185Y-78592061D01*
X120322989Y-78546306D01*
X120358323Y-78536160D01*
X120359471Y-78536009D01*
X120496428Y-78479279D01*
X120614035Y-78389036D01*
X120683111Y-78299013D01*
X120739539Y-78257811D01*
X120781487Y-78250500D01*
X120838527Y-78250500D01*
X120905566Y-78270185D01*
G37*
%TD.AperFunction*%
%TA.AperFunction,Conductor*%
G36*
X119420541Y-73631519D02*
G01*
X119421850Y-73631377D01*
X119425614Y-73632481D01*
X119432683Y-73633822D01*
X119440220Y-73635881D01*
X119440528Y-73636009D01*
X119550599Y-73650500D01*
X119749400Y-73650499D01*
X119819623Y-73641254D01*
X119888654Y-73652019D01*
X119940910Y-73698399D01*
X119959796Y-73765668D01*
X119958744Y-73780377D01*
X119949500Y-73850596D01*
X119949500Y-74049403D01*
X119963989Y-74159470D01*
X119966093Y-74167319D01*
X119962809Y-74168198D01*
X119968587Y-74222043D01*
X119965512Y-74232517D01*
X119966096Y-74232674D01*
X119963992Y-74240525D01*
X119949501Y-74350598D01*
X119949501Y-74549403D01*
X119963990Y-74659468D01*
X119966095Y-74667322D01*
X119962803Y-74668203D01*
X119968595Y-74721998D01*
X119965508Y-74732516D01*
X119966095Y-74732674D01*
X119963991Y-74740525D01*
X119949500Y-74850598D01*
X119949500Y-75049403D01*
X119963989Y-75159468D01*
X119966094Y-75167322D01*
X119962814Y-75168200D01*
X119968581Y-75222073D01*
X119965517Y-75232522D01*
X119966095Y-75232677D01*
X119963990Y-75240529D01*
X119949500Y-75350598D01*
X119949500Y-75549403D01*
X119963989Y-75659470D01*
X119966093Y-75667319D01*
X119962809Y-75668198D01*
X119968587Y-75722043D01*
X119965512Y-75732517D01*
X119966096Y-75732674D01*
X119963992Y-75740525D01*
X119949501Y-75850598D01*
X119949501Y-76049403D01*
X119963990Y-76159468D01*
X119966095Y-76167322D01*
X119962803Y-76168203D01*
X119968595Y-76221998D01*
X119965508Y-76232516D01*
X119966095Y-76232674D01*
X119963991Y-76240525D01*
X119949500Y-76350598D01*
X119949500Y-76549403D01*
X119958744Y-76619622D01*
X119947977Y-76688657D01*
X119901596Y-76740912D01*
X119834327Y-76759796D01*
X119819620Y-76758744D01*
X119749402Y-76749500D01*
X119550597Y-76749500D01*
X119440531Y-76763989D01*
X119432679Y-76766094D01*
X119431799Y-76762809D01*
X119377957Y-76768587D01*
X119367484Y-76765509D01*
X119367327Y-76766096D01*
X119359475Y-76763992D01*
X119249401Y-76749501D01*
X119050596Y-76749501D01*
X118940529Y-76763990D01*
X118932681Y-76766094D01*
X118931802Y-76762814D01*
X118877928Y-76768582D01*
X118867483Y-76765510D01*
X118867327Y-76766095D01*
X118859475Y-76763991D01*
X118749401Y-76749500D01*
X118550596Y-76749500D01*
X118440531Y-76763989D01*
X118432678Y-76766094D01*
X118431802Y-76762824D01*
X118377853Y-76768567D01*
X118367477Y-76765518D01*
X118367323Y-76766095D01*
X118359470Y-76763990D01*
X118249401Y-76749500D01*
X118050597Y-76749500D01*
X117940531Y-76763989D01*
X117932679Y-76766094D01*
X117931799Y-76762809D01*
X117877957Y-76768587D01*
X117867484Y-76765509D01*
X117867327Y-76766096D01*
X117859475Y-76763992D01*
X117749401Y-76749501D01*
X117550596Y-76749501D01*
X117440529Y-76763990D01*
X117432681Y-76766094D01*
X117431802Y-76762814D01*
X117377928Y-76768582D01*
X117367483Y-76765510D01*
X117367327Y-76766095D01*
X117359475Y-76763991D01*
X117249401Y-76749500D01*
X117050604Y-76749500D01*
X116980377Y-76758745D01*
X116911341Y-76747977D01*
X116859087Y-76701596D01*
X116840203Y-76634327D01*
X116841255Y-76619622D01*
X116850500Y-76549401D01*
X116850499Y-76350600D01*
X116850499Y-76350598D01*
X116850499Y-76350596D01*
X116836011Y-76240536D01*
X116833906Y-76232682D01*
X116837211Y-76231796D01*
X116831385Y-76178104D01*
X116834504Y-76167486D01*
X116833904Y-76167326D01*
X116836007Y-76159475D01*
X116836007Y-76159474D01*
X116836008Y-76159472D01*
X116850499Y-76049401D01*
X116850498Y-75850600D01*
X116850498Y-75850598D01*
X116850498Y-75850596D01*
X116836010Y-75740536D01*
X116833905Y-75732682D01*
X116837207Y-75731796D01*
X116831391Y-75678076D01*
X116834504Y-75667486D01*
X116833905Y-75667326D01*
X116836008Y-75659475D01*
X116836008Y-75659474D01*
X116836009Y-75659472D01*
X116850500Y-75549401D01*
X116850499Y-75350600D01*
X116836009Y-75240528D01*
X116836008Y-75240525D01*
X116833905Y-75232674D01*
X116837207Y-75231789D01*
X116831392Y-75178075D01*
X116834501Y-75167485D01*
X116833905Y-75167326D01*
X116836008Y-75159475D01*
X116836008Y-75159474D01*
X116836009Y-75159472D01*
X116850500Y-75049401D01*
X116850499Y-74850600D01*
X116850499Y-74850598D01*
X116850499Y-74850596D01*
X116836011Y-74740536D01*
X116833906Y-74732682D01*
X116837211Y-74731796D01*
X116831385Y-74678104D01*
X116834504Y-74667486D01*
X116833904Y-74667326D01*
X116836007Y-74659475D01*
X116836007Y-74659474D01*
X116836008Y-74659472D01*
X116850499Y-74549401D01*
X116850498Y-74350600D01*
X116850498Y-74350598D01*
X116850498Y-74350596D01*
X116836010Y-74240536D01*
X116833905Y-74232682D01*
X116837207Y-74231796D01*
X116831391Y-74178076D01*
X116834504Y-74167486D01*
X116833905Y-74167326D01*
X116836008Y-74159475D01*
X116836008Y-74159474D01*
X116836009Y-74159472D01*
X116850500Y-74049401D01*
X116850499Y-73850600D01*
X116841254Y-73780375D01*
X116852019Y-73711344D01*
X116898399Y-73659088D01*
X116965668Y-73640203D01*
X116980371Y-73641254D01*
X117050599Y-73650500D01*
X117249400Y-73650499D01*
X117249403Y-73650499D01*
X117359463Y-73636011D01*
X117359468Y-73636009D01*
X117359472Y-73636009D01*
X117359474Y-73636007D01*
X117367318Y-73633906D01*
X117368203Y-73637211D01*
X117421896Y-73631385D01*
X117432516Y-73634502D01*
X117432677Y-73633904D01*
X117440526Y-73636007D01*
X117440528Y-73636008D01*
X117550599Y-73650499D01*
X117749400Y-73650498D01*
X117749403Y-73650498D01*
X117859468Y-73636009D01*
X117867321Y-73633905D01*
X117868208Y-73637218D01*
X117921850Y-73631377D01*
X117932515Y-73634506D01*
X117932677Y-73633905D01*
X117940526Y-73636008D01*
X117940528Y-73636009D01*
X118050599Y-73650500D01*
X118249400Y-73650499D01*
X118249401Y-73650499D01*
X118266087Y-73648302D01*
X118359472Y-73636009D01*
X118359475Y-73636007D01*
X118367326Y-73633905D01*
X118368210Y-73637207D01*
X118421925Y-73631392D01*
X118432514Y-73634501D01*
X118432674Y-73633905D01*
X118440524Y-73636008D01*
X118440526Y-73636008D01*
X118440528Y-73636009D01*
X118550599Y-73650500D01*
X118749400Y-73650499D01*
X118749403Y-73650499D01*
X118859463Y-73636011D01*
X118859468Y-73636009D01*
X118859472Y-73636009D01*
X118859474Y-73636007D01*
X118867318Y-73633906D01*
X118868203Y-73637211D01*
X118921896Y-73631385D01*
X118932516Y-73634502D01*
X118932677Y-73633904D01*
X118940526Y-73636007D01*
X118940528Y-73636008D01*
X119050599Y-73650499D01*
X119249400Y-73650498D01*
X119249403Y-73650498D01*
X119359468Y-73636009D01*
X119367321Y-73633905D01*
X119368208Y-73637218D01*
X119383037Y-73635603D01*
X119413377Y-73630161D01*
X119420541Y-73631519D01*
G37*
%TD.AperFunction*%
%TA.AperFunction,Conductor*%
G36*
X119043039Y-70369685D02*
G01*
X119088794Y-70422489D01*
X119100000Y-70474000D01*
X119100000Y-70726000D01*
X119080315Y-70793039D01*
X119027511Y-70838794D01*
X118976000Y-70850000D01*
X118505000Y-70850000D01*
X118491319Y-70863681D01*
X118429996Y-70897166D01*
X118403638Y-70900000D01*
X117650000Y-70900000D01*
X117650000Y-71599999D01*
X117698308Y-71599999D01*
X117698322Y-71599998D01*
X117797605Y-71589856D01*
X117827641Y-71579903D01*
X117897469Y-71577501D01*
X117957512Y-71613232D01*
X117988705Y-71675752D01*
X117981145Y-71745212D01*
X117954327Y-71785290D01*
X117916988Y-71822629D01*
X117855665Y-71856114D01*
X117813123Y-71857887D01*
X117749403Y-71849499D01*
X117550597Y-71849499D01*
X117440531Y-71863988D01*
X117432679Y-71866093D01*
X117431799Y-71862808D01*
X117377957Y-71868586D01*
X117367484Y-71865508D01*
X117367327Y-71866095D01*
X117359475Y-71863991D01*
X117249401Y-71849500D01*
X117050596Y-71849500D01*
X116940531Y-71863989D01*
X116932678Y-71866094D01*
X116931959Y-71863413D01*
X116922942Y-71868068D01*
X116892640Y-71866993D01*
X116877853Y-71868567D01*
X116872782Y-71866288D01*
X116867324Y-71866095D01*
X116859471Y-71863990D01*
X116749402Y-71849500D01*
X116550597Y-71849500D01*
X116440537Y-71863988D01*
X116440525Y-71863992D01*
X116298598Y-71922780D01*
X116229129Y-71930249D01*
X116166650Y-71898974D01*
X116130998Y-71838885D01*
X116127146Y-71808219D01*
X116127146Y-71196784D01*
X116127146Y-71185706D01*
X116127147Y-71185703D01*
X116127147Y-71050000D01*
X116430000Y-71050000D01*
X116430000Y-71604503D01*
X116576193Y-71562032D01*
X116668267Y-71507579D01*
X116688880Y-71502348D01*
X116707767Y-71492582D01*
X116722066Y-71493929D01*
X116735991Y-71490396D01*
X116759108Y-71497418D01*
X116777329Y-71499135D01*
X116791346Y-71507211D01*
X116796486Y-71508773D01*
X116841510Y-71536544D01*
X117002393Y-71589855D01*
X117101683Y-71599999D01*
X117149999Y-71599998D01*
X117150000Y-71599998D01*
X117150000Y-70900000D01*
X117090000Y-70900000D01*
X117090000Y-70926000D01*
X117070315Y-70993039D01*
X117017511Y-71038794D01*
X116966000Y-71050000D01*
X116430000Y-71050000D01*
X116127147Y-71050000D01*
X116127147Y-71027589D01*
X116107989Y-70956091D01*
X116109652Y-70886243D01*
X116148815Y-70828381D01*
X116153719Y-70826280D01*
X116180000Y-70800000D01*
X116180000Y-70744500D01*
X116199685Y-70677461D01*
X116252489Y-70631706D01*
X116304000Y-70620500D01*
X116397932Y-70620500D01*
X116397940Y-70620500D01*
X116434675Y-70617609D01*
X116434677Y-70617608D01*
X116434679Y-70617608D01*
X116591892Y-70571933D01*
X116591893Y-70571932D01*
X116591897Y-70571931D01*
X116732820Y-70488590D01*
X116785090Y-70436320D01*
X116846413Y-70402834D01*
X116872772Y-70400000D01*
X117995000Y-70400000D01*
X118008681Y-70386319D01*
X118070004Y-70352834D01*
X118096362Y-70350000D01*
X118976000Y-70350000D01*
X119043039Y-70369685D01*
G37*
%TD.AperFunction*%
%TA.AperFunction,Conductor*%
G36*
X123267539Y-68819685D02*
G01*
X123313294Y-68872489D01*
X123324500Y-68924000D01*
X123324500Y-69270530D01*
X123324500Y-69270540D01*
X123324501Y-69273344D01*
X123329399Y-69321299D01*
X123329427Y-69321583D01*
X123329400Y-69321721D01*
X123330000Y-69333492D01*
X123330000Y-70676000D01*
X123310315Y-70743039D01*
X123257511Y-70788794D01*
X123206000Y-70800000D01*
X123024500Y-70800000D01*
X122957461Y-70780315D01*
X122911706Y-70727511D01*
X122900500Y-70676000D01*
X122900500Y-70565317D01*
X122900499Y-70565302D01*
X122899549Y-70553234D01*
X122897643Y-70529007D01*
X122875423Y-70452528D01*
X122870500Y-70417934D01*
X122870500Y-70182065D01*
X122875424Y-70147469D01*
X122878932Y-70135394D01*
X122897643Y-70070993D01*
X122900500Y-70034690D01*
X122900500Y-69565310D01*
X122897643Y-69529007D01*
X122875423Y-69452528D01*
X122870500Y-69417934D01*
X122870500Y-69182065D01*
X122875424Y-69147469D01*
X122881237Y-69127461D01*
X122897643Y-69070993D01*
X122900500Y-69034690D01*
X122900500Y-68924000D01*
X122920185Y-68856961D01*
X122972989Y-68811206D01*
X123024500Y-68800000D01*
X123200500Y-68800000D01*
X123267539Y-68819685D01*
G37*
%TD.AperFunction*%
%TA.AperFunction,Conductor*%
G36*
X125743039Y-70319685D02*
G01*
X125788794Y-70372489D01*
X125800000Y-70424000D01*
X125800000Y-70676000D01*
X125780315Y-70743039D01*
X125727511Y-70788794D01*
X125676000Y-70800000D01*
X124424000Y-70800000D01*
X124356961Y-70780315D01*
X124311206Y-70727511D01*
X124300000Y-70676000D01*
X124300000Y-70424000D01*
X124319685Y-70356961D01*
X124372489Y-70311206D01*
X124424000Y-70300000D01*
X125676000Y-70300000D01*
X125743039Y-70319685D01*
G37*
%TD.AperFunction*%
%TA.AperFunction,Conductor*%
G36*
X130292540Y-64010185D02*
G01*
X130338295Y-64062989D01*
X130349501Y-64114500D01*
X130349501Y-64137876D01*
X130355908Y-64197483D01*
X130406202Y-64332328D01*
X130406206Y-64332335D01*
X130492452Y-64447544D01*
X130492455Y-64447547D01*
X130607664Y-64533793D01*
X130607671Y-64533797D01*
X130651503Y-64550145D01*
X130742517Y-64584091D01*
X130802127Y-64590500D01*
X130812685Y-64590499D01*
X130879723Y-64610179D01*
X130900372Y-64626818D01*
X131570591Y-65297037D01*
X131507007Y-65314075D01*
X131392993Y-65379901D01*
X131299901Y-65472993D01*
X131234075Y-65587007D01*
X131217037Y-65650591D01*
X130584728Y-65018282D01*
X130584727Y-65018282D01*
X130545380Y-65072439D01*
X130448904Y-65261782D01*
X130383242Y-65463869D01*
X130383242Y-65463871D01*
X130374331Y-65520131D01*
X130344401Y-65583266D01*
X130285089Y-65620196D01*
X130215226Y-65619198D01*
X130156994Y-65580587D01*
X130134152Y-65539735D01*
X130111548Y-65471520D01*
X130111542Y-65471507D01*
X130022575Y-65327271D01*
X130022572Y-65327267D01*
X129902732Y-65207427D01*
X129902728Y-65207424D01*
X129758492Y-65118457D01*
X129758481Y-65118452D01*
X129597606Y-65065144D01*
X129498322Y-65055000D01*
X129450000Y-65055000D01*
X129450000Y-65881000D01*
X129430315Y-65948039D01*
X129377511Y-65993794D01*
X129326000Y-66005000D01*
X129200000Y-66005000D01*
X129200000Y-66131000D01*
X129180315Y-66198039D01*
X129127511Y-66243794D01*
X129076000Y-66255000D01*
X128225001Y-66255000D01*
X128225001Y-66278322D01*
X128235144Y-66377607D01*
X128288452Y-66538481D01*
X128288457Y-66538492D01*
X128377424Y-66682728D01*
X128377427Y-66682732D01*
X128386660Y-66691965D01*
X128420145Y-66753288D01*
X128415161Y-66822980D01*
X128386663Y-66867324D01*
X128377033Y-66876953D01*
X128377029Y-66876959D01*
X128288001Y-67021294D01*
X128287996Y-67021305D01*
X128234651Y-67182290D01*
X128224500Y-67281647D01*
X128224500Y-67828337D01*
X128224501Y-67828355D01*
X128234650Y-67927707D01*
X128234651Y-67927710D01*
X128287996Y-68088694D01*
X128288001Y-68088705D01*
X128366087Y-68215301D01*
X128384528Y-68282693D01*
X128366666Y-68344547D01*
X128281523Y-68485391D01*
X128230913Y-68647807D01*
X128224500Y-68718386D01*
X128224500Y-68762769D01*
X128204815Y-68829808D01*
X128188181Y-68850450D01*
X126930997Y-70107634D01*
X126869674Y-70141119D01*
X126799982Y-70136135D01*
X126744049Y-70094263D01*
X126725610Y-70058957D01*
X126711547Y-70016518D01*
X126711542Y-70016507D01*
X126622575Y-69872271D01*
X126622572Y-69872267D01*
X126613339Y-69863034D01*
X126579854Y-69801711D01*
X126584838Y-69732019D01*
X126613343Y-69687668D01*
X126622968Y-69678044D01*
X126712003Y-69533697D01*
X126765349Y-69372708D01*
X126775500Y-69273345D01*
X126775499Y-68726656D01*
X126765349Y-68627292D01*
X126712003Y-68466303D01*
X126711999Y-68466297D01*
X126711998Y-68466294D01*
X126622970Y-68321959D01*
X126622967Y-68321955D01*
X126586819Y-68285807D01*
X126553334Y-68224484D01*
X126550500Y-68198126D01*
X126550500Y-68126079D01*
X126521659Y-67981092D01*
X126521658Y-67981091D01*
X126521658Y-67981087D01*
X126499547Y-67927707D01*
X126465085Y-67844507D01*
X126465084Y-67844505D01*
X126412017Y-67765084D01*
X126397484Y-67743334D01*
X126382954Y-67721586D01*
X126246071Y-67584703D01*
X126219191Y-67544475D01*
X126209394Y-67520821D01*
X126188921Y-67490181D01*
X126121789Y-67389710D01*
X126010292Y-67278213D01*
X126010288Y-67278210D01*
X125879185Y-67190609D01*
X125879176Y-67190604D01*
X125845180Y-67176523D01*
X125790777Y-67132682D01*
X125768712Y-67066388D01*
X125785991Y-66998689D01*
X125804948Y-66974285D01*
X126362416Y-66416818D01*
X126423739Y-66383333D01*
X126450097Y-66380499D01*
X126569168Y-66380499D01*
X126569180Y-66380499D01*
X126605204Y-66377665D01*
X126759393Y-66332869D01*
X126897598Y-66251135D01*
X127011135Y-66137598D01*
X127092869Y-65999393D01*
X127137665Y-65845204D01*
X127140500Y-65809181D01*
X127140500Y-65731677D01*
X128225000Y-65731677D01*
X128225000Y-65755000D01*
X128950000Y-65755000D01*
X128950000Y-65055000D01*
X128949999Y-65054999D01*
X128901693Y-65055000D01*
X128901675Y-65055001D01*
X128802392Y-65065144D01*
X128641518Y-65118452D01*
X128641507Y-65118457D01*
X128497271Y-65207424D01*
X128497267Y-65207427D01*
X128377427Y-65327267D01*
X128377424Y-65327271D01*
X128288457Y-65471507D01*
X128288452Y-65471518D01*
X128235144Y-65632393D01*
X128225000Y-65731677D01*
X127140500Y-65731677D01*
X127140499Y-65601206D01*
X127140499Y-65410830D01*
X127140498Y-65410808D01*
X127138452Y-65384796D01*
X127137665Y-65374796D01*
X127092869Y-65220607D01*
X127058869Y-65163117D01*
X127041688Y-65095398D01*
X127058869Y-65036882D01*
X127092869Y-64979393D01*
X127093023Y-64978865D01*
X127137664Y-64825208D01*
X127137665Y-64825202D01*
X127138063Y-64820146D01*
X127140500Y-64789181D01*
X127140499Y-64390820D01*
X127137665Y-64354796D01*
X127092869Y-64200607D01*
X127079274Y-64177620D01*
X127062092Y-64109897D01*
X127084252Y-64043634D01*
X127138718Y-63999871D01*
X127186007Y-63990500D01*
X130225501Y-63990500D01*
X130292540Y-64010185D01*
G37*
%TD.AperFunction*%
%TA.AperFunction,Conductor*%
G36*
X124025359Y-65344923D02*
G01*
X124034796Y-65347665D01*
X124070819Y-65350500D01*
X124196001Y-65350499D01*
X124263039Y-65370183D01*
X124308794Y-65422987D01*
X124318738Y-65492145D01*
X124289714Y-65555701D01*
X124254792Y-65578144D01*
X124289465Y-65617913D01*
X124318684Y-65681380D01*
X124308951Y-65750569D01*
X124283681Y-65787082D01*
X124257082Y-65813681D01*
X124195759Y-65847166D01*
X124169401Y-65850000D01*
X123570000Y-65850000D01*
X123570000Y-66346559D01*
X123550315Y-66413598D01*
X123533681Y-66434240D01*
X123478213Y-66489707D01*
X123478210Y-66489711D01*
X123390609Y-66620814D01*
X123390602Y-66620827D01*
X123330264Y-66766498D01*
X123330261Y-66766508D01*
X123315221Y-66842120D01*
X123282836Y-66904031D01*
X123222120Y-66938605D01*
X123152350Y-66934864D01*
X123124714Y-66921030D01*
X123079190Y-66890612D01*
X123079172Y-66890602D01*
X122933501Y-66830264D01*
X122933489Y-66830261D01*
X122778845Y-66799500D01*
X122778842Y-66799500D01*
X122621158Y-66799500D01*
X122621155Y-66799500D01*
X122466510Y-66830261D01*
X122466498Y-66830264D01*
X122320827Y-66890602D01*
X122320814Y-66890609D01*
X122189711Y-66978210D01*
X122189707Y-66978213D01*
X122078213Y-67089707D01*
X122078210Y-67089711D01*
X121990609Y-67220814D01*
X121990602Y-67220827D01*
X121930264Y-67366498D01*
X121930261Y-67366508D01*
X121899420Y-67521554D01*
X121867035Y-67583465D01*
X121806319Y-67618039D01*
X121736549Y-67614298D01*
X121690122Y-67585043D01*
X121610292Y-67505213D01*
X121610288Y-67505210D01*
X121479185Y-67417609D01*
X121479172Y-67417602D01*
X121333501Y-67357264D01*
X121333489Y-67357261D01*
X121178845Y-67326500D01*
X121178842Y-67326500D01*
X121021158Y-67326500D01*
X121021153Y-67326500D01*
X120901311Y-67350338D01*
X120831719Y-67344111D01*
X120804541Y-67325000D01*
X120245000Y-67325000D01*
X120245000Y-67829531D01*
X120273774Y-67854270D01*
X120311775Y-67912901D01*
X120314551Y-67972487D01*
X120299500Y-68048153D01*
X120299500Y-68083284D01*
X120279815Y-68150323D01*
X120239652Y-68189399D01*
X120189815Y-68219528D01*
X120189813Y-68219529D01*
X120183398Y-68223408D01*
X120182536Y-68221983D01*
X120126041Y-68244471D01*
X120057460Y-68231111D01*
X120006989Y-68182795D01*
X119990500Y-68121009D01*
X119990500Y-67880862D01*
X119995000Y-67865536D01*
X119995000Y-67324000D01*
X120014685Y-67256961D01*
X120067489Y-67211206D01*
X120119000Y-67200000D01*
X120120000Y-67200000D01*
X120120000Y-67199000D01*
X120139685Y-67131961D01*
X120192489Y-67086206D01*
X120244000Y-67075000D01*
X120796626Y-67075000D01*
X120785521Y-66990659D01*
X120785521Y-66990657D01*
X120728843Y-66853824D01*
X120668349Y-66774987D01*
X120643155Y-66709818D01*
X120657193Y-66641373D01*
X120706007Y-66591383D01*
X120766725Y-66575500D01*
X120966669Y-66575500D01*
X120966674Y-66575500D01*
X121065185Y-66565436D01*
X121224787Y-66512549D01*
X121367891Y-66424281D01*
X121486781Y-66305391D01*
X121502811Y-66279401D01*
X121554758Y-66232679D01*
X121608349Y-66220500D01*
X121650404Y-66220500D01*
X121717443Y-66240185D01*
X121738085Y-66256819D01*
X121742396Y-66261130D01*
X121742400Y-66261133D01*
X121742402Y-66261135D01*
X121880607Y-66342869D01*
X121921268Y-66354682D01*
X122034791Y-66387664D01*
X122034794Y-66387664D01*
X122034796Y-66387665D01*
X122070819Y-66390500D01*
X122569180Y-66390499D01*
X122605204Y-66387665D01*
X122759393Y-66342869D01*
X122787744Y-66326102D01*
X122855465Y-66308919D01*
X122885459Y-66313758D01*
X123034871Y-66357166D01*
X123034877Y-66357167D01*
X123070000Y-66359931D01*
X123070000Y-66081984D01*
X123087269Y-66018862D01*
X123092869Y-66009393D01*
X123125851Y-65895865D01*
X123137664Y-65855208D01*
X123137665Y-65855202D01*
X123140500Y-65819181D01*
X123140500Y-65714000D01*
X123160185Y-65646961D01*
X123212989Y-65601206D01*
X123264500Y-65590000D01*
X123320000Y-65590000D01*
X123320000Y-65464499D01*
X123339685Y-65397460D01*
X123392489Y-65351705D01*
X123444000Y-65340499D01*
X123569168Y-65340499D01*
X123569180Y-65340499D01*
X123569193Y-65340498D01*
X123570668Y-65340382D01*
X123580393Y-65340000D01*
X123990766Y-65340000D01*
X124025359Y-65344923D01*
G37*
%TD.AperFunction*%
%TA.AperFunction,Conductor*%
G36*
X131234075Y-65972993D02*
G01*
X131299901Y-66087007D01*
X131392993Y-66180099D01*
X131507007Y-66245925D01*
X131570590Y-66262962D01*
X130938282Y-66895269D01*
X130938282Y-66895270D01*
X130992452Y-66934626D01*
X130992451Y-66934626D01*
X131001495Y-66939234D01*
X131052292Y-66987208D01*
X131069087Y-67055029D01*
X131046550Y-67121164D01*
X131001499Y-67160202D01*
X130992182Y-67164949D01*
X130820213Y-67289890D01*
X130669892Y-67440211D01*
X130613097Y-67518385D01*
X130557767Y-67561051D01*
X130512779Y-67569500D01*
X130299500Y-67569500D01*
X130232461Y-67549815D01*
X130186706Y-67497011D01*
X130175500Y-67445501D01*
X130175499Y-67281663D01*
X130175498Y-67281644D01*
X130165349Y-67182292D01*
X130165348Y-67182289D01*
X130134671Y-67089711D01*
X130112003Y-67021303D01*
X130111999Y-67021297D01*
X130111998Y-67021294D01*
X130022970Y-66876959D01*
X130022967Y-66876955D01*
X130013339Y-66867327D01*
X129979854Y-66806004D01*
X129984838Y-66736312D01*
X130013345Y-66691959D01*
X130022573Y-66682731D01*
X130111542Y-66538492D01*
X130111547Y-66538481D01*
X130164855Y-66377606D01*
X130174999Y-66278322D01*
X130174999Y-66238133D01*
X130194682Y-66171093D01*
X130247485Y-66125337D01*
X130316643Y-66115392D01*
X130380200Y-66144415D01*
X130416930Y-66199811D01*
X130448905Y-66298218D01*
X130545375Y-66487550D01*
X130584728Y-66541716D01*
X131217037Y-65909408D01*
X131234075Y-65972993D01*
G37*
%TD.AperFunction*%
%TA.AperFunction,Conductor*%
G36*
X117993039Y-63169685D02*
G01*
X118038794Y-63222489D01*
X118050000Y-63274000D01*
X118050000Y-64099999D01*
X118098308Y-64099999D01*
X118098322Y-64099998D01*
X118197607Y-64089855D01*
X118358481Y-64036547D01*
X118358492Y-64036542D01*
X118502727Y-63947576D01*
X118558563Y-63891740D01*
X118619886Y-63858255D01*
X118689578Y-63863239D01*
X118715128Y-63876314D01*
X118725057Y-63882948D01*
X118725060Y-63882952D01*
X118725061Y-63882951D01*
X118836002Y-63957080D01*
X118836015Y-63957087D01*
X118892583Y-63980518D01*
X118892584Y-63980518D01*
X118972592Y-64013659D01*
X119088745Y-64036763D01*
X119107972Y-64040587D01*
X119117585Y-64042500D01*
X119117586Y-64042500D01*
X120722062Y-64042500D01*
X120819604Y-64023096D01*
X120867055Y-64013658D01*
X121003637Y-63957084D01*
X121081461Y-63905084D01*
X121126558Y-63874952D01*
X121461199Y-63540310D01*
X121522520Y-63506827D01*
X121592211Y-63511811D01*
X121648145Y-63553682D01*
X121667062Y-63590463D01*
X121669499Y-63598137D01*
X121669499Y-63599057D01*
X121710423Y-63751785D01*
X121721180Y-63770416D01*
X121727905Y-63782064D01*
X121727906Y-63782067D01*
X121750609Y-63821389D01*
X121767082Y-63889289D01*
X121744229Y-63955316D01*
X121730904Y-63971070D01*
X121629265Y-64072709D01*
X121629261Y-64072714D01*
X121547595Y-64210805D01*
X121507156Y-64350000D01*
X122196000Y-64350000D01*
X122263039Y-64369685D01*
X122308794Y-64422489D01*
X122320000Y-64474000D01*
X122320000Y-64725500D01*
X122300315Y-64792539D01*
X122247511Y-64838294D01*
X122196455Y-64849499D01*
X122195986Y-64849500D01*
X122070820Y-64849501D01*
X122064706Y-64849981D01*
X122060062Y-64849999D01*
X122060010Y-64849984D01*
X122059607Y-64850000D01*
X121493534Y-64850000D01*
X121426495Y-64830315D01*
X121405853Y-64813681D01*
X121367891Y-64775719D01*
X121367887Y-64775716D01*
X121224795Y-64687455D01*
X121224789Y-64687452D01*
X121224787Y-64687451D01*
X121065185Y-64634564D01*
X121065183Y-64634563D01*
X120966681Y-64624500D01*
X120966674Y-64624500D01*
X120433326Y-64624500D01*
X120433318Y-64624500D01*
X120334816Y-64634563D01*
X120334815Y-64634564D01*
X120298273Y-64646673D01*
X120175215Y-64687450D01*
X120175204Y-64687455D01*
X120032112Y-64775716D01*
X120032108Y-64775719D01*
X120000181Y-64807647D01*
X119938858Y-64841132D01*
X119869166Y-64836148D01*
X119824819Y-64807647D01*
X119792891Y-64775719D01*
X119792887Y-64775716D01*
X119649795Y-64687455D01*
X119649789Y-64687452D01*
X119649787Y-64687451D01*
X119490185Y-64634564D01*
X119490183Y-64634563D01*
X119391681Y-64624500D01*
X119391674Y-64624500D01*
X118858326Y-64624500D01*
X118858318Y-64624500D01*
X118759816Y-64634563D01*
X118759815Y-64634564D01*
X118723273Y-64646673D01*
X118600215Y-64687450D01*
X118600204Y-64687455D01*
X118457112Y-64775716D01*
X118454242Y-64778586D01*
X118451791Y-64779923D01*
X118451446Y-64780197D01*
X118451399Y-64780137D01*
X118392916Y-64812067D01*
X118323225Y-64807078D01*
X118283618Y-64781622D01*
X118283395Y-64781905D01*
X118280514Y-64779627D01*
X118278885Y-64778580D01*
X118277732Y-64777427D01*
X118277728Y-64777424D01*
X118133492Y-64688457D01*
X118133481Y-64688452D01*
X117972606Y-64635144D01*
X117873322Y-64625000D01*
X117850000Y-64625000D01*
X117850000Y-65476000D01*
X117830315Y-65543039D01*
X117777511Y-65588794D01*
X117726000Y-65600000D01*
X117474000Y-65600000D01*
X117406961Y-65580315D01*
X117361206Y-65527511D01*
X117350000Y-65476000D01*
X117350000Y-64624999D01*
X117326693Y-64625000D01*
X117326674Y-64625001D01*
X117227392Y-64635144D01*
X117066518Y-64688452D01*
X117066507Y-64688457D01*
X116922271Y-64777424D01*
X116922265Y-64777428D01*
X116913031Y-64786663D01*
X116851707Y-64820146D01*
X116782015Y-64815159D01*
X116737672Y-64786660D01*
X116728044Y-64777032D01*
X116728040Y-64777029D01*
X116583705Y-64688001D01*
X116583699Y-64687998D01*
X116583697Y-64687997D01*
X116582046Y-64687450D01*
X116422709Y-64634651D01*
X116323352Y-64624500D01*
X116323345Y-64624500D01*
X116187229Y-64624500D01*
X116120190Y-64604815D01*
X116099548Y-64588181D01*
X115823548Y-64312181D01*
X115790063Y-64250858D01*
X115795047Y-64181166D01*
X115836919Y-64125233D01*
X115902383Y-64100816D01*
X115911229Y-64100500D01*
X116553186Y-64100500D01*
X116553194Y-64100500D01*
X116590069Y-64097598D01*
X116590071Y-64097597D01*
X116590073Y-64097597D01*
X116675719Y-64072714D01*
X116747898Y-64051744D01*
X116889365Y-63968081D01*
X116915891Y-63941554D01*
X116977210Y-63908071D01*
X117046902Y-63913055D01*
X117091251Y-63941556D01*
X117097267Y-63947572D01*
X117097271Y-63947575D01*
X117241507Y-64036542D01*
X117241518Y-64036547D01*
X117402393Y-64089855D01*
X117501683Y-64099999D01*
X117549999Y-64099998D01*
X117550000Y-64099998D01*
X117550000Y-63274000D01*
X117569685Y-63206961D01*
X117622489Y-63161206D01*
X117674000Y-63150000D01*
X117926000Y-63150000D01*
X117993039Y-63169685D01*
G37*
%TD.AperFunction*%
%TA.AperFunction,Conductor*%
G36*
X119643371Y-60504500D02*
G01*
X119657546Y-60503656D01*
X119676230Y-60514148D01*
X119696787Y-60520185D01*
X119706084Y-60530914D01*
X119718466Y-60537868D01*
X119728511Y-60556796D01*
X119742542Y-60572989D01*
X119744562Y-60587043D01*
X119751219Y-60599586D01*
X119749436Y-60620937D01*
X119752486Y-60642147D01*
X119746474Y-60656420D01*
X119745406Y-60669213D01*
X119729226Y-60698528D01*
X119652487Y-60801647D01*
X119595315Y-60939673D01*
X119595315Y-60939674D01*
X119580000Y-61055995D01*
X119580000Y-61141000D01*
X119560315Y-61208039D01*
X119507511Y-61253794D01*
X119456001Y-61265000D01*
X119370433Y-61265000D01*
X119302438Y-61271178D01*
X119302427Y-61271181D01*
X119145939Y-61319944D01*
X119145935Y-61319946D01*
X119005662Y-61404743D01*
X119005656Y-61404748D01*
X118987178Y-61423226D01*
X118925855Y-61456710D01*
X118856163Y-61451724D01*
X118800230Y-61409851D01*
X118775815Y-61344386D01*
X118775499Y-61335543D01*
X118775499Y-61326662D01*
X118775498Y-61326644D01*
X118765349Y-61227292D01*
X118765348Y-61227289D01*
X118736755Y-61141000D01*
X118712003Y-61066303D01*
X118711999Y-61066297D01*
X118711998Y-61066294D01*
X118622970Y-60921959D01*
X118622967Y-60921955D01*
X118503044Y-60802032D01*
X118503040Y-60802029D01*
X118386325Y-60730038D01*
X118339600Y-60678090D01*
X118328379Y-60609128D01*
X118356222Y-60545046D01*
X118414291Y-60506190D01*
X118451422Y-60500500D01*
X119629748Y-60500500D01*
X119643371Y-60504500D01*
G37*
%TD.AperFunction*%
%TD*%
M02*
