M48
; DRILL file KiCad 10.0.0 date 2026-04-08T13:22:18
; FORMAT={-:-/ absolute / metric / decimal}
; #@! TF.CreationDate,2026-04-08T13:22:18+01:00
; #@! TF.GenerationSoftware,Kicad,Pcbnew,10.0.0
; #@! TF.FileFunction,Plated,1,4,PTH
FMAT,2
METRIC
; #@! TA.AperFunction,Plated,PTH,ViaDrill
T1C0.300
; #@! TA.AperFunction,Plated,PTH,ComponentDrill
T2C1.000
%
G90
G05
T1
X112.3Y-75.2
X112.9Y-83.2
X112.927Y-70.407
X113.052Y-79.194
X113.454Y-72.1
X113.477Y-72.877
X114.254Y-71.354
X114.4Y-73.1
X115.0Y-72.1
X115.0Y-77.9
X115.222Y-73.923
X115.75Y-78.475
X115.897Y-66.956
X116.073Y-73.073
X116.1Y-68.0
X116.2Y-80.9
X116.5Y-82.804
X117.0Y-64.5
X117.1Y-76.7
X117.131Y-78.91
X117.494Y-71.932
X117.85Y-78.805
X118.227Y-68.127
X118.4Y-74.299
X118.8Y-83.6
X119.3Y-61.4
X120.129Y-69.876
X120.7Y-71.296
X121.1Y-68.127
X121.377Y-77.623
X121.5Y-79.9
X121.5Y-83.3
X121.8Y-73.423
X122.0Y-66.4
X122.1Y-71.296
X122.4Y-78.5
X122.574Y-75.353
X122.7Y-67.6
X122.797Y-62.802
X123.148Y-74.907
X123.3Y-74.0
X123.45Y-72.65
X123.783Y-74.543
X124.1Y-67.0
X125.1Y-82.7
X125.116Y-76.573
X125.5Y-67.9
X125.7Y-74.8
X127.9Y-71.5
X128.5Y-77.6
X128.5Y-78.5
T2
X110.7Y-63.1
X110.7Y-65.64
X110.7Y-68.18
X110.7Y-70.72
X110.7Y-73.26
X110.7Y-75.8
X110.7Y-78.34
X131.7Y-63.24
X131.7Y-65.78
X131.7Y-68.32
X131.7Y-70.86
X131.7Y-73.4
X131.7Y-75.94
X131.7Y-78.48
M30
