%TF.GenerationSoftware,KiCad,Pcbnew,10.0.0*%
%TF.CreationDate,2026-04-08T13:22:48+01:00*%
%TF.ProjectId,esp32-c3-mini,65737033-322d-4633-932d-6d696e692e6b,rev?*%
%TF.SameCoordinates,Original*%
%TF.FileFunction,Copper,L4,Bot*%
%TF.FilePolarity,Positive*%
%FSLAX46Y46*%
G04 Gerber Fmt 4.6, Leading zero omitted, Abs format (unit mm)*
G04 Created by KiCad (PCBNEW 10.0.0) date 2026-04-08 13:22:48*
%MOMM*%
%LPD*%
G01*
G04 APERTURE LIST*
G04 Aperture macros list*
%AMRoundRect*
0 Rectangle with rounded corners*
0 $1 Rounding radius*
0 $2 $3 $4 $5 $6 $7 $8 $9 X,Y pos of 4 corners*
0 Add a 4 corners polygon primitive as box body*
4,1,4,$2,$3,$4,$5,$6,$7,$8,$9,$2,$3,0*
0 Add four circle primitives for the rounded corners*
1,1,$1+$1,$2,$3*
1,1,$1+$1,$4,$5*
1,1,$1+$1,$6,$7*
1,1,$1+$1,$8,$9*
0 Add four rect primitives between the rounded corners*
20,1,$1+$1,$2,$3,$4,$5,0*
20,1,$1+$1,$4,$5,$6,$7,0*
20,1,$1+$1,$6,$7,$8,$9,0*
20,1,$1+$1,$8,$9,$2,$3,0*%
G04 Aperture macros list end*
%TA.AperFunction,SMDPad,CuDef*%
%ADD10RoundRect,0.095000X-0.095000X-0.405000X0.095000X-0.405000X0.095000X0.405000X-0.095000X0.405000X0*%
%TD*%
%TA.AperFunction,SMDPad,CuDef*%
%ADD11RoundRect,0.175000X-0.175000X-0.400000X0.175000X-0.400000X0.175000X0.400000X-0.175000X0.400000X0*%
%TD*%
%TA.AperFunction,ComponentPad*%
%ADD12R,1.700000X1.700000*%
%TD*%
%TA.AperFunction,ComponentPad*%
%ADD13C,1.700000*%
%TD*%
%TA.AperFunction,ViaPad*%
%ADD14C,0.600000*%
%TD*%
%TA.AperFunction,Conductor*%
%ADD15C,0.500000*%
%TD*%
%TA.AperFunction,Conductor*%
%ADD16C,0.200000*%
%TD*%
G04 APERTURE END LIST*
D10*
%TO.P,P2,B1,GND_B1*%
%TO.N,GND*%
X125770000Y-61500000D03*
%TO.P,P2,B2,TX2+_B2*%
%TO.N,unconnected-(P2-TX2+-PadB2)*%
X125270000Y-61500000D03*
%TO.P,P2,B3,TX2-_B3*%
%TO.N,unconnected-(P2-TX2--PadB3)*%
X124770000Y-61500000D03*
%TO.P,P2,B4,VBUS_B4*%
%TO.N,+5V*%
X124270000Y-61500000D03*
%TO.P,P2,B5,VCONN_B5*%
%TO.N,Net-(P2-VCONN)*%
X123770000Y-61500000D03*
%TO.P,P2,B8,SBU2_B8*%
%TO.N,unconnected-(P2-SBU2-PadB8)*%
X122270000Y-61500000D03*
%TO.P,P2,B9,VBUS_B9*%
%TO.N,+5V*%
X121770000Y-61500000D03*
%TO.P,P2,B10,RX1-_B10*%
%TO.N,unconnected-(P2-RX1--PadB10)*%
X121270000Y-61500000D03*
%TO.P,P2,B11,RX1+_B11*%
%TO.N,unconnected-(P2-RX1+-PadB11)*%
X120770000Y-61500000D03*
%TO.P,P2,B12,GND_B12*%
%TO.N,GND*%
X120270000Y-61500000D03*
D11*
%TO.P,P2,SH,SHIELD_SH*%
X126440000Y-62340000D03*
%TD*%
D12*
%TO.P,J1,1,Pin_1_1*%
%TO.N,GPIO5*%
X110700000Y-63100000D03*
D13*
%TO.P,J1,2,Pin_2_2*%
%TO.N,GPIO6*%
X110700000Y-65640000D03*
%TO.P,J1,3,Pin_3_3*%
%TO.N,GPIO7*%
X110700000Y-68180000D03*
%TO.P,J1,4,Pin_4_4*%
%TO.N,GPIO9*%
X110700000Y-70720000D03*
%TO.P,J1,5,Pin_5_5*%
%TO.N,GPIO10*%
X110700000Y-73260000D03*
%TO.P,J1,6,Pin_6_6*%
%TO.N,U0RXD_GPIO20*%
X110700000Y-75800000D03*
%TO.P,J1,7,Pin_7_7*%
%TO.N,U0TXD_GPIO21*%
X110700000Y-78340000D03*
%TD*%
D12*
%TO.P,J2,1,Pin_1_1*%
%TO.N,+5V*%
X131700000Y-63240000D03*
D13*
%TO.P,J2,2,Pin_2_2*%
%TO.N,GND*%
X131700000Y-65780000D03*
%TO.P,J2,3,Pin_3_3*%
%TO.N,VDD_SPI*%
X131700000Y-68320000D03*
%TO.P,J2,4,Pin_4_4*%
%TO.N,GPIO0*%
X131700000Y-70860000D03*
%TO.P,J2,5,Pin_5_5*%
%TO.N,GPIO1*%
X131700000Y-73400000D03*
%TO.P,J2,6,Pin_6_6*%
%TO.N,GPIO3*%
X131700000Y-75940000D03*
%TO.P,J2,7,Pin_7_7*%
%TO.N,GPIO4*%
X131700000Y-78480000D03*
%TD*%
D14*
%TO.N,Net-(P2-VCONN)*%
X122797000Y-62802290D03*
%TO.N,GND*%
X118400000Y-74299200D03*
X116100000Y-68000000D03*
X122000000Y-66400000D03*
X112900000Y-83200000D03*
X118800000Y-83600000D03*
X117100000Y-76700000D03*
X116500000Y-82804000D03*
X119300000Y-61400000D03*
X117493524Y-71932103D03*
X117000000Y-64500000D03*
X121500000Y-79900000D03*
X125100000Y-82700000D03*
%TO.N,Net-(U2-SPICS0)*%
X127900000Y-71500000D03*
X120128552Y-69875973D03*
%TO.N,+3.3V*%
X115000000Y-77900000D03*
X125700000Y-74800000D03*
X122100000Y-71296000D03*
X125500000Y-67900000D03*
X116200000Y-80900000D03*
X123450000Y-72650000D03*
X121100000Y-68127000D03*
%TO.N,GPIO9*%
X123783004Y-74543360D03*
%TO.N,USB_D-*%
X116072646Y-73072646D03*
X114254354Y-71354354D03*
X114999646Y-72099646D03*
X122700000Y-67600000D03*
%TO.N,Net-(C7-Pad1)*%
X113051646Y-79193646D03*
X112300000Y-75200000D03*
%TO.N,Net-(U2-LNA_IN)*%
X121500000Y-83300000D03*
X115749749Y-78474874D03*
%TO.N,USB_D+*%
X124100000Y-67000000D03*
X113454000Y-72100000D03*
X115222290Y-73923000D03*
X114400000Y-73100000D03*
%TO.N,GPIO5*%
X115897000Y-66956456D03*
X125116201Y-76573000D03*
X118227000Y-68127000D03*
%TO.N,GPIO6*%
X122574316Y-75353200D03*
%TO.N,GPIO7*%
X112927000Y-70407000D03*
X123148271Y-74906985D03*
%TO.N,GPIO10*%
X121800000Y-73423000D03*
X113477000Y-72877000D03*
%TO.N,GPIO0*%
X117130686Y-78910162D03*
%TO.N,GPIO1*%
X117850000Y-78804708D03*
%TO.N,GPIO3*%
X128500000Y-77600000D03*
X121377354Y-77622646D03*
%TO.N,GPIO4*%
X128500000Y-78500000D03*
X122400000Y-78500000D03*
%TO.N,GPIO8*%
X120700000Y-71296000D03*
X123300000Y-74000000D03*
%TD*%
%TO.N,Net-(U2-LNA_IN)*%
D15*
X115749749Y-78492828D02*
X115749749Y-78474874D01*
X119600000Y-82800000D02*
X115723000Y-78923000D01*
X115723000Y-78519577D02*
X115749749Y-78492828D01*
X121000000Y-82800000D02*
X119600000Y-82800000D01*
X115723000Y-78923000D02*
X115723000Y-78519577D01*
X121500000Y-83300000D02*
X121000000Y-82800000D01*
%TO.N,Net-(P2-VCONN)*%
D16*
X123770000Y-61829290D02*
X122797000Y-62802290D01*
X123770000Y-61500000D02*
X123770000Y-61829290D01*
%TO.N,GND*%
D15*
X117500000Y-71938579D02*
X117500000Y-73399200D01*
X116100000Y-68000000D02*
X117000000Y-67100000D01*
X126000000Y-61500000D02*
X125837000Y-61500000D01*
X120203000Y-61433000D02*
X120203000Y-61500000D01*
X117200000Y-76407200D02*
X117200000Y-76600000D01*
X126440000Y-61940000D02*
X126000000Y-61500000D01*
X117493524Y-71932103D02*
X117500000Y-71938579D01*
X117000000Y-67100000D02*
X117000000Y-64500000D01*
X117500000Y-73399200D02*
X118400000Y-74299200D01*
X126440000Y-62340000D02*
X126440000Y-61940000D01*
X117200000Y-76600000D02*
X117100000Y-76700000D01*
X119300000Y-61400000D02*
X120170000Y-61400000D01*
X116500000Y-82804000D02*
X116596000Y-82900000D01*
X120170000Y-61400000D02*
X120203000Y-61433000D01*
%TO.N,Net-(U2-SPICS0)*%
D16*
X120128552Y-69875973D02*
X126275973Y-69875973D01*
X126275973Y-69875973D02*
X127900000Y-71500000D01*
%TO.N,+3.3V*%
D15*
X121950000Y-68977000D02*
X121100000Y-68127000D01*
X123450000Y-72550000D02*
X122696000Y-71796000D01*
X123450000Y-72550000D02*
X123450000Y-72650000D01*
X115000000Y-77900000D02*
X115000000Y-79700000D01*
X115000000Y-79700000D02*
X116200000Y-80900000D01*
X125500000Y-67900000D02*
X124423000Y-68977000D01*
X125700000Y-74800000D02*
X123450000Y-72550000D01*
X122600000Y-71796000D02*
X122100000Y-71296000D01*
X122696000Y-71796000D02*
X122600000Y-71796000D01*
X124423000Y-68977000D02*
X121950000Y-68977000D01*
%TO.N,GPIO9*%
D16*
X114417752Y-75880200D02*
X112000000Y-73462448D01*
X112000000Y-72020000D02*
X110700000Y-70720000D01*
X122920347Y-75880200D02*
X114417752Y-75880200D01*
X123783004Y-75017543D02*
X122920347Y-75880200D01*
X123783004Y-74543360D02*
X123783004Y-75017543D01*
X112000000Y-73462448D02*
X112000000Y-72020000D01*
%TO.N,USB_D-*%
X118008708Y-67600000D02*
X122700000Y-67600000D01*
X116072646Y-73072646D02*
X115972646Y-73072646D01*
X114254354Y-71354354D02*
X118008708Y-67600000D01*
X115972646Y-73072646D02*
X114999646Y-72099646D01*
%TO.N,+5V*%
D15*
X131700000Y-63240000D02*
X131648000Y-63292000D01*
X131648000Y-63292000D02*
X125391858Y-63292000D01*
X125204568Y-63479290D02*
X122516577Y-63479290D01*
X125391858Y-63292000D02*
X125204568Y-63479290D01*
X125391858Y-63292000D02*
X124270000Y-62170142D01*
X122516577Y-63479290D02*
X121770000Y-62732713D01*
X121770000Y-62732713D02*
X121770000Y-62170142D01*
%TO.N,Net-(C7-Pad1)*%
D16*
X113051646Y-79193646D02*
X112300000Y-78442000D01*
X112300000Y-78442000D02*
X112300000Y-75200000D01*
X112300000Y-75200000D02*
X112400000Y-75200000D01*
%TO.N,USB_D+*%
X117863417Y-67000000D02*
X124100000Y-67000000D01*
X115222290Y-73922290D02*
X114400000Y-73100000D01*
X113454000Y-71409417D02*
X117863417Y-67000000D01*
X115222290Y-73923000D02*
X115222290Y-73922290D01*
X113454000Y-72100000D02*
X113454000Y-71409417D01*
%TO.N,GPIO5*%
X126227000Y-75462201D02*
X126227000Y-74581709D01*
X122048264Y-70402973D02*
X119910261Y-70402973D01*
X118227000Y-68719712D02*
X118227000Y-68127000D01*
X115897000Y-66956456D02*
X112040544Y-63100000D01*
X126227000Y-74581709D02*
X122048264Y-70402973D01*
X119910261Y-70402973D02*
X118227000Y-68719712D01*
X125116201Y-76573000D02*
X126227000Y-75462201D01*
X112040544Y-63100000D02*
X110700000Y-63100000D01*
%TO.N,GPIO6*%
X112400000Y-73400000D02*
X112400000Y-67340000D01*
X114353200Y-75353200D02*
X112400000Y-73400000D01*
X112400000Y-67340000D02*
X110700000Y-65640000D01*
X122574316Y-75353200D02*
X114353200Y-75353200D01*
%TO.N,GPIO7*%
X112927000Y-73072291D02*
X114680909Y-74826200D01*
X123067486Y-74826200D02*
X123148271Y-74906985D01*
X114680909Y-74826200D02*
X123067486Y-74826200D01*
X112927000Y-70407000D02*
X112927000Y-73072291D01*
%TO.N,GPIO10*%
X113477000Y-72877000D02*
X115181000Y-71173000D01*
X115181000Y-71173000D02*
X119550000Y-71173000D01*
X119550000Y-71173000D02*
X121800000Y-73423000D01*
%TO.N,GPIO0*%
X117130686Y-78910162D02*
X117130686Y-78778731D01*
X118809417Y-77100000D02*
X121154709Y-77100000D01*
X117130686Y-78778731D02*
X118809417Y-77100000D01*
X125460000Y-77100000D02*
X131700000Y-70860000D01*
X121159063Y-77095646D02*
X121595645Y-77095646D01*
X121595645Y-77095646D02*
X121599999Y-77100000D01*
X121154709Y-77100000D02*
X121159063Y-77095646D01*
X121599999Y-77100000D02*
X125460000Y-77100000D01*
%TO.N,GPIO1*%
X128900000Y-79200000D02*
X129700000Y-78400000D01*
X129700000Y-78400000D02*
X129700000Y-75400000D01*
X118245292Y-79200000D02*
X128900000Y-79200000D01*
X117850000Y-78804708D02*
X118245292Y-79200000D01*
X129700000Y-75400000D02*
X131700000Y-73400000D01*
%TO.N,GPIO3*%
X121377354Y-77622646D02*
X128477354Y-77622646D01*
X128477354Y-77622646D02*
X128500000Y-77600000D01*
%TO.N,GPIO4*%
X128500000Y-78500000D02*
X122400000Y-78500000D01*
%TO.N,GPIO8*%
X120700000Y-71500000D02*
X123200000Y-74000000D01*
X123200000Y-74000000D02*
X123300000Y-74000000D01*
X120700000Y-71296000D02*
X120700000Y-71500000D01*
%TD*%
%TA.AperFunction,Conductor*%
%TO.N,GND*%
G36*
X133242539Y-60520185D02*
G01*
X133288294Y-60572989D01*
X133299500Y-60624500D01*
X133299500Y-87175500D01*
X133279815Y-87242539D01*
X133227011Y-87288294D01*
X133175500Y-87299500D01*
X109424500Y-87299500D01*
X109357461Y-87279815D01*
X109311706Y-87227011D01*
X109300500Y-87175500D01*
X109300500Y-79084555D01*
X109320185Y-79017516D01*
X109372989Y-78971761D01*
X109442147Y-78961817D01*
X109505703Y-78990842D01*
X109534985Y-79028261D01*
X109544949Y-79047817D01*
X109669890Y-79219786D01*
X109820213Y-79370109D01*
X109992179Y-79495048D01*
X109992181Y-79495049D01*
X109992184Y-79495051D01*
X110181588Y-79591557D01*
X110383757Y-79657246D01*
X110593713Y-79690500D01*
X110593714Y-79690500D01*
X110806286Y-79690500D01*
X110806287Y-79690500D01*
X111016243Y-79657246D01*
X111218412Y-79591557D01*
X111407816Y-79495051D01*
X111429789Y-79479086D01*
X111579786Y-79370109D01*
X111579788Y-79370106D01*
X111579792Y-79370104D01*
X111730104Y-79219792D01*
X111730106Y-79219788D01*
X111730109Y-79219786D01*
X111854519Y-79048549D01*
X111909848Y-79005883D01*
X111979462Y-78999904D01*
X112041257Y-79032509D01*
X112042518Y-79033753D01*
X112217071Y-79208306D01*
X112250556Y-79269629D01*
X112251007Y-79271795D01*
X112281907Y-79427137D01*
X112281910Y-79427147D01*
X112342248Y-79572818D01*
X112342255Y-79572831D01*
X112429856Y-79703934D01*
X112429859Y-79703938D01*
X112541353Y-79815432D01*
X112541357Y-79815435D01*
X112672460Y-79903036D01*
X112672473Y-79903043D01*
X112818144Y-79963381D01*
X112818149Y-79963383D01*
X112972799Y-79994145D01*
X112972802Y-79994146D01*
X112972804Y-79994146D01*
X113130490Y-79994146D01*
X113130491Y-79994145D01*
X113285143Y-79963383D01*
X113430825Y-79903040D01*
X113561935Y-79815435D01*
X113673435Y-79703935D01*
X113761040Y-79572825D01*
X113821383Y-79427143D01*
X113852146Y-79272488D01*
X113852146Y-79114804D01*
X113852146Y-79114801D01*
X113852145Y-79114799D01*
X113827488Y-78990842D01*
X113821383Y-78960149D01*
X113805797Y-78922520D01*
X113761043Y-78814473D01*
X113761036Y-78814460D01*
X113673435Y-78683357D01*
X113673432Y-78683353D01*
X113561938Y-78571859D01*
X113561934Y-78571856D01*
X113430831Y-78484255D01*
X113430818Y-78484248D01*
X113285147Y-78423910D01*
X113285137Y-78423907D01*
X113129795Y-78393007D01*
X113067884Y-78360622D01*
X113066306Y-78359071D01*
X112936819Y-78229584D01*
X112903334Y-78168261D01*
X112900500Y-78141903D01*
X112900500Y-75779765D01*
X112920185Y-75712726D01*
X112921398Y-75710874D01*
X113009390Y-75579185D01*
X113009390Y-75579184D01*
X113009394Y-75579179D01*
X113013970Y-75568130D01*
X113057808Y-75513725D01*
X113124101Y-75491657D01*
X113191802Y-75508933D01*
X113216213Y-75527896D01*
X114049036Y-76360720D01*
X114049038Y-76360721D01*
X114049042Y-76360724D01*
X114116538Y-76399692D01*
X114185968Y-76439777D01*
X114338695Y-76480701D01*
X114338697Y-76480701D01*
X114504406Y-76480701D01*
X114504422Y-76480700D01*
X118280119Y-76480700D01*
X118347158Y-76500385D01*
X118392913Y-76553189D01*
X118402857Y-76622347D01*
X118373832Y-76685903D01*
X118367800Y-76692381D01*
X118328895Y-76731286D01*
X116951546Y-78108634D01*
X116902733Y-78137895D01*
X116902816Y-78138094D01*
X116901480Y-78138647D01*
X116899876Y-78139609D01*
X116897191Y-78140423D01*
X116751513Y-78200764D01*
X116751502Y-78200770D01*
X116682236Y-78247052D01*
X116615558Y-78267929D01*
X116548178Y-78249444D01*
X116501489Y-78197464D01*
X116498798Y-78191431D01*
X116459143Y-78095695D01*
X116459139Y-78095688D01*
X116371538Y-77964585D01*
X116371535Y-77964581D01*
X116260041Y-77853087D01*
X116260037Y-77853084D01*
X116128934Y-77765483D01*
X116128921Y-77765476D01*
X115983250Y-77705138D01*
X115983240Y-77705135D01*
X115833010Y-77675252D01*
X115771099Y-77642867D01*
X115742641Y-77601087D01*
X115709397Y-77520826D01*
X115709390Y-77520814D01*
X115621789Y-77389711D01*
X115621786Y-77389707D01*
X115510292Y-77278213D01*
X115510288Y-77278210D01*
X115379185Y-77190609D01*
X115379172Y-77190602D01*
X115233501Y-77130264D01*
X115233489Y-77130261D01*
X115078845Y-77099500D01*
X115078842Y-77099500D01*
X114921158Y-77099500D01*
X114921155Y-77099500D01*
X114766510Y-77130261D01*
X114766498Y-77130264D01*
X114620827Y-77190602D01*
X114620814Y-77190609D01*
X114489711Y-77278210D01*
X114489707Y-77278213D01*
X114378213Y-77389707D01*
X114378210Y-77389711D01*
X114290609Y-77520814D01*
X114290602Y-77520827D01*
X114230264Y-77666498D01*
X114230261Y-77666510D01*
X114199500Y-77821153D01*
X114199500Y-77978846D01*
X114230261Y-78133489D01*
X114230263Y-78133497D01*
X114240061Y-78157151D01*
X114249500Y-78204604D01*
X114249500Y-79773918D01*
X114249500Y-79773920D01*
X114249499Y-79773920D01*
X114278340Y-79918907D01*
X114278343Y-79918917D01*
X114334914Y-80055492D01*
X114364318Y-80099498D01*
X114364319Y-80099501D01*
X114417046Y-80178414D01*
X114417052Y-80178421D01*
X115453927Y-81215295D01*
X115480806Y-81255521D01*
X115490606Y-81279179D01*
X115490607Y-81279181D01*
X115578207Y-81410284D01*
X115578213Y-81410292D01*
X115689707Y-81521786D01*
X115689711Y-81521789D01*
X115820814Y-81609390D01*
X115820827Y-81609397D01*
X115966498Y-81669735D01*
X115966503Y-81669737D01*
X116121153Y-81700499D01*
X116121156Y-81700500D01*
X116121158Y-81700500D01*
X116278844Y-81700500D01*
X116278845Y-81700499D01*
X116433497Y-81669737D01*
X116579179Y-81609394D01*
X116710289Y-81521789D01*
X116821789Y-81410289D01*
X116868877Y-81339815D01*
X116922487Y-81295013D01*
X116991812Y-81286304D01*
X117054839Y-81316458D01*
X117059659Y-81321027D01*
X119121586Y-83382954D01*
X119151058Y-83402645D01*
X119195270Y-83432186D01*
X119244505Y-83465084D01*
X119244506Y-83465084D01*
X119244507Y-83465085D01*
X119244509Y-83465086D01*
X119381082Y-83521656D01*
X119381087Y-83521658D01*
X119381091Y-83521658D01*
X119381092Y-83521659D01*
X119526079Y-83550500D01*
X119526082Y-83550500D01*
X119526083Y-83550500D01*
X119673917Y-83550500D01*
X120637770Y-83550500D01*
X120704809Y-83570185D01*
X120725451Y-83586819D01*
X120753927Y-83615295D01*
X120780807Y-83655523D01*
X120790604Y-83679175D01*
X120790609Y-83679185D01*
X120878210Y-83810288D01*
X120878213Y-83810292D01*
X120989707Y-83921786D01*
X120989711Y-83921789D01*
X121120814Y-84009390D01*
X121120827Y-84009397D01*
X121266498Y-84069735D01*
X121266503Y-84069737D01*
X121421153Y-84100499D01*
X121421156Y-84100500D01*
X121421158Y-84100500D01*
X121578844Y-84100500D01*
X121578845Y-84100499D01*
X121733497Y-84069737D01*
X121879179Y-84009394D01*
X122010289Y-83921789D01*
X122121789Y-83810289D01*
X122209394Y-83679179D01*
X122269737Y-83533497D01*
X122300500Y-83378842D01*
X122300500Y-83221158D01*
X122300500Y-83221155D01*
X122300499Y-83221153D01*
X122269738Y-83066510D01*
X122269737Y-83066503D01*
X122269735Y-83066498D01*
X122209397Y-82920827D01*
X122209390Y-82920814D01*
X122121789Y-82789711D01*
X122121786Y-82789707D01*
X122010292Y-82678213D01*
X122010288Y-82678210D01*
X121879185Y-82590609D01*
X121879175Y-82590604D01*
X121855523Y-82580807D01*
X121815295Y-82553927D01*
X121478421Y-82217052D01*
X121478414Y-82217046D01*
X121404729Y-82167812D01*
X121404729Y-82167813D01*
X121355491Y-82134913D01*
X121218917Y-82078343D01*
X121218907Y-82078340D01*
X121073920Y-82049500D01*
X121073918Y-82049500D01*
X119962230Y-82049500D01*
X119895191Y-82029815D01*
X119874549Y-82013181D01*
X117750699Y-79889331D01*
X117717214Y-79828008D01*
X117722198Y-79758316D01*
X117764070Y-79702383D01*
X117829534Y-79677966D01*
X117897807Y-79692818D01*
X117900360Y-79694251D01*
X117963387Y-79730639D01*
X117963389Y-79730641D01*
X118011323Y-79758316D01*
X118013507Y-79759577D01*
X118166234Y-79800500D01*
X118166235Y-79800500D01*
X128813331Y-79800500D01*
X128813347Y-79800501D01*
X128820943Y-79800501D01*
X128979054Y-79800501D01*
X128979057Y-79800501D01*
X129131785Y-79759577D01*
X129181904Y-79730639D01*
X129268716Y-79680520D01*
X129380520Y-79568716D01*
X129380520Y-79568714D01*
X129390728Y-79558507D01*
X129390730Y-79558504D01*
X130068713Y-78880521D01*
X130068716Y-78880520D01*
X130180520Y-78768716D01*
X130180522Y-78768711D01*
X130183325Y-78765909D01*
X130211287Y-78750641D01*
X130244647Y-78732425D01*
X130244649Y-78732425D01*
X130253951Y-78733090D01*
X130314339Y-78737409D01*
X130370273Y-78779280D01*
X130388937Y-78815272D01*
X130448444Y-78998416D01*
X130544951Y-79187820D01*
X130669890Y-79359786D01*
X130820213Y-79510109D01*
X130992179Y-79635048D01*
X130992181Y-79635049D01*
X130992184Y-79635051D01*
X131181588Y-79731557D01*
X131383757Y-79797246D01*
X131593713Y-79830500D01*
X131593714Y-79830500D01*
X131806286Y-79830500D01*
X131806287Y-79830500D01*
X132016243Y-79797246D01*
X132218412Y-79731557D01*
X132407816Y-79635051D01*
X132493455Y-79572831D01*
X132579786Y-79510109D01*
X132579788Y-79510106D01*
X132579792Y-79510104D01*
X132730104Y-79359792D01*
X132730106Y-79359788D01*
X132730109Y-79359786D01*
X132855048Y-79187820D01*
X132855047Y-79187820D01*
X132855051Y-79187816D01*
X132951557Y-78998412D01*
X133017246Y-78796243D01*
X133050500Y-78586287D01*
X133050500Y-78373713D01*
X133017246Y-78163757D01*
X132951557Y-77961588D01*
X132855051Y-77772184D01*
X132855049Y-77772181D01*
X132855048Y-77772179D01*
X132730109Y-77600213D01*
X132579786Y-77449890D01*
X132407820Y-77324951D01*
X132407115Y-77324591D01*
X132399054Y-77320485D01*
X132348259Y-77272512D01*
X132331463Y-77204692D01*
X132353999Y-77138556D01*
X132399054Y-77099515D01*
X132407816Y-77095051D01*
X132528333Y-77007491D01*
X132579786Y-76970109D01*
X132579788Y-76970106D01*
X132579792Y-76970104D01*
X132730104Y-76819792D01*
X132730106Y-76819788D01*
X132730109Y-76819786D01*
X132855048Y-76647820D01*
X132855047Y-76647820D01*
X132855051Y-76647816D01*
X132951557Y-76458412D01*
X133017246Y-76256243D01*
X133050500Y-76046287D01*
X133050500Y-75833713D01*
X133017246Y-75623757D01*
X132951557Y-75421588D01*
X132855051Y-75232184D01*
X132855049Y-75232181D01*
X132855048Y-75232179D01*
X132730109Y-75060213D01*
X132579786Y-74909890D01*
X132407820Y-74784951D01*
X132407115Y-74784591D01*
X132399054Y-74780485D01*
X132348259Y-74732512D01*
X132331463Y-74664692D01*
X132353999Y-74598556D01*
X132399054Y-74559515D01*
X132407816Y-74555051D01*
X132484324Y-74499465D01*
X132579786Y-74430109D01*
X132579788Y-74430106D01*
X132579792Y-74430104D01*
X132730104Y-74279792D01*
X132730106Y-74279788D01*
X132730109Y-74279786D01*
X132855048Y-74107820D01*
X132855047Y-74107820D01*
X132855051Y-74107816D01*
X132951557Y-73918412D01*
X133017246Y-73716243D01*
X133050500Y-73506287D01*
X133050500Y-73293713D01*
X133017246Y-73083757D01*
X132951557Y-72881588D01*
X132855051Y-72692184D01*
X132855049Y-72692181D01*
X132855048Y-72692179D01*
X132730109Y-72520213D01*
X132579786Y-72369890D01*
X132407820Y-72244951D01*
X132407115Y-72244591D01*
X132399054Y-72240485D01*
X132348259Y-72192512D01*
X132331463Y-72124692D01*
X132353999Y-72058556D01*
X132399054Y-72019515D01*
X132407816Y-72015051D01*
X132528333Y-71927491D01*
X132579786Y-71890109D01*
X132579788Y-71890106D01*
X132579792Y-71890104D01*
X132730104Y-71739792D01*
X132730106Y-71739788D01*
X132730109Y-71739786D01*
X132855048Y-71567820D01*
X132855047Y-71567820D01*
X132855051Y-71567816D01*
X132951557Y-71378412D01*
X133017246Y-71176243D01*
X133050500Y-70966287D01*
X133050500Y-70753713D01*
X133017246Y-70543757D01*
X132951557Y-70341588D01*
X132855051Y-70152184D01*
X132855049Y-70152181D01*
X132855048Y-70152179D01*
X132730109Y-69980213D01*
X132579786Y-69829890D01*
X132407820Y-69704951D01*
X132405865Y-69703955D01*
X132399054Y-69700485D01*
X132348259Y-69652512D01*
X132331463Y-69584692D01*
X132353999Y-69518556D01*
X132399054Y-69479515D01*
X132407816Y-69475051D01*
X132517373Y-69395454D01*
X132579786Y-69350109D01*
X132579788Y-69350106D01*
X132579792Y-69350104D01*
X132730104Y-69199792D01*
X132730106Y-69199788D01*
X132730109Y-69199786D01*
X132855048Y-69027820D01*
X132855047Y-69027820D01*
X132855051Y-69027816D01*
X132951557Y-68838412D01*
X133017246Y-68636243D01*
X133050500Y-68426287D01*
X133050500Y-68213713D01*
X133017246Y-68003757D01*
X132951557Y-67801588D01*
X132855051Y-67612184D01*
X132855049Y-67612181D01*
X132855048Y-67612179D01*
X132730109Y-67440213D01*
X132579786Y-67289890D01*
X132407817Y-67164949D01*
X132398504Y-67160204D01*
X132347707Y-67112230D01*
X132330912Y-67044409D01*
X132353449Y-66978274D01*
X132398507Y-66939232D01*
X132407555Y-66934622D01*
X132461716Y-66895270D01*
X132461717Y-66895270D01*
X131829408Y-66262962D01*
X131892993Y-66245925D01*
X132007007Y-66180099D01*
X132100099Y-66087007D01*
X132165925Y-65972993D01*
X132182962Y-65909409D01*
X132815270Y-66541717D01*
X132815270Y-66541716D01*
X132854622Y-66487554D01*
X132951095Y-66298217D01*
X133016757Y-66096130D01*
X133016757Y-66096127D01*
X133050000Y-65886246D01*
X133050000Y-65673753D01*
X133016757Y-65463872D01*
X133016757Y-65463869D01*
X132951095Y-65261782D01*
X132854624Y-65072449D01*
X132815270Y-65018282D01*
X132815269Y-65018282D01*
X132182962Y-65650590D01*
X132165925Y-65587007D01*
X132100099Y-65472993D01*
X132007007Y-65379901D01*
X131892993Y-65314075D01*
X131829409Y-65297037D01*
X132499627Y-64626818D01*
X132560950Y-64593333D01*
X132587307Y-64590499D01*
X132597872Y-64590499D01*
X132657483Y-64584091D01*
X132792331Y-64533796D01*
X132907546Y-64447546D01*
X132993796Y-64332331D01*
X133044091Y-64197483D01*
X133050500Y-64137873D01*
X133050499Y-62342128D01*
X133044091Y-62282517D01*
X133015298Y-62205320D01*
X132993797Y-62147671D01*
X132993793Y-62147664D01*
X132907547Y-62032455D01*
X132907544Y-62032452D01*
X132792335Y-61946206D01*
X132792328Y-61946202D01*
X132657482Y-61895908D01*
X132657483Y-61895908D01*
X132597883Y-61889501D01*
X132597881Y-61889500D01*
X132597873Y-61889500D01*
X132597864Y-61889500D01*
X130802129Y-61889500D01*
X130802123Y-61889501D01*
X130742516Y-61895908D01*
X130607671Y-61946202D01*
X130607664Y-61946206D01*
X130492455Y-62032452D01*
X130492452Y-62032455D01*
X130406206Y-62147664D01*
X130406202Y-62147671D01*
X130355908Y-62282517D01*
X130350873Y-62329358D01*
X130349501Y-62342123D01*
X130349500Y-62342135D01*
X130349500Y-62417500D01*
X130329815Y-62484539D01*
X130277011Y-62530294D01*
X130225500Y-62541500D01*
X126564000Y-62541500D01*
X126496961Y-62521815D01*
X126451206Y-62469011D01*
X126440000Y-62417500D01*
X126440000Y-62214000D01*
X126459685Y-62146961D01*
X126512489Y-62101206D01*
X126564000Y-62090000D01*
X127289999Y-62090000D01*
X127289999Y-61885433D01*
X127283821Y-61817438D01*
X127283818Y-61817427D01*
X127235055Y-61660939D01*
X127235053Y-61660935D01*
X127150256Y-61520662D01*
X127150252Y-61520657D01*
X127034342Y-61404747D01*
X127034337Y-61404743D01*
X126894065Y-61319947D01*
X126737562Y-61271179D01*
X126669556Y-61265000D01*
X126583999Y-61265000D01*
X126516960Y-61245315D01*
X126471205Y-61192511D01*
X126459999Y-61141000D01*
X126459999Y-61056001D01*
X126444686Y-60939681D01*
X126444684Y-60939673D01*
X126384731Y-60794933D01*
X126311876Y-60699986D01*
X126286682Y-60634817D01*
X126300720Y-60566372D01*
X126349534Y-60516383D01*
X126410252Y-60500500D01*
X133175500Y-60500500D01*
X133242539Y-60520185D01*
G37*
%TD.AperFunction*%
%TA.AperFunction,Conductor*%
G36*
X119696787Y-60520185D02*
G01*
X119742542Y-60572989D01*
X119752486Y-60642147D01*
X119728124Y-60699986D01*
X119655268Y-60794933D01*
X119595315Y-60939673D01*
X119595315Y-60939674D01*
X119580000Y-61055995D01*
X119580000Y-61310000D01*
X119955500Y-61310000D01*
X120022539Y-61329685D01*
X120068294Y-61382489D01*
X120079500Y-61433999D01*
X120079501Y-61565999D01*
X120059817Y-61633039D01*
X120007013Y-61678794D01*
X119955501Y-61690000D01*
X119580001Y-61690000D01*
X119580001Y-61943998D01*
X119595313Y-62060318D01*
X119595315Y-62060326D01*
X119655268Y-62205066D01*
X119750641Y-62329358D01*
X119874933Y-62424731D01*
X120019674Y-62484684D01*
X120080000Y-62492627D01*
X120080000Y-62450499D01*
X120099685Y-62383460D01*
X120152489Y-62337705D01*
X120221647Y-62327761D01*
X120275348Y-62349082D01*
X120277441Y-62350554D01*
X120374680Y-62425169D01*
X120396129Y-62434053D01*
X120407348Y-62441946D01*
X120419212Y-62456857D01*
X120429916Y-62466243D01*
X120437853Y-62472639D01*
X120438118Y-62473436D01*
X120459999Y-62492626D01*
X120501889Y-62487111D01*
X120534260Y-62487111D01*
X120575448Y-62492532D01*
X120635965Y-62500500D01*
X120895500Y-62500499D01*
X120962539Y-62520183D01*
X121008294Y-62572987D01*
X121019500Y-62624499D01*
X121019500Y-62806631D01*
X121019500Y-62806633D01*
X121019499Y-62806633D01*
X121048340Y-62951620D01*
X121048343Y-62951630D01*
X121104914Y-63088205D01*
X121128694Y-63123794D01*
X121128695Y-63123797D01*
X121187046Y-63211127D01*
X121187052Y-63211134D01*
X122038157Y-64062238D01*
X122038161Y-64062241D01*
X122161075Y-64144370D01*
X122161088Y-64144377D01*
X122297659Y-64200946D01*
X122297664Y-64200948D01*
X122297668Y-64200948D01*
X122297669Y-64200949D01*
X122442656Y-64229790D01*
X122442659Y-64229790D01*
X125278488Y-64229790D01*
X125376030Y-64210386D01*
X125423481Y-64200948D01*
X125560063Y-64144374D01*
X125609297Y-64111476D01*
X125681257Y-64063396D01*
X125716136Y-64052475D01*
X125747933Y-64042520D01*
X125750145Y-64042500D01*
X130227864Y-64042500D01*
X130294903Y-64062185D01*
X130340658Y-64114989D01*
X130351154Y-64153248D01*
X130355908Y-64197483D01*
X130406202Y-64332328D01*
X130406206Y-64332335D01*
X130492452Y-64447544D01*
X130492455Y-64447547D01*
X130607664Y-64533793D01*
X130607671Y-64533797D01*
X130651503Y-64550145D01*
X130742517Y-64584091D01*
X130802127Y-64590500D01*
X130812685Y-64590499D01*
X130879723Y-64610179D01*
X130900372Y-64626818D01*
X131570591Y-65297037D01*
X131507007Y-65314075D01*
X131392993Y-65379901D01*
X131299901Y-65472993D01*
X131234075Y-65587007D01*
X131217037Y-65650591D01*
X130584728Y-65018282D01*
X130584727Y-65018282D01*
X130545380Y-65072439D01*
X130448904Y-65261782D01*
X130383242Y-65463869D01*
X130383242Y-65463872D01*
X130350000Y-65673753D01*
X130350000Y-65886246D01*
X130383242Y-66096127D01*
X130383242Y-66096130D01*
X130448904Y-66298217D01*
X130545375Y-66487550D01*
X130584728Y-66541716D01*
X131217037Y-65909408D01*
X131234075Y-65972993D01*
X131299901Y-66087007D01*
X131392993Y-66180099D01*
X131507007Y-66245925D01*
X131570590Y-66262962D01*
X130938282Y-66895269D01*
X130938282Y-66895270D01*
X130992452Y-66934626D01*
X130992451Y-66934626D01*
X131001495Y-66939234D01*
X131052292Y-66987208D01*
X131069087Y-67055029D01*
X131046550Y-67121164D01*
X131001499Y-67160202D01*
X130992182Y-67164949D01*
X130820213Y-67289890D01*
X130669890Y-67440213D01*
X130544951Y-67612179D01*
X130448444Y-67801585D01*
X130382753Y-68003760D01*
X130349500Y-68213713D01*
X130349500Y-68426286D01*
X130378501Y-68609394D01*
X130382754Y-68636243D01*
X130447788Y-68836397D01*
X130448444Y-68838414D01*
X130544951Y-69027820D01*
X130669890Y-69199786D01*
X130820213Y-69350109D01*
X130992182Y-69475050D01*
X131000946Y-69479516D01*
X131051742Y-69527491D01*
X131068536Y-69595312D01*
X131045998Y-69661447D01*
X131000946Y-69700484D01*
X130992182Y-69704949D01*
X130820213Y-69829890D01*
X130669890Y-69980213D01*
X130544951Y-70152179D01*
X130448444Y-70341585D01*
X130382753Y-70543760D01*
X130353214Y-70730261D01*
X130349500Y-70753713D01*
X130349500Y-70966287D01*
X130353210Y-70989711D01*
X130382754Y-71176244D01*
X130382754Y-71176247D01*
X130396491Y-71218523D01*
X130398486Y-71288364D01*
X130366241Y-71344522D01*
X127039181Y-74671583D01*
X126977858Y-74705068D01*
X126908166Y-74700084D01*
X126852233Y-74658212D01*
X126827816Y-74592748D01*
X126827618Y-74589302D01*
X126827500Y-74586595D01*
X126827500Y-74502652D01*
X126826646Y-74499465D01*
X126786577Y-74349924D01*
X126783796Y-74345108D01*
X126752043Y-74290110D01*
X126738483Y-74266623D01*
X126723001Y-74239808D01*
X126707521Y-74212994D01*
X126591385Y-74096858D01*
X126591374Y-74096848D01*
X123182680Y-70688154D01*
X123149195Y-70626831D01*
X123154179Y-70557139D01*
X123196051Y-70501206D01*
X123261515Y-70476789D01*
X123270361Y-70476473D01*
X125975876Y-70476473D01*
X126042915Y-70496158D01*
X126063557Y-70512792D01*
X127065425Y-71514660D01*
X127098910Y-71575983D01*
X127099361Y-71578149D01*
X127130261Y-71733491D01*
X127130264Y-71733501D01*
X127190602Y-71879172D01*
X127190609Y-71879185D01*
X127278210Y-72010288D01*
X127278213Y-72010292D01*
X127389707Y-72121786D01*
X127389711Y-72121789D01*
X127520814Y-72209390D01*
X127520827Y-72209397D01*
X127666498Y-72269735D01*
X127666503Y-72269737D01*
X127821153Y-72300499D01*
X127821156Y-72300500D01*
X127821158Y-72300500D01*
X127978844Y-72300500D01*
X127978845Y-72300499D01*
X128133497Y-72269737D01*
X128279179Y-72209394D01*
X128410289Y-72121789D01*
X128521789Y-72010289D01*
X128609394Y-71879179D01*
X128669737Y-71733497D01*
X128700500Y-71578842D01*
X128700500Y-71421158D01*
X128700500Y-71421155D01*
X128700499Y-71421153D01*
X128669738Y-71266510D01*
X128669737Y-71266503D01*
X128669735Y-71266498D01*
X128609397Y-71120827D01*
X128609390Y-71120814D01*
X128521789Y-70989711D01*
X128521786Y-70989707D01*
X128410292Y-70878213D01*
X128410288Y-70878210D01*
X128279185Y-70790609D01*
X128279172Y-70790602D01*
X128133501Y-70730264D01*
X128133491Y-70730261D01*
X127978149Y-70699361D01*
X127916238Y-70666976D01*
X127914660Y-70665425D01*
X126763563Y-69514328D01*
X126763561Y-69514325D01*
X126644690Y-69395454D01*
X126644682Y-69395448D01*
X126535642Y-69332494D01*
X126535642Y-69332495D01*
X126507756Y-69316395D01*
X126451854Y-69301416D01*
X126355030Y-69275472D01*
X126196916Y-69275472D01*
X126189320Y-69275472D01*
X126189304Y-69275473D01*
X125485257Y-69275473D01*
X125418218Y-69255788D01*
X125372463Y-69202984D01*
X125362519Y-69133826D01*
X125391544Y-69070270D01*
X125397576Y-69063792D01*
X125499721Y-68961647D01*
X125815297Y-68646069D01*
X125855524Y-68619191D01*
X125879179Y-68609394D01*
X126010289Y-68521789D01*
X126121789Y-68410289D01*
X126209394Y-68279179D01*
X126269737Y-68133497D01*
X126300500Y-67978842D01*
X126300500Y-67821158D01*
X126300500Y-67821155D01*
X126300499Y-67821153D01*
X126278269Y-67709397D01*
X126269737Y-67666503D01*
X126247238Y-67612184D01*
X126209397Y-67520827D01*
X126209390Y-67520814D01*
X126121789Y-67389711D01*
X126121786Y-67389707D01*
X126010292Y-67278213D01*
X126010288Y-67278210D01*
X125879185Y-67190609D01*
X125879172Y-67190602D01*
X125733501Y-67130264D01*
X125733489Y-67130261D01*
X125578845Y-67099500D01*
X125578842Y-67099500D01*
X125421158Y-67099500D01*
X125421155Y-67099500D01*
X125266510Y-67130261D01*
X125266498Y-67130264D01*
X125120827Y-67190602D01*
X125120816Y-67190608D01*
X125090000Y-67211199D01*
X125023322Y-67232076D01*
X124955942Y-67213591D01*
X124909252Y-67161611D01*
X124898077Y-67092641D01*
X124899494Y-67083898D01*
X124900500Y-67078841D01*
X124900500Y-66921155D01*
X124900499Y-66921153D01*
X124899337Y-66915312D01*
X124869737Y-66766503D01*
X124813728Y-66631284D01*
X124809397Y-66620827D01*
X124809390Y-66620814D01*
X124721789Y-66489711D01*
X124721786Y-66489707D01*
X124610292Y-66378213D01*
X124610288Y-66378210D01*
X124479185Y-66290609D01*
X124479172Y-66290602D01*
X124333501Y-66230264D01*
X124333489Y-66230261D01*
X124178845Y-66199500D01*
X124178842Y-66199500D01*
X124021158Y-66199500D01*
X124021155Y-66199500D01*
X123866510Y-66230261D01*
X123866498Y-66230264D01*
X123720827Y-66290602D01*
X123720814Y-66290609D01*
X123589125Y-66378602D01*
X123522447Y-66399480D01*
X123520234Y-66399500D01*
X117784359Y-66399500D01*
X117631631Y-66440423D01*
X117613003Y-66451179D01*
X117613000Y-66451180D01*
X117494707Y-66519475D01*
X117494699Y-66519481D01*
X116909181Y-67105000D01*
X116847858Y-67138485D01*
X116778166Y-67133501D01*
X116722233Y-67091629D01*
X116697816Y-67026165D01*
X116697500Y-67017319D01*
X116697500Y-66877611D01*
X116697499Y-66877609D01*
X116693893Y-66859480D01*
X116666737Y-66722959D01*
X116628765Y-66631286D01*
X116606397Y-66577283D01*
X116606390Y-66577270D01*
X116518789Y-66446167D01*
X116518786Y-66446163D01*
X116407292Y-66334669D01*
X116407288Y-66334666D01*
X116276185Y-66247065D01*
X116276172Y-66247058D01*
X116130501Y-66186720D01*
X116130491Y-66186717D01*
X115975149Y-66155817D01*
X115913238Y-66123432D01*
X115911660Y-66121881D01*
X112528134Y-62738355D01*
X112528132Y-62738352D01*
X112409261Y-62619481D01*
X112409253Y-62619475D01*
X112330976Y-62574282D01*
X112330971Y-62574280D01*
X112321467Y-62568793D01*
X112272329Y-62540423D01*
X112137298Y-62504240D01*
X112132329Y-62502444D01*
X112108245Y-62484788D01*
X112082745Y-62469245D01*
X112080367Y-62464351D01*
X112075979Y-62461134D01*
X112065262Y-62433254D01*
X112052216Y-62406397D01*
X112051460Y-62397349D01*
X112050910Y-62395917D01*
X112051217Y-62394434D01*
X112050499Y-62385835D01*
X112050499Y-62202129D01*
X112050498Y-62202123D01*
X112044091Y-62142516D01*
X111993797Y-62007671D01*
X111993793Y-62007664D01*
X111907547Y-61892455D01*
X111907544Y-61892452D01*
X111792335Y-61806206D01*
X111792328Y-61806202D01*
X111657482Y-61755908D01*
X111657483Y-61755908D01*
X111597883Y-61749501D01*
X111597881Y-61749500D01*
X111597873Y-61749500D01*
X111597864Y-61749500D01*
X109802129Y-61749500D01*
X109802123Y-61749501D01*
X109742516Y-61755908D01*
X109607671Y-61806202D01*
X109607669Y-61806204D01*
X109498811Y-61887695D01*
X109433347Y-61912112D01*
X109365074Y-61897260D01*
X109315668Y-61847855D01*
X109300500Y-61788428D01*
X109300500Y-60624500D01*
X109320185Y-60557461D01*
X109372989Y-60511706D01*
X109424500Y-60500500D01*
X119629748Y-60500500D01*
X119696787Y-60520185D01*
G37*
%TD.AperFunction*%
%TA.AperFunction,Conductor*%
G36*
X119316942Y-71793185D02*
G01*
X119337584Y-71809819D01*
X120965425Y-73437660D01*
X120998910Y-73498983D01*
X120999361Y-73501149D01*
X121030261Y-73656491D01*
X121030264Y-73656501D01*
X121090602Y-73802172D01*
X121090609Y-73802185D01*
X121178210Y-73933288D01*
X121178213Y-73933292D01*
X121258940Y-74014019D01*
X121292425Y-74075342D01*
X121287441Y-74145034D01*
X121245569Y-74200967D01*
X121180105Y-74225384D01*
X121171259Y-74225700D01*
X116129356Y-74225700D01*
X116062317Y-74206015D01*
X116016562Y-74153211D01*
X116006618Y-74084053D01*
X116007045Y-74081305D01*
X116007362Y-74079399D01*
X116022790Y-74001842D01*
X116022790Y-73986880D01*
X116024479Y-73976751D01*
X116035408Y-73954173D01*
X116042475Y-73930107D01*
X116050369Y-73923266D01*
X116054922Y-73913862D01*
X116076325Y-73900775D01*
X116095279Y-73884352D01*
X116107553Y-73881681D01*
X116114532Y-73877415D01*
X116125985Y-73877671D01*
X116146790Y-73873146D01*
X116151490Y-73873146D01*
X116151491Y-73873145D01*
X116306143Y-73842383D01*
X116451825Y-73782040D01*
X116582935Y-73694435D01*
X116694435Y-73582935D01*
X116782040Y-73451825D01*
X116842383Y-73306143D01*
X116873146Y-73151488D01*
X116873146Y-72993804D01*
X116873146Y-72993801D01*
X116873145Y-72993799D01*
X116863191Y-72943757D01*
X116842383Y-72839149D01*
X116842381Y-72839144D01*
X116782043Y-72693473D01*
X116782036Y-72693460D01*
X116694435Y-72562357D01*
X116694432Y-72562353D01*
X116582938Y-72450859D01*
X116582934Y-72450856D01*
X116451831Y-72363255D01*
X116451818Y-72363248D01*
X116306147Y-72302910D01*
X116306135Y-72302907D01*
X116151491Y-72272146D01*
X116151488Y-72272146D01*
X116072744Y-72272146D01*
X116005705Y-72252461D01*
X115985063Y-72235827D01*
X115834219Y-72084983D01*
X115800734Y-72023660D01*
X115800282Y-72021492D01*
X115800146Y-72020808D01*
X115800146Y-72020804D01*
X115780431Y-71921690D01*
X115786660Y-71852099D01*
X115829523Y-71796922D01*
X115895413Y-71773678D01*
X115902049Y-71773500D01*
X119249903Y-71773500D01*
X119316942Y-71793185D01*
G37*
%TD.AperFunction*%
%TA.AperFunction,Conductor*%
G36*
X112180714Y-64096508D02*
G01*
X112208969Y-64117660D01*
X115062425Y-66971116D01*
X115095910Y-67032439D01*
X115096361Y-67034605D01*
X115127261Y-67189947D01*
X115127264Y-67189957D01*
X115187602Y-67335628D01*
X115187609Y-67335641D01*
X115275210Y-67466744D01*
X115275213Y-67466748D01*
X115386707Y-67578242D01*
X115386711Y-67578245D01*
X115517814Y-67665846D01*
X115517827Y-67665853D01*
X115663498Y-67726191D01*
X115663503Y-67726193D01*
X115818153Y-67756955D01*
X115818156Y-67756956D01*
X115957863Y-67756956D01*
X116024902Y-67776641D01*
X116070657Y-67829445D01*
X116080601Y-67898603D01*
X116051576Y-67962159D01*
X116045544Y-67968637D01*
X113870120Y-70144060D01*
X113808797Y-70177545D01*
X113739105Y-70172561D01*
X113683172Y-70130689D01*
X113667881Y-70103838D01*
X113636394Y-70027821D01*
X113636392Y-70027818D01*
X113636390Y-70027814D01*
X113548789Y-69896711D01*
X113548786Y-69896707D01*
X113437292Y-69785213D01*
X113437288Y-69785210D01*
X113306185Y-69697609D01*
X113306172Y-69697602D01*
X113160501Y-69637264D01*
X113160491Y-69637261D01*
X113100308Y-69625290D01*
X113038397Y-69592905D01*
X113003823Y-69532189D01*
X113000500Y-69503673D01*
X113000500Y-67260945D01*
X113000500Y-67260943D01*
X112980240Y-67185331D01*
X112959577Y-67108215D01*
X112930639Y-67058095D01*
X112880520Y-66971284D01*
X112768716Y-66859480D01*
X112768715Y-66859479D01*
X112764385Y-66855149D01*
X112764374Y-66855139D01*
X112033757Y-66124522D01*
X112000272Y-66063199D01*
X112003507Y-65998523D01*
X112017246Y-65956243D01*
X112050500Y-65746287D01*
X112050500Y-65533713D01*
X112017246Y-65323757D01*
X111951557Y-65121588D01*
X111855051Y-64932184D01*
X111855049Y-64932181D01*
X111855048Y-64932179D01*
X111730109Y-64760213D01*
X111616569Y-64646673D01*
X111583084Y-64585350D01*
X111588068Y-64515658D01*
X111629940Y-64459725D01*
X111660915Y-64442810D01*
X111792331Y-64393796D01*
X111907546Y-64307546D01*
X111993796Y-64192331D01*
X112005106Y-64162008D01*
X112046977Y-64106075D01*
X112112441Y-64081657D01*
X112180714Y-64096508D01*
G37*
%TD.AperFunction*%
%TD*%
M02*
