%TF.GenerationSoftware,KiCad,Pcbnew,10.0.0*%
%TF.CreationDate,2026-04-08T13:22:48+01:00*%
%TF.ProjectId,esp32-c3-mini,65737033-322d-4633-932d-6d696e692e6b,rev?*%
%TF.SameCoordinates,Original*%
%TF.FileFunction,Paste,Top*%
%TF.FilePolarity,Positive*%
%FSLAX46Y46*%
G04 Gerber Fmt 4.6, Leading zero omitted, Abs format (unit mm)*
G04 Created by KiCad (PCBNEW 10.0.0) date 2026-04-08 13:22:48*
%MOMM*%
%LPD*%
G01*
G04 APERTURE LIST*
G04 Aperture macros list*
%AMRoundRect*
0 Rectangle with rounded corners*
0 $1 Rounding radius*
0 $2 $3 $4 $5 $6 $7 $8 $9 X,Y pos of 4 corners*
0 Add a 4 corners polygon primitive as box body*
4,1,4,$2,$3,$4,$5,$6,$7,$8,$9,$2,$3,0*
0 Add four circle primitives for the rounded corners*
1,1,$1+$1,$2,$3*
1,1,$1+$1,$4,$5*
1,1,$1+$1,$6,$7*
1,1,$1+$1,$8,$9*
0 Add four rect primitives between the rounded corners*
20,1,$1+$1,$2,$3,$4,$5,0*
20,1,$1+$1,$4,$5,$6,$7,0*
20,1,$1+$1,$6,$7,$8,$9,0*
20,1,$1+$1,$8,$9,$2,$3,0*%
G04 Aperture macros list end*
%ADD10RoundRect,0.135000X-0.185000X0.135000X-0.185000X-0.135000X0.185000X-0.135000X0.185000X0.135000X0*%
%ADD11RoundRect,0.135000X0.185000X-0.135000X0.185000X0.135000X-0.185000X0.135000X-0.185000X-0.135000X0*%
%ADD12RoundRect,0.250000X0.350000X-0.450000X0.350000X0.450000X-0.350000X0.450000X-0.350000X-0.450000X0*%
%ADD13RoundRect,0.200000X0.275000X-0.200000X0.275000X0.200000X-0.275000X0.200000X-0.275000X-0.200000X0*%
%ADD14RoundRect,0.225000X-0.250000X0.225000X-0.250000X-0.225000X0.250000X-0.225000X0.250000X0.225000X0*%
%ADD15RoundRect,0.225000X-0.225000X-0.250000X0.225000X-0.250000X0.225000X0.250000X-0.225000X0.250000X0*%
%ADD16RoundRect,0.200000X0.200000X0.800000X-0.200000X0.800000X-0.200000X-0.800000X0.200000X-0.800000X0*%
%ADD17RoundRect,0.140000X-0.140000X-0.170000X0.140000X-0.170000X0.140000X0.170000X-0.140000X0.170000X0*%
%ADD18RoundRect,0.140000X-0.170000X0.140000X-0.170000X-0.140000X0.170000X-0.140000X0.170000X0.140000X0*%
%ADD19RoundRect,0.095000X-0.095000X-0.405000X0.095000X-0.405000X0.095000X0.405000X-0.095000X0.405000X0*%
%ADD20RoundRect,0.175000X-0.175000X-0.400000X0.175000X-0.400000X0.175000X0.400000X-0.175000X0.400000X0*%
%ADD21RoundRect,0.147500X-0.147500X-0.172500X0.147500X-0.172500X0.147500X0.172500X-0.147500X0.172500X0*%
%ADD22RoundRect,0.200000X-0.275000X0.200000X-0.275000X-0.200000X0.275000X-0.200000X0.275000X0.200000X0*%
%ADD23R,1.200000X2.000000*%
%ADD24RoundRect,0.147500X0.172500X-0.147500X0.172500X0.147500X-0.172500X0.147500X-0.172500X-0.147500X0*%
%ADD25RoundRect,0.218750X0.218750X0.256250X-0.218750X0.256250X-0.218750X-0.256250X0.218750X-0.256250X0*%
%ADD26RoundRect,0.140000X0.170000X-0.140000X0.170000X0.140000X-0.170000X0.140000X-0.170000X-0.140000X0*%
%ADD27RoundRect,0.225000X0.250000X-0.225000X0.250000X0.225000X-0.250000X0.225000X-0.250000X-0.225000X0*%
%ADD28RoundRect,0.150000X0.512500X0.150000X-0.512500X0.150000X-0.512500X-0.150000X0.512500X-0.150000X0*%
%ADD29RoundRect,0.200000X0.200000X0.275000X-0.200000X0.275000X-0.200000X-0.275000X0.200000X-0.275000X0*%
%ADD30RoundRect,0.250000X0.495000X-0.495000X0.495000X0.495000X-0.495000X0.495000X-0.495000X-0.495000X0*%
%ADD31RoundRect,0.062500X0.062500X-0.337500X0.062500X0.337500X-0.062500X0.337500X-0.062500X-0.337500X0*%
%ADD32RoundRect,0.062500X0.337500X-0.062500X0.337500X0.062500X-0.337500X0.062500X-0.337500X-0.062500X0*%
%ADD33RoundRect,0.062500X-0.117500X-0.062500X0.117500X-0.062500X0.117500X0.062500X-0.117500X0.062500X0*%
G04 APERTURE END LIST*
D10*
%TO.C,R9*%
X124320000Y-64580000D03*
X124320000Y-65600000D03*
%TD*%
D11*
%TO.C,R12*%
X122320000Y-65620000D03*
X122320000Y-64600000D03*
%TD*%
D12*
%TO.C,Y1*%
X117150000Y-86000000D03*
X117150000Y-83800000D03*
X115450000Y-83800000D03*
X115450000Y-86000000D03*
%TD*%
D13*
%TO.C,R3*%
X129200000Y-70625000D03*
X129200000Y-68975000D03*
%TD*%
D14*
%TO.C,C14*%
X117400000Y-69100000D03*
X117400000Y-70650000D03*
%TD*%
D15*
%TO.C,C20*%
X116050000Y-65600000D03*
X117600000Y-65600000D03*
%TD*%
D16*
%TO.C,SW2*%
X128400000Y-74000000D03*
X124200000Y-74000000D03*
%TD*%
D10*
%TO.C,R8*%
X123320000Y-64570000D03*
X123320000Y-65590000D03*
%TD*%
D17*
%TO.C,C6*%
X115220000Y-68800000D03*
X116180000Y-68800000D03*
%TD*%
D13*
%TO.C,R1*%
X115500000Y-81650000D03*
X115500000Y-80000000D03*
%TD*%
D18*
%TO.C,C1*%
X112600000Y-84800000D03*
X112600000Y-85760000D03*
%TD*%
D16*
%TO.C,SW1*%
X127600000Y-78000000D03*
X123400000Y-78000000D03*
%TD*%
D10*
%TO.C,R10*%
X126320000Y-64590000D03*
X126320000Y-65610000D03*
%TD*%
D14*
%TO.C,C19*%
X117800000Y-61600000D03*
X117800000Y-63150000D03*
%TD*%
%TO.C,C3*%
X125800000Y-69000000D03*
X125800000Y-70550000D03*
%TD*%
D17*
%TO.C,C13*%
X122120000Y-70800000D03*
X123080000Y-70800000D03*
%TD*%
D18*
%TO.C,C2*%
X113600000Y-84820000D03*
X113600000Y-85780000D03*
%TD*%
D19*
%TO.C,P2*%
X120270000Y-61500000D03*
X120770000Y-61500000D03*
X121270000Y-61500000D03*
X121770000Y-61500000D03*
X122270000Y-61500000D03*
X122770000Y-61500000D03*
X123270000Y-61500000D03*
X123770000Y-61500000D03*
X124270000Y-61500000D03*
X124770000Y-61500000D03*
X125270000Y-61500000D03*
X125770000Y-61500000D03*
D20*
X119600000Y-62340000D03*
%TD*%
D11*
%TO.C,R2*%
X111600000Y-85820000D03*
X111600000Y-84800000D03*
%TD*%
D21*
%TO.C,L1*%
X115215000Y-69800000D03*
X116185000Y-69800000D03*
%TD*%
D22*
%TO.C,R6*%
X120000000Y-80000000D03*
X120000000Y-81650000D03*
%TD*%
%TO.C,R4*%
X118500000Y-80000000D03*
X118500000Y-81650000D03*
%TD*%
D23*
%TO.C,AE1*%
X127100000Y-86000000D03*
X132600000Y-86000000D03*
%TD*%
D24*
%TO.C,L2*%
X121100000Y-85300000D03*
X121100000Y-84330000D03*
%TD*%
D17*
%TO.C,C7*%
X115220000Y-70800000D03*
X116180000Y-70800000D03*
%TD*%
D25*
%TO.C,D2*%
X120700000Y-65600000D03*
X119125000Y-65600000D03*
%TD*%
D10*
%TO.C,R11*%
X125320000Y-64580000D03*
X125320000Y-65600000D03*
%TD*%
D26*
%TO.C,C16*%
X121500000Y-81500000D03*
X121500000Y-80540000D03*
%TD*%
D27*
%TO.C,C11*%
X129200000Y-67555000D03*
X129200000Y-66005000D03*
%TD*%
D14*
%TO.C,C4*%
X124300000Y-69000000D03*
X124300000Y-70550000D03*
%TD*%
D28*
%TO.C,U1*%
X115975000Y-63300000D03*
X115975000Y-62350000D03*
X115975000Y-61400000D03*
X113700000Y-61400000D03*
X113700000Y-63300000D03*
%TD*%
D14*
%TO.C,C5*%
X119100000Y-69050000D03*
X119100000Y-70600000D03*
%TD*%
D17*
%TO.C,C10*%
X122120000Y-68800000D03*
X123080000Y-68800000D03*
%TD*%
D27*
%TO.C,C9*%
X122600000Y-85350000D03*
X122600000Y-83800000D03*
%TD*%
D13*
%TO.C,R5*%
X117000000Y-81650000D03*
X117000000Y-80000000D03*
%TD*%
D29*
%TO.C,R13*%
X125725000Y-86000000D03*
X124075000Y-86000000D03*
%TD*%
D17*
%TO.C,C12*%
X122120000Y-69800000D03*
X123080000Y-69800000D03*
%TD*%
D27*
%TO.C,C8*%
X119600000Y-85350000D03*
X119600000Y-83800000D03*
%TD*%
D30*
%TO.C,U2*%
X117475000Y-76125000D03*
X119325000Y-76125000D03*
X117475000Y-74275000D03*
X119325000Y-74275000D03*
D31*
X116650001Y-77650000D03*
X117150000Y-77650000D03*
X117650000Y-77650001D03*
X118150000Y-77650000D03*
X118650000Y-77650000D03*
X119150000Y-77650001D03*
X119650000Y-77650000D03*
X120149999Y-77650000D03*
D32*
X120850000Y-76949999D03*
X120850000Y-76450000D03*
X120850001Y-75950000D03*
X120850000Y-75450000D03*
X120850000Y-74950000D03*
X120850001Y-74450000D03*
X120850000Y-73950000D03*
X120850000Y-73450001D03*
D31*
X120149999Y-72750000D03*
X119650000Y-72750000D03*
X119150000Y-72749999D03*
X118650000Y-72750000D03*
X118150000Y-72750000D03*
X117650000Y-72749999D03*
X117150000Y-72750000D03*
X116650001Y-72750000D03*
D32*
X115950000Y-73450001D03*
X115950000Y-73950000D03*
X115949999Y-74450000D03*
X115950000Y-74950000D03*
X115950000Y-75450000D03*
X115949999Y-75950000D03*
X115950000Y-76450000D03*
X115950000Y-76949999D03*
%TD*%
D22*
%TO.C,R7*%
X120900000Y-68975000D03*
X120900000Y-70625000D03*
%TD*%
D33*
%TO.C,D1*%
X120120000Y-67200000D03*
X119280000Y-67200000D03*
%TD*%
M02*
